<svg width="16" height="16" viewBox="0 0 16 16" fill="none" xmlns="http://www.w3.org/2000/svg">
<path fill-rule="evenodd" clip-rule="evenodd" d="M9.40381 2.37437C10.5696 1.20854 12.4598 1.20854 13.6256 2.37437C14.7915 3.54019 14.7915 5.43037 13.6256 6.59619L6.59619 13.6256C5.43037 14.7915 3.54019 14.7915 2.37437 13.6256C1.20854 12.4598 1.20854 10.5696 2.37437 9.40381L9.40381 2.37437ZM12.9185 3.08148C12.1432 2.30617 10.8862 2.30617 10.1109 3.08148L9.14645 4.04594L11.9541 6.85355L12.9185 5.88909C13.6938 5.11379 13.6938 3.85678 12.9185 3.08148ZM11.247 7.56066L8.43934 4.75305L5.19239 8L8 10.8076L11.247 7.56066ZM7.29289 11.5147L4.48528 8.70711L3.08148 10.1109C2.30617 10.8862 2.30617 12.1432 3.08148 12.9185C3.85678 13.6938 5.11379 13.6938 5.88909 12.9185L7.29289 11.5147Z" fill="black"/>
</svg>
