<svg width="16" height="16" viewBox="0 0 16 16" fill="none" xmlns="http://www.w3.org/2000/svg">
<path d="M8.27 1.00521C7.32828 0.968859 6.38892 1.12304 5.50823 1.45851C4.62754 1.79398 3.82365 2.30384 3.14477 2.9575C2.4659 3.61117 1.926 4.39519 1.55745 5.26256C1.18891 6.12993 0.999301 7.06279 1 8.00521C0.999977 8.37587 1.08545 8.74154 1.24977 9.07379C1.4141 9.40603 1.65285 9.6959 1.94745 9.92084C2.24205 10.1458 2.58457 10.2997 2.94837 10.3707C3.31217 10.4417 3.68744 10.4279 4.045 10.3302L4.33574 10.2497L5.42406 9.16142C5.28491 9.13748 5.14309 9.12521 5 9.12521C4.77533 9.12561 4.5517 9.15587 4.335 9.21521L3.775 9.37021C3.56584 9.42626 3.34658 9.43339 3.13422 9.39104C2.92186 9.34869 2.72211 9.25799 2.55046 9.12599C2.3788 8.99398 2.23986 8.82422 2.1444 8.62985C2.04894 8.43549 1.99953 8.22175 2 8.00521C1.99938 7.19711 2.16201 6.39721 2.47813 5.6535C2.79424 4.90979 3.25733 4.23761 3.83962 3.67727C4.4219 3.11694 5.11137 2.68 5.86667 2.39267C6.62196 2.10535 7.42752 1.97356 8.235 2.00521C9.40066 2.06592 10.5169 2.45972 11.4558 3.12972L12.1875 2.39794C11.0584 1.5537 9.69416 1.06386 8.27 1.00521Z" fill="black"/>
<path d="M11.5 10.0052C12.0523 10.0052 12.5 9.55749 12.5 9.00521C12.5 8.45292 12.0523 8.00521 11.5 8.00521C10.9477 8.00521 10.5 8.45292 10.5 9.00521C10.5 9.55749 10.9477 10.0052 11.5 10.0052Z" fill="black"/>
<path d="M10.5 11.5052C10.5 12.0575 10.0523 12.5052 9.5 12.5052C8.94772 12.5052 8.5 12.0575 8.5 11.5052C8.5 10.9529 8.94772 10.5052 9.5 10.5052C10.0523 10.5052 10.5 10.9529 10.5 11.5052Z" fill="black"/>
<path fill-rule="evenodd" clip-rule="evenodd" d="M5.70267 10.297C5.70261 10.297 5.70272 10.2971 5.70267 10.297L6.42713 9.57256C6.42708 9.57253 6.42718 9.5726 6.42713 9.57256L14.9843 1.01562L15.6914 1.72273L13.6027 3.8115C14.4497 4.94184 14.9412 6.30846 15 7.73521C15.0364 8.67693 14.8822 9.61629 14.5467 10.497C14.2112 11.3777 13.7014 12.1816 13.0477 12.8604C12.394 13.5393 11.61 14.0792 10.7427 14.4478C9.87528 14.8163 8.94242 15.0059 8 15.0052C7.60218 15.0052 7.22065 14.8472 6.93934 14.5659C6.65804 14.2846 6.5 13.903 6.5 13.5052V11.6252C6.5004 11.4218 6.45944 11.2208 6.37993 11.0342L2.34782 15.0663L1.64072 14.3592L5.70267 10.297ZM7.11767 10.2965C7.36551 10.6915 7.5 11.1514 7.5 11.6252V13.5052C7.5 13.6378 7.55268 13.765 7.64645 13.8588C7.74022 13.9525 7.86739 14.0052 8 14.0052C8.8083 14.0068 9.60849 13.844 10.352 13.5268C11.0954 13.2097 11.7667 12.7447 12.325 12.1602V12.1652C12.8884 11.5851 13.3276 10.8961 13.6156 10.1404C13.9036 9.3847 14.0344 8.57819 14 7.77021C13.9392 6.60194 13.5437 5.48336 12.871 4.54316L11.8815 5.53264C11.9571 5.67336 12 5.83428 12 6.00521C12 6.55749 11.5523 7.00521 11 7.00521C10.8291 7.00521 10.6682 6.96232 10.5274 6.88672L7.11767 10.2965Z" fill="black"/>
<path d="M8 5.50521C8.55229 5.50521 9 5.05749 9 4.50521C9 3.95292 8.55229 3.50521 8 3.50521C7.44772 3.50521 7 3.95292 7 4.50521C7 5.05749 7.44772 5.50521 8 5.50521Z" fill="black"/>
<path d="M5 7.00521C5.55229 7.00521 6 6.55749 6 6.00521C6 5.45292 5.55229 5.00521 5 5.00521C4.44772 5.00521 4 5.45292 4 6.00521C4 6.55749 4.44772 7.00521 5 7.00521Z" fill="black"/>
</svg>
