<svg width="16" height="16" viewBox="0 0 16 16" fill="none" xmlns="http://www.w3.org/2000/svg">
<path d="M14.915 10L15.085 9L12.5 8.575V6.5C12.5 6.46 12.5 6.425 12.5 6.385L15.03 5.705L14.775 4.74L12.36 5.385C12.1955 4.76343 11.8998 4.18432 11.4927 3.68667C11.0856 3.18901 10.5766 2.78437 9.99998 2.5V1H8.99998V2.115C8.34213 1.96166 7.65783 1.96166 6.99998 2.115V1H5.99998V2.5C5.42158 2.7876 4.91188 3.19636 4.50552 3.69849C4.09916 4.20062 3.80566 4.78435 3.64498 5.41L1.22998 4.74L0.999983 5.705L3.49998 6.385C3.49998 6.425 3.49998 6.46 3.49998 6.5V8.575L0.919983 9L1.07998 10L3.49998 9.59C3.5114 10.207 3.65103 10.8149 3.90998 11.375L1.64498 13.645L2.35498 14.355L4.44998 12.255C4.87075 12.7952 5.40924 13.2322 6.02443 13.5328C6.63961 13.8333 7.31528 13.9896 7.99998 13.9896C8.68468 13.9896 9.36035 13.8333 9.97554 13.5328C10.5907 13.2322 11.1292 12.7952 11.55 12.255L13.645 14.355L14.355 13.645L12.085 11.375C12.3457 10.8152 12.487 10.2073 12.5 9.59L14.915 10ZM7.49998 12.96C6.66768 12.8399 5.90646 12.4241 5.35557 11.7887C4.80469 11.1534 4.50097 10.3409 4.49998 9.5V6.5H7.49998V12.96ZM4.64498 5.5C4.85984 4.77698 5.30251 4.14271 5.90707 3.69168C6.51163 3.24065 7.24572 2.99698 7.99998 2.99698C8.75425 2.99698 9.48834 3.24065 10.0929 3.69168C10.6975 4.14271 11.1401 4.77698 11.355 5.5H4.64498ZM11.5 9.5C11.499 10.3409 11.1953 11.1534 10.6444 11.7887C10.0935 12.4241 9.33228 12.8399 8.49998 12.96V6.5H11.5V9.5Z" fill="black"/>
</svg>
