<svg width="16" height="16" viewBox="0 0 16 16" fill="none" xmlns="http://www.w3.org/2000/svg">
<path fill-rule="evenodd" clip-rule="evenodd" d="M2.02174 3.4C2.02174 2.90294 2.42468 2.5 2.92174 2.5H6.29565C6.79271 2.5 7.19565 2.90294 7.19565 3.4V5.54525C7.19565 5.80545 7.08304 6.05292 6.88685 6.22384L5.19989 7.69354C4.86104 7.98875 4.35635 7.98875 4.0175 7.69354L2.33054 6.22384C2.13435 6.05292 2.02174 5.80545 2.02174 5.54525V3.4ZM3.02174 3.5V5.49974L4.6087 6.88232L6.19565 5.49974V3.5H3.02174ZM9.32609 3.4C9.32609 2.90294 9.72903 2.5 10.2261 2.5H13.6C14.0971 2.5 14.5 2.90294 14.5 3.4V5.54525C14.5 5.80545 14.3874 6.05292 14.1912 6.22384L12.5042 7.69354C12.1654 7.98875 11.6607 7.98875 11.3218 7.69354L9.63489 6.22384C9.4387 6.05292 9.32609 5.80545 9.32609 5.54525V3.4ZM10.3261 3.5V5.49974L11.913 6.88232L13.5 5.49974V3.5H10.3261ZM4.1087 11.1818V9.36364H5.1087V11.1818C5.1087 11.7551 4.97639 12.2988 4.73672 12.7163C4.50495 13.1202 4.10913 13.5 3.56522 13.5H2C1.72386 13.5 1.5 13.2761 1.5 13C1.5 12.7239 1.72386 12.5 2 12.5H3.56522C3.5976 12.5 3.72352 12.4728 3.86941 12.2186C4.00741 11.9781 4.1087 11.6126 4.1087 11.1818ZM11.413 11.1818V9.36364H12.413V11.1818C12.413 11.7551 12.2807 12.2988 12.0411 12.7163C11.8093 13.1202 11.4135 13.5 10.8696 13.5H9.30435C9.02821 13.5 8.80435 13.2761 8.80435 13C8.80435 12.7239 9.02821 12.5 9.30435 12.5H10.8696C10.9019 12.5 11.0279 12.4728 11.1738 12.2186C11.3118 11.9781 11.413 11.6126 11.413 11.1818Z" fill="black"/>
</svg>
