<svg width="16" height="16" viewBox="0 0 16 16" fill="none" xmlns="http://www.w3.org/2000/svg">
<path fill-rule="evenodd" clip-rule="evenodd" d="M7.02776 3.62914L6.11362 4.69938V6.32672C6.11362 6.58088 5.90898 6.78692 5.65655 6.78692C5.40412 6.78692 5.19948 6.58088 5.19948 6.32672V4.53212C5.19948 4.41982 5.23947 4.31122 5.31222 4.22605L7.12221 2.10697C7.40419 1.77684 7.9419 2.27675 7.9419 2.71216V13.7067C7.9419 14.1465 7.39486 14.0458 7.11639 13.7067L5.30641 11.5029C5.2373 11.4187 5.19948 11.3129 5.19948 11.2037V9.49464C5.19948 9.24047 5.40412 9.03443 5.65655 9.03443C5.90898 9.03443 6.11362 9.24047 6.11362 9.49464V11.0414L7.02776 12.1544V3.62914Z" fill="black"/>
<path d="M2.91414 2.84843C2.91414 3.10259 2.7095 3.30863 2.45707 3.30863C2.20464 3.30863 2 3.10259 2 2.84843C2 2.59426 2.20464 2.38822 2.45707 2.38822C2.7095 2.38822 2.91414 2.59426 2.91414 2.84843Z" fill="black"/>
<path d="M3.82828 9.29129C3.82828 9.54545 3.62364 9.75149 3.37121 9.75149C3.11877 9.75149 2.91414 9.54545 2.91414 9.29129C2.91414 9.03713 3.11877 8.83109 3.37121 8.83109C3.62364 8.83109 3.82828 9.03713 3.82828 9.29129Z" fill="black"/>
<path d="M3.82828 12.5127C3.82828 13.021 3.419 13.4331 2.91414 13.4331C2.40927 13.4331 2 13.021 2 12.5127C2 12.0044 2.40927 11.5923 2.91414 11.5923C3.419 11.5923 3.82828 12.0044 3.82828 12.5127Z" fill="black"/>
<path d="M3.82828 6.06986C3.82828 6.57819 3.419 6.99027 2.91414 6.99027C2.40927 6.99027 2 6.57819 2 6.06986C2 5.56153 2.40927 5.14945 2.91414 5.14945C3.419 5.14945 3.82828 5.56153 3.82828 6.06986Z" fill="black"/>
<path fill-rule="evenodd" clip-rule="evenodd" d="M11.2753 4.55933C10.8978 4.17927 10.3064 4.12031 9.86219 4.41845C9.69897 4.52801 9.47843 4.4836 9.36962 4.31926L9.2566 4.14858C9.14779 3.98423 9.19189 3.76219 9.35512 3.65262C10.1619 3.11111 11.2361 3.21821 11.9217 3.9085C12.2991 4.28856 12.8906 4.34753 13.3347 4.04938C13.4979 3.93982 13.7185 3.98423 13.8273 4.14858L13.9403 4.31926C14.0491 4.4836 14.005 4.70565 13.8418 4.81521C13.0351 5.35673 11.9609 5.24963 11.2753 4.55933Z" fill="black"/>
<path fill-rule="evenodd" clip-rule="evenodd" d="M11.2753 7.32505C10.8978 6.94499 10.3064 6.88603 9.86219 7.18417C9.69897 7.29373 9.47843 7.24932 9.36962 7.08498L9.2566 6.9143C9.14779 6.74995 9.19189 6.52791 9.35512 6.41834C10.1619 5.87683 11.2361 5.98393 11.9217 6.67422C12.2991 7.05428 12.8906 7.11325 13.3347 6.81511C13.4979 6.70554 13.7185 6.74995 13.8273 6.9143L13.9403 7.08498C14.0491 7.24932 14.005 7.47137 13.8418 7.58093C13.0351 8.12245 11.9609 8.01535 11.2753 7.32505Z" fill="black"/>
<path fill-rule="evenodd" clip-rule="evenodd" d="M11.2753 10.0863C10.8978 9.70622 10.3064 9.64725 9.86219 9.9454C9.69897 10.055 9.47843 10.0106 9.36962 9.84621L9.2566 9.67552C9.14779 9.51118 9.19189 9.28913 9.35512 9.17957C10.1619 8.63806 11.2361 8.74515 11.9217 9.43545C12.2991 9.81551 12.8906 9.87448 13.3347 9.57633C13.4979 9.46677 13.7185 9.51118 13.8273 9.67552L13.9403 9.84621C14.0491 10.0106 14.005 10.2326 13.8418 10.3422C13.0351 10.8837 11.9609 10.7766 11.2753 10.0863Z" fill="black"/>
<path fill-rule="evenodd" clip-rule="evenodd" d="M11.2753 12.8475C10.8978 12.4674 10.3064 12.4085 9.86219 12.7066C9.69897 12.8162 9.47843 12.7718 9.36962 12.6074L9.2566 12.4367C9.14779 12.2724 9.19189 12.0504 9.35512 11.9408C10.1619 11.3993 11.2361 11.5064 11.9217 12.1967C12.2991 12.5767 12.8906 12.6357 13.3347 12.3376C13.4979 12.228 13.7185 12.2724 13.8273 12.4367L13.9403 12.6074C14.0491 12.7718 14.005 12.9938 13.8418 13.1034C13.0351 13.6449 11.9609 13.5378 11.2753 12.8475Z" fill="black"/>
</svg>
