<svg width="16" height="16" viewBox="0 0 16 16" fill="none" xmlns="http://www.w3.org/2000/svg">
<path d="M13 9.00001H12L11 10.9485L10 9.00001H9L10.4525 11.5L9 14H10L11 12.1005L12 14H13L11.549 11.5L13 9.00001Z" fill="black"/>
<path d="M9.5 3.00001V2.00001H6.95665C6.7068 1.99891 6.46567 2.09183 6.28117 2.26031C6.09666 2.42878 5.98226 2.66049 5.9607 2.90941L5.6343 6.50001H3.5V7.50001H5.54335L5.04335 13H2.5V14H5.04335C5.2932 14.0011 5.53433 13.9082 5.71883 13.7397C5.90334 13.5712 6.01774 13.3395 6.0393 13.0906L6.5476 7.50001H9V6.50001H6.63845L6.95665 3.00001H9.5Z" fill="black"/>
</svg>
