<svg width="16" height="16" viewBox="0 0 16 16" fill="none" xmlns="http://www.w3.org/2000/svg">
<path d="M8.30615 1.10687C8.2174 1.03762 8.10805 1 7.99547 1C7.8829 1 7.77355 1.03762 7.6848 1.10687L0.5 6.70967L1.12135 7.49552L2 6.81042V13C2.00054 13.265 2.10607 13.5191 2.29349 13.7065C2.48091 13.8939 2.73495 13.9994 3 14H13C13.2651 13.9995 13.5191 13.894 13.7066 13.7065C13.894 13.5191 13.9995 13.265 14 13V6.81497L14.8786 7.49997L15.5 6.71407L8.30615 1.10687ZM10 13H7H6H3V6.03072L8 2.13572L13 6.03597V13H10Z" fill="black"/>
<path d="M10.0488 7.5C10.7481 7.50818 11.433 7.70007 12.0352 8.05566C12.6371 8.41121 13.1357 8.91814 13.4805 9.52637C13.8252 10.1347 14.0043 10.8232 14 11.5225C13.9957 12.2217 13.8082 12.9077 13.4561 13.5117C13.1038 14.1158 12.5986 14.6167 11.9922 14.9648C11.3859 15.3129 10.6991 15.4965 10 15.4961H9.5V13.4951L10.001 13.4961C10.3615 13.4965 10.7155 13.3991 11.0254 13.2148C11.3353 13.0306 11.5899 12.7662 11.7617 12.4492C11.9335 12.1321 12.0168 11.7735 12.002 11.4131C11.987 11.0529 11.874 10.7031 11.6768 10.4014C11.4794 10.0996 11.2039 9.85637 10.8799 9.69824C10.5559 9.54024 10.1951 9.47279 9.83594 9.50293C9.47655 9.5331 9.13209 9.66013 8.83887 9.87012C8.78409 9.90935 8.73191 9.9518 8.68164 9.99609H9.5V11.9961H5.5V7.99609H7.5V8.38184C7.67239 8.24342 7.85544 8.11754 8.0498 8.00879C8.66008 7.66739 9.3496 7.49182 10.0488 7.5Z" fill="black" stroke="white"/>
</svg>
