<svg width="16" height="16" viewBox="0 0 16 16" fill="none" xmlns="http://www.w3.org/2000/svg">
<path fill-rule="evenodd" clip-rule="evenodd" d="M2.75009 2.92308C2.75009 2.41328 3.14184 2 3.62509 2H11.9375C12.509 2 12.9952 2.3853 13.1753 2.92308H13.6875C14.4124 2.92308 15 3.54299 15 4.30769V9.38462C15 10.1493 14.4124 10.7692 13.6875 10.7692H13.25V12.6154C13.25 13.3801 12.6624 14 11.9375 14H4.06258C3.33772 14 2.75009 13.3801 2.75009 12.6154V12.1538C2.75009 11.8989 2.94597 11.6923 3.18759 11.6923C3.42921 11.6923 3.62509 11.8989 3.62509 12.1538V12.6154C3.62509 12.8703 3.82096 13.0769 4.06258 13.0769H11.9375C12.1791 13.0769 12.375 12.8703 12.375 12.6154V3.38462C12.375 3.12971 12.1791 2.92308 11.9375 2.92308H3.62509C3.62509 3.17798 3.42921 3.38462 3.18759 3.38462C2.94597 3.38462 2.75009 3.17798 2.75009 2.92308ZM13.25 9.84615H13.6875C13.9291 9.84615 14.125 9.63952 14.125 9.38462V4.30769C14.125 4.05279 13.9291 3.84615 13.6875 3.84615H13.25V9.84615ZM3.35179 5.12963C3.11639 4.93096 2.80553 4.86207 2.51425 4.94401L1.55033 5.21519C1.31687 5.28086 1.07714 5.13445 1.01488 4.88815C0.952623 4.64186 1.09141 4.38895 1.32488 4.32328L2.2888 4.0521C2.84859 3.89463 3.446 4.02703 3.89839 4.40883C4.13379 4.6075 4.44464 4.67639 4.73592 4.59445L5.69984 4.32328C5.93331 4.2576 6.17304 4.40402 6.2353 4.65031C6.29755 4.8966 6.15876 5.14951 5.9253 5.21519L4.96137 5.48636C4.40159 5.64384 3.80418 5.51144 3.35179 5.12963ZM3.35179 6.97579C3.11639 6.77712 2.80553 6.70822 2.51425 6.79017L1.55033 7.06134C1.31687 7.12702 1.07714 6.9806 1.01488 6.73431C0.952623 6.48801 1.09141 6.23511 1.32488 6.16943L2.2888 5.89826C2.84859 5.74078 3.446 5.87318 3.89839 6.25498C4.13379 6.45365 4.44464 6.52254 4.73592 6.4406L5.69984 6.16943C5.93331 6.10375 6.17304 6.25017 6.2353 6.49646C6.29755 6.74276 6.15876 6.99566 5.9253 7.06134L4.96137 7.33251C4.40159 7.48999 3.80418 7.35759 3.35179 6.97579ZM3.35179 8.82194C3.11639 8.62327 2.80553 8.55438 2.51425 8.63632L1.55033 8.90749C1.31687 8.97317 1.07714 8.82675 1.01488 8.58046C0.952623 8.33417 1.09141 8.08126 1.32488 8.01558L2.2888 7.74441C2.84859 7.58693 3.446 7.71933 3.89839 8.10114C4.13379 8.2998 4.44464 8.3687 4.73592 8.28676L5.69984 8.01558C5.93331 7.94991 6.17304 8.09632 6.2353 8.34262C6.29755 8.58891 6.15876 8.84181 5.9253 8.90749L4.96137 9.17866C4.40159 9.33614 3.80418 9.20374 3.35179 8.82194ZM3.35179 10.6681C3.11639 10.4694 2.80553 10.4005 2.51425 10.4825L1.55033 10.7536C1.31687 10.8193 1.07714 10.6729 1.01488 10.4266C0.952623 10.1803 1.09141 9.92742 1.32488 9.86174L2.2888 9.59057C2.84859 9.43309 3.446 9.56549 3.89839 9.94729C4.13379 10.146 4.44464 10.2149 4.73592 10.1329L5.69984 9.86174C5.93331 9.79606 6.17304 9.94248 6.2353 10.1888C6.29755 10.4351 6.15876 10.688 5.9253 10.7536L4.96137 11.0248C4.40159 11.1823 3.80418 11.0499 3.35179 10.6681Z" fill="black"/>
</svg>
