<svg width="16" height="16" viewBox="0 0 16 16" fill="none" xmlns="http://www.w3.org/2000/svg">
<path fill-rule="evenodd" clip-rule="evenodd" d="M2 3.38462C2 2.61991 2.6236 2 3.39286 2H11.75C12.3565 2 12.8724 2.3853 13.0636 2.92308H13.6071C14.3764 2.92308 15 3.54299 15 4.30769V8.92308C15 9.68778 14.3764 10.3077 13.6071 10.3077H13.1429V12.6154C13.1429 13.3801 12.5193 14 11.75 14H3.39286C2.6236 14 2 13.3801 2 12.6154V3.38462ZM13.1429 9.38462H13.6071C13.8636 9.38462 14.0714 9.17798 14.0714 8.92308V4.30769C14.0714 4.05279 13.8636 3.84615 13.6071 3.84615H13.1429V9.38462ZM3.39286 2.92308C3.13644 2.92308 2.92857 3.12971 2.92857 3.38462V12.6154C2.92857 12.8703 3.13644 13.0769 3.39286 13.0769H11.75C12.0064 13.0769 12.2143 12.8703 12.2143 12.6154V3.38462C12.2143 3.12971 12.0064 2.92308 11.75 2.92308H3.39286Z" fill="black"/>
<path fill-rule="evenodd" clip-rule="evenodd" d="M9.45031 8.04912C9.65417 7.93513 9.90206 8.02754 10.004 8.25553L10.2321 8.76579L10.6884 8.51066C10.8922 8.39667 11.1401 8.48908 11.2421 8.71707C11.344 8.94506 11.2614 9.22229 11.0575 9.33628L10.2395 9.7937C10.0316 9.90997 9.77872 9.81571 9.67475 9.58316L9.26575 8.66834C9.16382 8.44035 9.24645 8.16312 9.45031 8.04912Z" fill="black"/>
<path fill-rule="evenodd" clip-rule="evenodd" d="M5.69254 7.95088C5.48869 8.06487 5.24079 7.97246 5.13887 7.74447L4.91074 7.23421L4.45448 7.48934C4.25062 7.60333 4.00273 7.51092 3.9008 7.28293C3.79887 7.05494 3.8815 6.77771 4.08536 6.66371L4.90335 6.2063C5.11129 6.09003 5.36414 6.18429 5.46811 6.41684L5.8771 7.33166C5.97903 7.55965 5.8964 7.83688 5.69254 7.95088Z" fill="black"/>
<path fill-rule="evenodd" clip-rule="evenodd" d="M6.40428 4.97656C6.76819 4.84222 7.16178 4.76923 7.57143 4.76923C7.98108 4.76923 8.37467 4.84222 8.73858 4.97656C8.95501 5.05645 9.07256 5.31744 9.00112 5.5595C8.92968 5.80155 8.69631 5.93301 8.47988 5.85312C8.19961 5.74966 7.89337 5.69231 7.57143 5.69231C7.24949 5.69231 6.94325 5.74966 6.66298 5.85312C6.44654 5.93301 6.21317 5.80155 6.14174 5.5595C6.0703 5.31744 6.18784 5.05645 6.40428 4.97656ZM5.12669 6.45738C5.32855 6.57573 5.40641 6.85469 5.30059 7.08045C5.16777 7.36378 5.0953 7.67438 5.0953 8C5.0953 8.32562 5.16777 8.63622 5.30059 8.91955C5.40641 9.14531 5.32855 9.42427 5.12669 9.54262C4.92483 9.66097 4.67539 9.5739 4.56957 9.34814C4.37794 8.93934 4.26993 8.48237 4.26993 8C4.26993 7.51763 4.37794 7.06066 4.56957 6.65186C4.6754 6.4261 4.92483 6.33903 5.12669 6.45738ZM10.0162 6.45738C10.218 6.33903 10.4675 6.4261 10.5733 6.65186C10.7649 7.06066 10.8729 7.51763 10.8729 8C10.8729 8.48237 10.7649 8.93934 10.5733 9.34814C10.4675 9.5739 10.218 9.66097 10.0162 9.54262C9.8143 9.42427 9.73645 9.14531 9.84227 8.91955C9.97509 8.63622 10.0476 8.32562 10.0476 8C10.0476 7.67438 9.97509 7.36378 9.84227 7.08045C9.73645 6.85469 9.8143 6.57573 10.0162 6.45738ZM6.14174 10.4405C6.21317 10.1984 6.44654 10.067 6.66298 10.1469C6.94325 10.2503 7.24949 10.3077 7.57143 10.3077C7.89337 10.3077 8.19961 10.2503 8.47988 10.1469C8.69631 10.067 8.92968 10.1984 9.00112 10.4405C9.07256 10.6826 8.95501 10.9436 8.73858 11.0234C8.37467 11.1578 7.98108 11.2308 7.57143 11.2308C7.16178 11.2308 6.76819 11.1578 6.40428 11.0234C6.18784 10.9436 6.0703 10.6826 6.14174 10.4405Z" fill="black"/>
</svg>
