<svg width="16" height="16" viewBox="0 0 16 16" fill="none" xmlns="http://www.w3.org/2000/svg">
<path d="M7.99999 12.0002C7.91722 12.0002 7.83575 11.9796 7.76294 11.9402L1.26294 8.44024L1.73704 7.56024L7.99999 10.9324L14.2629 7.56024L14.737 8.44059L8.23704 11.9406C8.1642 11.9798 8.08273 12.0003 7.99999 12.0002Z" fill="black"/>
<path d="M7.99999 15.0002C7.91722 15.0002 7.83575 14.9796 7.76294 14.9402L1.26294 11.4402L1.73704 10.5602L7.99999 13.9324L14.2629 10.5602L14.737 11.4406L8.23704 14.9406C8.1642 14.9798 8.08273 15.0003 7.99999 15.0002Z" fill="black"/>
<path d="M7.99999 9.00024C7.91722 9.00023 7.83575 8.97961 7.76294 8.94024L1.26294 5.44024C1.18348 5.39742 1.11709 5.3339 1.07081 5.2564C1.02454 5.1789 1.0001 5.09032 1.0001 5.00006C1.0001 4.9098 1.02454 4.82122 1.07081 4.74372C1.11709 4.66623 1.18348 4.6027 1.26294 4.55989L7.76294 1.05989C7.83577 1.02058 7.91723 1 7.99999 1C8.08275 1 8.16421 1.02058 8.23704 1.05989L14.737 4.55989C14.8165 4.6027 14.8829 4.66623 14.9292 4.74372C14.9754 4.82122 14.9999 4.9098 14.9999 5.00006C14.9999 5.09032 14.9754 5.1789 14.9292 5.2564C14.8829 5.3339 14.8165 5.39742 14.737 5.44024L8.23704 8.94024C8.16423 8.97961 8.08276 9.00023 7.99999 9.00024ZM2.55469 5.00024L7.99999 7.93239L13.4453 5.00024L7.99999 2.06814L2.55469 5.00024Z" fill="black"/>
</svg>
