<svg width="16" height="16" viewBox="0 0 16 16" fill="none" xmlns="http://www.w3.org/2000/svg">
<path d="M6.65793 2.67194C6.71522 2.65635 6.77247 2.64078 6.8308 2.6281C6.9535 2.60145 7.07875 2.58265 7.2042 2.56435C7.22991 2.56063 7.25541 2.55633 7.28091 2.55203C7.32216 2.54507 7.36342 2.53811 7.4055 2.5336C7.60293 2.51183 7.80138 2.50067 8 2.50015C8.91347 2.50097 9.81224 2.73011 10.6146 3.16672C11.417 3.60333 12.0975 4.23358 12.5943 5.00015H10V5.76393C10.0414 5.80095 10.0818 5.83921 10.1213 5.87868C10.1608 5.9182 10.1991 5.95871 10.2362 6.00015H14V2.00015H13V3.8517C12.3164 3.02299 11.4371 2.37764 10.4416 1.97395C9.44608 1.57026 8.36566 1.42095 7.29795 1.5395C7.24863 1.5449 7.20033 1.55303 7.15201 1.56117C7.12151 1.56631 7.09101 1.57145 7.06025 1.5759C6.91185 1.5976 6.7636 1.6196 6.6186 1.6513C6.54738 1.66668 6.47771 1.68568 6.40793 1.70471L6.3409 1.72285C6.21455 1.7563 6.0887 1.79025 5.96555 1.831C5.87855 1.85954 5.79369 1.89199 5.70865 1.92451L5.6799 1.9355C5.5654 1.97945 5.4521 2.02515 5.3409 2.07515C5.2459 2.11785 5.1532 2.16305 5.0609 2.21015C4.95517 2.26422 4.85095 2.32102 4.74825 2.38055C4.6583 2.43305 4.5693 2.48605 4.48215 2.54245C4.3822 2.60715 4.2855 2.67555 4.18945 2.74555L4.1652 2.76318C4.09075 2.81727 4.01651 2.87121 3.9447 2.9289C3.84875 3.0056 3.75768 3.08742 3.66637 3.16946C3.64746 3.1864 3.62773 3.20385 3.60873 3.22066C3.55519 3.268 3.50163 3.31536 3.45065 3.36545C3.35576 3.45874 3.26704 3.5576 3.17807 3.65673L3.1689 3.66695C3.14855 3.68963 3.12731 3.71143 3.10609 3.73321C3.07752 3.76253 3.04898 3.79182 3.02265 3.8232L3.025 3.82515C2.03945 4.99298 1.4992 6.47203 1.5 8.00015H2.5C2.50057 6.64577 3.00341 5.33972 3.91125 4.33465L3.92347 4.32105C3.99747 4.23868 4.07145 4.15633 4.1505 4.0788C4.19338 4.03672 4.23837 3.99689 4.28338 3.95703C4.29998 3.94233 4.3166 3.92761 4.3331 3.9128C4.4103 3.84345 4.4873 3.77435 4.5681 3.70965C4.6266 3.66261 4.68728 3.61844 4.74808 3.57418L4.7766 3.5534C4.8573 3.49485 4.93875 3.4372 5.0227 3.38275C5.09695 3.33485 5.17275 3.2895 5.24925 3.24485C5.33542 3.19472 5.42312 3.14693 5.51235 3.1015C5.59085 3.0615 5.66995 3.02285 5.7505 2.9865C5.84375 2.9445 5.9392 2.90615 6.0355 2.86905L6.05054 2.8633C6.12597 2.83445 6.20142 2.8056 6.27845 2.77995C6.3823 2.74575 6.48865 2.71695 6.5952 2.68885L6.65793 2.67194Z" fill="black"/>
<path d="M3.78835 11.5342L3.02245 12.1768C2.53616 11.5956 2.15541 10.9337 1.89745 10.2212L2.8362 9.8795C3.05451 10.4825 3.37677 11.0425 3.78835 11.5342Z" fill="black"/>
<path d="M13.1636 9.8795L14.1023 10.2212C13.8444 10.9337 13.4637 11.5956 12.9776 12.1768L12.2118 11.5342C12.6233 11.0425 12.9453 10.4824 13.1636 9.8795Z" fill="black"/>
<path fill-rule="evenodd" clip-rule="evenodd" d="M10 8V9.5C10.2651 9.50034 10.5193 9.6058 10.7067 9.79324C10.8942 9.98071 10.9997 10.2349 11 10.5V13.5C10.9997 13.7651 10.8942 14.0193 10.7067 14.2067C10.5193 14.3942 10.2651 14.4997 10 14.5H6C5.73486 14.4997 5.48071 14.3942 5.29327 14.2067C5.10577 14.0193 5.00031 13.7651 5 13.5V10.5C5.00031 10.2349 5.10577 9.98071 5.29327 9.79324C5.48071 9.6058 5.73486 9.50034 6 9.5V8C6 7.46957 6.21069 6.96085 6.58582 6.58578C6.96088 6.21072 7.46954 6 8 6C8.53046 6 9.03912 6.21072 9.41418 6.58578C9.78931 6.96085 10 7.46957 10 8ZM7.29291 7.29291C7.10535 7.48044 7 7.73477 7 8V9.5H9V8C9 7.73477 8.89465 7.48044 8.70709 7.29291C8.51959 7.10535 8.2652 7 8 7C7.7348 7 7.48041 7.10535 7.29291 7.29291Z" fill="black"/>
</svg>
