<svg width="16" height="16" viewBox="0 0 16 16" fill="none" xmlns="http://www.w3.org/2000/svg">
<path d="M14 4H15V2C14.9997 1.73487 14.8943 1.48068 14.7068 1.2932C14.5193 1.10572 14.2651 1.00028 14 1H12V2H14V4Z" fill="black"/>
<path d="M10.5 1H8.5V2H10.5V1Z" fill="black"/>
<path d="M15 5.5H14V7.5H15V5.5Z" fill="black"/>
<path d="M14 9V11H12V5C11.9997 4.73488 11.8942 4.4807 11.7068 4.29323C11.5193 4.10576 11.2651 4.0003 11 4H5V2H7V1H5C4.73488 1.0003 4.4807 1.10576 4.29323 1.29323C4.10576 1.4807 4.0003 1.73488 4 2V4H2C1.73488 4.0003 1.4807 4.10576 1.29323 4.29323C1.10576 4.4807 1.0003 4.73488 1 5V14C1.0003 14.2651 1.10576 14.5193 1.29323 14.7068C1.4807 14.8942 1.73488 14.9997 2 15H11C11.2651 14.9997 11.5193 14.8942 11.7068 14.7068C11.8942 14.5193 11.9997 14.2651 12 14V12H14C14.2651 11.9997 14.5193 11.8942 14.7068 11.7068C14.8942 11.5193 14.9997 11.2651 15 11V9H14ZM11 14H2V5H11V14Z" fill="black"/>
</svg>
