<svg width="16" height="16" viewBox="0 0 16 16" fill="none" xmlns="http://www.w3.org/2000/svg">
<path d="M8.95499 13.4102L9.12999 14.4102C9.8764 14.28 10.594 14.0194 11.25 13.6402L10.75 12.7752C10.1936 13.0907 9.586 13.3057 8.95499 13.4102Z" fill="black"/>
<path d="M12.21 11.5352L13 12.1752C13.4843 11.5937 13.8633 10.9321 14.12 10.2202L13.185 9.8802C12.9596 10.4848 12.6296 11.045 12.21 11.5352Z" fill="black"/>
<path d="M4.74999 13.6252C5.40595 14.0044 6.12359 14.265 6.86999 14.3952L7.04499 13.3952C6.41302 13.286 5.80533 13.066 5.24999 12.7452L4.74999 13.6252Z" fill="black"/>
<path d="M2.83499 9.8802L1.89999 10.2202C2.15059 10.9307 2.5228 11.5922 2.99999 12.1752L3.15999 12.0452L3.76999 11.5452C3.35754 11.0535 3.03433 10.4934 2.81499 9.8902L2.83499 9.8802Z" fill="black"/>
<path d="M14.5 8.0002C14.4986 7.2424 14.3632 6.49082 14.1 5.7802L13.165 6.1202C13.3837 6.72302 13.497 7.35896 13.5 8.0002H14.5Z" fill="black"/>
<path d="M13 3.8252C12.39 3.09089 11.6258 2.49995 10.7616 2.09436C9.89749 1.68878 8.9546 1.47852 7.99999 1.47852C7.04539 1.47852 6.1025 1.68878 5.23834 2.09436C4.37418 2.49995 3.60996 3.09089 2.99999 3.8252V2.0002H1.99999V6.0002H5.99999V5.0002H3.40499C3.87427 4.28329 4.50456 3.68594 5.2456 3.25578C5.98664 2.82561 6.81794 2.57454 7.6732 2.52257C8.52847 2.47061 9.38405 2.61918 10.1717 2.95646C10.9594 3.29374 11.6574 3.81038 12.21 4.4652L13 3.8252Z" fill="black"/>
</svg>
