<svg width="16" height="16" viewBox="0 0 16 16" fill="none" xmlns="http://www.w3.org/2000/svg">
<g clip-path="url(#clip0_2372_4033)">
<path d="M4 13H2C1.73487 12.9997 1.48068 12.8943 1.2932 12.7068C1.10572 12.5193 1.00028 12.2651 1 12V10H2V12H4V13Z" fill="black"/>
<path d="M2 6H1V8H2V6Z" fill="black"/>
<path d="M13 4H12V2H10V1H12C12.2651 1.00028 12.5193 1.10572 12.7068 1.2932C12.8943 1.48068 12.9997 1.73487 13 2V4Z" fill="black"/>
<path d="M8 1H6V2H8V1Z" fill="black"/>
<path d="M2 4H1V2C1.00028 1.73487 1.10572 1.48068 1.2932 1.2932C1.48068 1.10572 1.73487 1.00028 2 1H4V2H2V4Z" fill="black"/>
<path d="M13.5 16C13.4343 16.0001 13.3693 15.9872 13.3086 15.962C13.248 15.9369 13.1929 15.9 13.1465 15.8535L10.0777 12.7846L8.416 15.2773C8.36336 15.3563 8.28934 15.4187 8.20257 15.4571C8.11581 15.4956 8.01989 15.5086 7.92603 15.4945C7.83217 15.4805 7.74424 15.44 7.67252 15.3779C7.6008 15.3157 7.54824 15.2345 7.521 15.1435L4.521 5.14355C4.49507 5.05708 4.49303 4.9652 4.51511 4.87767C4.53718 4.79013 4.58254 4.71021 4.64638 4.64638C4.71021 4.58254 4.79013 4.53718 4.87767 4.51511C4.9652 4.49303 5.05708 4.49507 5.14355 4.521L15.1435 7.521C15.2345 7.54824 15.3157 7.6008 15.3779 7.67252C15.44 7.74424 15.4805 7.83217 15.4945 7.92603C15.5086 8.01989 15.4956 8.11581 15.4571 8.20257C15.4187 8.28934 15.3563 8.36336 15.2773 8.416L12.7846 10.0777L15.8535 13.1465C15.8999 13.1929 15.9368 13.248 15.9619 13.3087C15.9871 13.3693 16 13.4343 16 13.5C16 13.5657 15.9871 13.6307 15.9619 13.6913C15.9368 13.752 15.8999 13.8071 15.8535 13.8535L13.8535 15.8535C13.8071 15.9 13.752 15.9369 13.6914 15.962C13.6307 15.9872 13.5657 16.0001 13.5 16ZM13.5 14.7929L14.7929 13.5L11.2155 9.9225L13.8384 8.1736L5.74585 5.74585L8.1736 13.8384L9.9225 11.2155L13.5 14.7929Z" fill="black"/>
</g>
<defs>
<clipPath id="clip0_2372_4033">
<rect width="16" height="16" fill="white"/>
</clipPath>
</defs>
</svg>
