<svg width="16" height="16" viewBox="0 0 16 16" fill="none" xmlns="http://www.w3.org/2000/svg">
<path d="M13.4958 2C13.6047 1.99438 13.7124 2.02463 13.8025 2.08594C13.8926 2.14726 13.9601 2.23651 13.9949 2.33984L14.9949 5.33984C15.0021 5.39287 15.002 5.44697 14.9949 5.5V6H13.9949V5.58008L13.1355 3H2.86401L2.00464 5.58008V8H4.00269V6H5.00171V8H6.00171V9H3.00366V14H2.00464V9H1.50464C1.3722 8.99995 1.24478 8.94724 1.15112 8.85352C1.05761 8.75978 1.00562 8.63247 1.00562 8.5V5.5C0.998428 5.44694 0.998421 5.39291 1.00562 5.33984L2.00464 2.33984C2.03943 2.23649 2.1069 2.14727 2.19702 2.08594C2.28713 2.02462 2.39485 1.9944 2.50366 2H13.4958ZM11.5027 6V7.0459C11.9476 7.12083 12.3697 7.29549 12.7371 7.55762L13.4763 6.81836L14.1824 7.52539L13.4441 8.26465C13.7059 8.6322 13.8809 9.05487 13.9558 9.5H14.9998V10.5H13.9558C13.8809 10.9453 13.7061 11.3686 13.4441 11.7363L14.1824 12.4756L13.4763 13.1826L12.7371 12.4434C12.3697 12.7055 11.9476 12.8802 11.5027 12.9551V14H10.5037V12.9551C10.0586 12.8802 9.63573 12.7056 9.26831 12.4434L8.53003 13.1826L7.823 12.4756L8.56226 11.7354C8.30043 11.3677 8.12544 10.9452 8.05054 10.5H7.00562V9.5H8.05054C8.12552 9.05485 8.30039 8.63222 8.56226 8.26465L7.823 7.52539L8.53003 6.81836L9.26831 7.55762C9.6357 7.29546 10.0587 7.12079 10.5037 7.0459V6H11.5027ZM11.7673 8.15234C11.4023 8.00111 11.0006 7.96192 10.613 8.03906C10.2254 8.11623 9.86908 8.30627 9.5896 8.58594C9.31011 8.86564 9.11984 9.22239 9.04272 9.61035C8.96564 9.99828 9.00574 10.4002 9.15698 10.7656C9.30819 11.131 9.56385 11.4433 9.89233 11.6631C10.2209 11.8828 10.6075 12 11.0027 12C11.5325 11.9994 12.0411 11.789 12.4158 11.4141C12.7903 11.0391 13.0011 10.5302 13.0017 10C13.0016 9.60473 12.8842 9.21835 12.6648 8.88965C12.4452 8.56075 12.1325 8.30372 11.7673 8.15234Z" fill="black"/>
</svg>
