<svg width="16" height="16" viewBox="0 0 16 16" fill="none" xmlns="http://www.w3.org/2000/svg">
<path d="M15.5 9L12.5 6L11.793 6.707L13.586 8.5H8.5V9.5H13.586L11.793 11.293L12.5 12L15.5 9Z" fill="black"/>
<path d="M5 7C4.60444 7 4.21776 6.8827 3.88886 6.66294C3.55996 6.44318 3.30362 6.13082 3.15224 5.76537C3.00087 5.39991 2.96126 4.99778 3.03843 4.60982C3.1156 4.22186 3.30608 3.86549 3.58579 3.58579C3.86549 3.30608 4.22186 3.1156 4.60982 3.03843C4.99778 2.96126 5.39991 3.00087 5.76537 3.15224C6.13082 3.30362 6.44318 3.55996 6.66294 3.88886C6.8827 4.21776 7 4.60444 7 5C6.9994 5.53025 6.7885 6.03861 6.41356 6.41356C6.03861 6.7885 5.53025 6.9994 5 7ZM5 4C4.80227 3.9998 4.60892 4.05823 4.44439 4.16789C4.27985 4.27756 4.15153 4.43354 4.07562 4.61612C3.99972 4.7987 3.97964 4.99968 4.01794 5.19367C4.05623 5.38766 4.15117 5.56594 4.29077 5.70597C4.43036 5.84601 4.60833 5.94153 4.8022 5.98044C4.99606 6.01936 5.19711 5.99993 5.37993 5.9246C5.56275 5.84928 5.71914 5.72145 5.82933 5.55727C5.93952 5.39309 5.99857 5.19993 5.999 5.0022C5.99932 4.73686 5.89427 4.48224 5.70695 4.29432C5.51962 4.10639 5.26534 4.00053 5 4Z" fill="black"/>
<path d="M10.5296 12.5L9.02895 14L2 6.9707V2H6.97085L10.4708 5.5L11.178 4.793L7.6775 1.293C7.49006 1.1055 7.23583 1.00011 6.9707 1H2C1.73478 1 1.48043 1.10536 1.29289 1.29289C1.10536 1.48043 1 1.73478 1 2V6.9707C1 7.23589 1.10534 7.49022 1.29285 7.67775L8.3218 14.7073C8.50941 14.8947 8.76375 15 9.02895 15C9.29415 15 9.5485 14.8947 9.7361 14.7073L11.2368 13.2073L10.5296 12.5Z" fill="black"/>
</svg>
