<svg width="16" height="16" viewBox="0 0 16 16" fill="none" xmlns="http://www.w3.org/2000/svg">
<path fill-rule="evenodd" clip-rule="evenodd" d="M6.3575 13.19C6.3575 13.6363 6.7175 14 7.16375 14H8.89625C9.3425 14 9.7025 13.6363 9.7025 13.19V5.70875C9.7025 5.33375 10.1712 5.30375 10.5875 5.30375H12.8188C13.6138 5.30375 13.625 4.53125 13.625 4.085V2.81C13.625 2.36375 13.265 2 12.8188 2H3.18125C2.735 2 2.375 2.36375 2.375 2.81V4.085C2.375 4.53125 2.375 5.30375 3.18125 5.30375H5.37125C5.81 5.30375 6.35375 5.3225 6.35375 5.70875V13.19H6.3575Z" fill="black"/>
</svg>
