<svg width="16" height="16" viewBox="0 0 16 16" fill="none" xmlns="http://www.w3.org/2000/svg">
<path fill-rule="evenodd" clip-rule="evenodd" d="M8 13.1429C10.8403 13.1429 13.1429 10.8403 13.1429 8C13.1429 5.15968 10.8403 2.85714 8 2.85714C5.15968 2.85714 2.85714 5.15968 2.85714 8C2.85714 10.8403 5.15968 13.1429 8 13.1429ZM8 14C11.3137 14 14 11.3137 14 8C14 4.68629 11.3137 2 8 2C4.68629 2 2 4.68629 2 8C2 11.3137 4.68629 14 8 14Z" fill="black"/>
<path d="M7.14286 5.42857H8.85714V11.4286H7.14286V5.42857Z" fill="black"/>
<path d="M4.57143 7.14286V5.42857L11.4286 5.42857V7.14286L4.57143 7.14286Z" fill="black"/>
</svg>
