<svg width="16" height="16" viewBox="0 0 16 16" fill="none" xmlns="http://www.w3.org/2000/svg">
<path d="M13 8C12.9633 7.0683 13.1094 6.63651 13.7496 6.61127C14.3897 6.58603 14.9291 7.0845 14.9543 7.72463C14.9882 8.58326 14.4811 8.90413 13.841 8.92937C13.2008 8.95461 13.0252 8.64013 13 8Z" fill="#D9D9D9"/>
<path d="M1.0457 8.27305C1.02046 7.63292 1.35987 7.02524 2 7C2.39266 6.98452 3.33857 7.54153 3.3638 8.18166C3.38904 8.82178 3.14013 9.47476 2.5 9.5C1.85987 9.52524 1.07094 8.91317 1.0457 8.27305Z" fill="#D9D9D9"/>
<path d="M7.06944 13.8404C7.04421 13.2003 7.27192 12.8124 7.91204 12.7871C8.28299 12.7725 9.36231 13.1089 9.38755 13.749C9.41278 14.3892 9.38755 14.9538 8.27419 14.9538C7.63406 14.979 7.09468 14.4806 7.06944 13.8404Z" fill="#D9D9D9"/>
<path d="M6.61249 2.25059C6.58725 1.61046 7.08572 1.07108 7.72584 1.04584C8.36597 1.0206 8.90535 1.51907 8.93059 2.1592C8.95583 2.79932 8.45736 3.3387 7.81723 3.36394C7.17711 3.38918 6.63773 2.89071 6.61249 2.25059Z" fill="#2D2D2D"/>
<path d="M3.21183 11.4709C3.5 11.1591 4.3805 10.9715 4.85098 11.4063C5.32146 11.8411 5.43479 12.3167 5 12.7871C4.56521 13.2576 3.5 13.5 3.27645 13.1101C2.80597 12.6753 2.77704 11.9414 3.21183 11.4709Z" fill="#D9D9D9"/>
<path d="M11.0845 2.95336C11.5193 2.48288 12.0295 2.56521 12.5 3C12.9705 3.43479 13.223 4.0574 12.7882 4.52789C12.3534 4.99837 11.6196 5.0273 11.1491 4.59251C10.6786 4.15772 10.6497 3.42384 11.0845 2.95336Z" fill="#D9D9D9"/>
<path d="M4.52787 3.21131C4.99836 3.6461 4.43479 4.52952 4 5C3.56521 5.47048 3.42383 5.34987 2.95335 4.91508C2.48287 4.48028 2.45394 3.74641 2.88873 3.27593C3 3 4.05739 2.77652 4.52787 3.21131Z" fill="#D9D9D9"/>
<path d="M13.0467 11.0834C13.5172 11.5182 13.5461 12.252 13.1113 12.7225C12.565 12.7871 11.9427 13.2219 11.4722 12.7871C11.0017 12.3524 11.3128 11.5539 11.7476 11.0834C12.1823 10.6129 12.5762 10.6486 13.0467 11.0834Z" fill="#D9D9D9"/>
</svg>
