<svg width="16" height="16" viewBox="0 0 16 16" fill="none" xmlns="http://www.w3.org/2000/svg">
<path d="M11.5784 2.85957C11.4155 2.63321 11.1599 2.5 10.8885 2.5H5.28298C5.01155 2.5 4.75595 2.63322 4.59309 2.85957L2.05174 6.39161C1.97867 6.49318 1.98344 6.63411 2.06321 6.73005L7.43404 13.1898C7.77791 13.6034 8.39354 13.6034 8.73741 13.1898L13.7893 7.11365C14.0552 6.79386 14.0711 6.32407 13.8275 5.98552L11.5784 2.85957ZM12.5184 5.66428C12.6463 5.84207 12.5246 6.09577 12.3114 6.09577H10.6241C10.5349 6.09577 10.452 6.04787 10.4047 5.96902L9.11111 3.81156C9.00342 3.63194 9.1273 3.39894 9.3305 3.39894H10.7591C10.8405 3.39894 10.9172 3.43891 10.9661 3.50682L12.5184 5.66428ZM5.4482 6.99472C5.55671 6.99472 5.6537 7.06531 5.69108 7.1715L6.76094 10.2109C6.85997 10.4923 6.51084 10.7069 6.32255 10.4804L3.79561 7.44102C3.65042 7.26638 3.76943 6.99472 3.99112 6.99472H5.4482ZM6.67491 7.3573C6.61295 7.18129 6.73793 6.99472 6.91779 6.99472H9.25363C9.4335 6.99472 9.55848 7.18133 9.49649 7.35735L8.32823 10.6744C8.24522 10.91 7.92545 10.91 7.84248 10.6743L6.67491 7.3573ZM7.17465 6.09577C6.97146 6.09577 6.84757 5.8628 6.95525 5.68317L7.86634 4.16344C7.96766 3.99442 8.20379 3.99442 8.30512 4.16343L9.21629 5.68316C9.32399 5.86279 9.2001 6.09577 8.9969 6.09577H7.17465ZM10.4804 7.17148C10.5178 7.0653 10.6148 6.99472 10.7233 6.99472H12.1803C12.402 6.99472 12.521 7.26639 12.3758 7.44103L9.84846 10.4808C9.66016 10.7073 9.31102 10.4926 9.41008 10.2113L10.4804 7.17148ZM5.20538 3.50682C5.25423 3.43891 5.33091 3.39894 5.41235 3.39894H6.84094C7.04415 3.39894 7.16803 3.63194 7.06033 3.81156L5.76676 5.96902C5.71949 6.04787 5.63658 6.09577 5.54737 6.09577H3.86006C3.64687 6.09577 3.52518 5.84207 3.65309 5.66428L5.20538 3.50682Z" fill="black"/>
</svg>
