<svg width="16" height="16" viewBox="0 0 16 16" fill="none" xmlns="http://www.w3.org/2000/svg">
<path d="M11.9999 8V11H14.9999V12H11.9999V15H10.9999V12H7.99987V11H10.9999V8H11.9999Z" fill="black"/>
<path fill-rule="evenodd" clip-rule="evenodd" d="M10.8885 2C11.1597 2.0002 11.4152 2.1333 11.578 2.35938L13.827 5.48535C14.0704 5.82378 14.0546 6.29354 13.7889 6.61328L13.1766 7.34863C13.1168 7.42052 13 7.37862 12.9999 7.28516V6.5H12.2128C12.2022 6.49866 12.1916 6.49519 12.1805 6.49512H10.7235C10.7134 6.49512 10.7031 6.49875 10.6932 6.5C10.3103 6.5 9.99987 6.81043 9.99987 7.19336V8.03516L9.58581 9.21094C9.52465 9.38416 9.36036 9.5 9.17663 9.5C8.87805 9.49969 8.6693 9.20457 8.76842 8.92285L9.49596 6.85742C9.55781 6.68165 9.43326 6.49558 9.25378 6.49512H6.91784C6.73798 6.49512 6.61272 6.68141 6.67467 6.85742L7.60534 9.5C7.27095 9.5 6.99987 9.77108 6.99987 10.1055V12.167L2.06335 6.23047C1.98358 6.13453 1.97855 5.99316 2.05163 5.8916L4.59264 2.35938C4.75551 2.13312 5.0117 2 5.28307 2H10.8885ZM3.99108 6.49512C3.76938 6.49512 3.65058 6.76677 3.79577 6.94141L6.32214 9.98047C6.51043 10.2067 6.85953 9.99219 6.76061 9.71094L5.69128 6.67188C5.65395 6.56582 5.55645 6.49531 5.44811 6.49512H3.99108ZM5.41198 2.89941C5.33064 2.89945 5.25379 2.93903 5.20495 3.00684L3.65319 5.16406C3.52528 5.34185 3.64703 5.5957 3.86022 5.5957H5.54674C5.63585 5.59561 5.71924 5.54752 5.76647 5.46875L7.06042 3.31152C7.16776 3.13202 7.04362 2.89962 6.84069 2.89941H5.41198ZM8.30456 3.66309C8.20317 3.49459 7.96745 3.49458 7.86608 3.66309L6.95495 5.18359C6.84761 5.36317 6.9716 5.5957 7.17467 5.5957H8.99694C9.1997 5.59528 9.32299 5.36301 9.21569 5.18359L8.30456 3.66309ZM9.32995 2.89941C9.12692 2.89964 9.00355 3.13199 9.1112 3.31152L10.4042 5.46875C10.4515 5.54753 10.5347 5.5957 10.6239 5.5957H12.3114C12.5242 5.59528 12.6461 5.34169 12.5184 5.16406L10.9657 3.00684C10.9169 2.93903 10.84 2.8995 10.7587 2.89941H9.32995Z" fill="black"/>
</svg>
