<svg width="16" height="16" viewBox="0 0 16 16" fill="none" xmlns="http://www.w3.org/2000/svg">
<path d="M8 12C7.20887 12 6.43552 11.7654 5.77772 11.3259C5.11992 10.8864 4.60723 10.2616 4.30448 9.53073C4.00173 8.79983 3.92252 7.99556 4.07686 7.21964C4.2312 6.44372 4.61216 5.73098 5.17157 5.17157C5.73098 4.61216 6.44372 4.2312 7.21964 4.07686C7.99556 3.92252 8.79983 4.00173 9.53073 4.30448C10.2616 4.60723 10.8864 5.11992 11.3259 5.77772C11.7654 6.43552 12 7.20887 12 8C11.9988 9.06049 11.577 10.0772 10.8271 10.8271C10.0772 11.577 9.06049 11.9988 8 12ZM8 5C7.40666 5 6.82664 5.17595 6.33329 5.50559C5.83994 5.83524 5.45542 6.30377 5.22836 6.85195C5.0013 7.40013 4.94189 8.00333 5.05764 8.58527C5.1734 9.16721 5.45912 9.70176 5.87868 10.1213C6.29824 10.5409 6.83279 10.8266 7.41473 10.9424C7.99667 11.0581 8.59987 10.9987 9.14805 10.7716C9.69623 10.5446 10.1648 10.1601 10.4944 9.66671C10.8241 9.17336 11 8.59334 11 8C10.9991 7.20462 10.6828 6.44208 10.1203 5.87966C9.55792 5.31724 8.79538 5.00089 8 5Z" fill="black"/>
<path d="M15 7H13.9096C13.7004 5.774 13.1157 4.6432 12.2362 3.76375C11.3568 2.8843 10.226 2.29959 9 2.09035V1H7V2.09035C5.774 2.29959 4.6432 2.8843 3.76375 3.76375C2.8843 4.6432 2.29959 5.774 2.09035 7H1V9H2.09035C2.29959 10.226 2.8843 11.3568 3.76375 12.2362C4.6432 13.1157 5.774 13.7004 7 13.9096V15H9V13.9096C10.226 13.7004 11.3568 13.1157 12.2362 12.2362C13.1157 11.3568 13.7004 10.226 13.9096 9H15V7ZM8 13C7.01109 13 6.04439 12.7068 5.22215 12.1573C4.3999 11.6079 3.75904 10.827 3.3806 9.91342C3.00216 8.99979 2.90315 7.99445 3.09607 7.02455C3.289 6.05464 3.7652 5.16373 4.46447 4.46447C5.16373 3.7652 6.05464 3.289 7.02455 3.09607C7.99445 2.90315 8.99979 3.00216 9.91342 3.3806C10.827 3.75904 11.6079 4.3999 12.1573 5.22215C12.7068 6.04439 13 7.01109 13 8C12.9985 9.32562 12.4712 10.5965 11.5339 11.5339C10.5965 12.4712 9.32562 12.9985 8 13Z" fill="black"/>
</svg>
