<svg width="16" height="16" viewBox="0 0 16 16" fill="none" xmlns="http://www.w3.org/2000/svg">
<path d="M2.5 2C2.22386 2 2 2.22386 2 2.5V13.5C2 13.7761 2.22386 14 2.5 14H9V13H3V3H13V5H14V2.5C14 2.22386 13.7761 2 13.5 2H2.5Z" fill="black"/>
<path d="M6.35355 4.35355L4.35355 6.35355L3.64645 5.64645L5.64645 3.64645L6.35355 4.35355Z" fill="black"/>
<path d="M4.35355 9.35355L9.35355 4.35355L8.64645 3.64645L3.64645 8.64645L4.35355 9.35355Z" fill="black"/>
<path fill-rule="evenodd" clip-rule="evenodd" d="M11.039 14.532C11.4648 14.8378 11.9762 15.0015 12.5004 15C13.0246 15.0015 13.536 14.8378 13.9618 14.532C14.3876 14.2263 14.7062 13.7941 14.8723 13.2968C15.0384 12.7996 15.0436 12.2627 14.887 11.7624C14.7305 11.2621 14.4203 10.8239 14.0004 10.51V7.5C14.0004 7.10218 13.8424 6.72064 13.561 6.43934C13.2797 6.15804 12.8982 6 12.5004 6C12.1026 6 11.721 6.15804 11.4397 6.43934C11.1584 6.72064 11.0004 7.10218 11.0004 7.5V10.51C10.5805 10.8239 10.2703 11.2621 10.1137 11.7624C9.95721 12.2627 9.96236 12.7996 10.1285 13.2968C10.2946 13.7941 10.6132 14.2263 11.039 14.532ZM12.147 7.14661C12.2407 7.05287 12.3678 7.00015 12.5004 7C12.6329 7.00015 12.76 7.05287 12.8538 7.14661C12.9475 7.24034 13.0002 7.36744 13.0004 7.5V11.065L13.2489 11.2094C13.4771 11.3389 13.6668 11.5266 13.7989 11.7533C13.9309 11.98 14.0004 12.2377 14.0004 12.5C14.0004 12.8978 13.8424 13.2794 13.561 13.5607C13.2797 13.842 12.8982 14 12.5004 14C12.1026 14 11.721 13.842 11.4397 13.5607C11.1584 13.2794 11.0004 12.8978 11.0004 12.5C11.0004 12.2377 11.07 11.9801 11.202 11.7534C11.334 11.5267 11.5237 11.3391 11.7518 11.2097L12.0004 11.065V7.5C12.0005 7.36744 12.0533 7.24034 12.147 7.14661Z" fill="black"/>
</svg>
