<svg width="16" height="16" viewBox="0 0 16 16" fill="none" xmlns="http://www.w3.org/2000/svg">
<g clip-path="url(#clip0_2351_4932)">
<path d="M4.63176 13.2106L4.84712 12.7594L4.84712 12.7594L4.63176 13.2106ZM5.0222 13.397L4.80684 13.8482L4.80684 13.8482L5.0222 13.397ZM10.9778 13.397L11.1932 13.8482L11.1932 13.8482L10.9778 13.397ZM11.3682 13.2106L11.1529 12.7594L11.1529 12.7594L11.3682 13.2106ZM7.5 14C7.5 14.2761 7.72386 14.5 8 14.5C8.27614 14.5 8.5 14.2761 8.5 14H8H7.5ZM10.8571 2V1.5H5.14286V2V2.5H10.8571V2ZM4 3.09091H3.5V12.2349H4H4.5V3.09091H4ZM4.63176 13.2106L4.41639 13.6618L4.80684 13.8482L5.0222 13.397L5.23757 12.9457L4.84712 12.7594L4.63176 13.2106ZM10.9778 13.397L11.1932 13.8482L11.5836 13.6618L11.3682 13.2106L11.1529 12.7594L10.7624 12.9457L10.9778 13.397ZM12 12.2349H12.5V3.09091H12H11.5V12.2349H12ZM7 10.7273V11.2273H8V10.7273V10.2273H7V10.7273ZM8 10.7273V11.2273H9V10.7273V10.2273H8V10.7273ZM8 10.7273H7.5V14H8H8.5V10.7273H8ZM11.3682 13.2106L11.5836 13.6619C12.1362 13.3981 12.5 12.85 12.5 12.2349H12H11.5C11.5 12.4461 11.3747 12.6535 11.1529 12.7594L11.3682 13.2106ZM9.71429 12.6516H9.21429C9.21429 13.6756 10.3147 14.2675 11.1932 13.8482L10.9778 13.397L10.7624 12.9457C10.4799 13.0806 10.2143 12.8666 10.2143 12.6516H9.71429ZM9.71429 12.6516H10.2143C10.2143 12.3708 10.1486 11.8444 10.0195 11.3823C9.95524 11.1521 9.8658 10.9027 9.73996 10.6997C9.62964 10.5218 9.3946 10.2273 9 10.2273V10.7273V11.2273C8.8465 11.2273 8.82128 11.1157 8.89009 11.2267C8.94339 11.3127 9.00238 11.458 9.05639 11.6513C9.16392 12.0363 9.21429 12.472 9.21429 12.6516H9.71429ZM6.28571 12.6516H6.78571C6.78571 12.472 6.83608 12.0363 6.94361 11.6513C6.99762 11.458 7.05662 11.3127 7.10991 11.2267C7.17872 11.1157 7.1535 11.2273 7 11.2273V10.7273V10.2273C6.6054 10.2273 6.37036 10.5218 6.26004 10.6997C6.1342 10.9027 6.04476 11.1521 5.98047 11.3823C5.8514 11.8444 5.78571 12.3708 5.78571 12.6516H6.28571ZM5.0222 13.397L4.80684 13.8482C5.68531 14.2675 6.78571 13.6756 6.78571 12.6516H6.28571H5.78571C5.78571 12.8666 5.5201 13.0806 5.23757 12.9457L5.0222 13.397ZM4 12.2349H3.5C3.5 12.85 3.86381 13.3981 4.41639 13.6619L4.63176 13.2106L4.84712 12.7594C4.62534 12.6535 4.5 12.4461 4.5 12.2349H4ZM5.14286 2V1.5C4.25771 1.5 3.5 2.19061 3.5 3.09091H4H4.5C4.5 2.78622 4.76564 2.5 5.14286 2.5V2ZM10.8571 2V2.5C11.2344 2.5 11.5 2.78622 11.5 3.09091H12H12.5C12.5 2.19061 11.7423 1.5 10.8571 1.5V2ZM7.42857 4.18182V4.68182H8.57143V4.18182V3.68182H7.42857V4.18182ZM9.71429 5.27273H9.21429V6.36364H9.71429H10.2143V5.27273H9.71429ZM8.57143 7.45455V6.95455H7.42857V7.45455V7.95455H8.57143V7.45455ZM6.28571 6.36364H6.78571V5.27273H6.28571H5.78571V6.36364H6.28571ZM7.42857 7.45455V6.95455C7.05136 6.95455 6.78571 6.66832 6.78571 6.36364H6.28571H5.78571C5.78571 7.26394 6.54342 7.95455 7.42857 7.95455V7.45455ZM9.71429 6.36364H9.21429C9.21429 6.66832 8.94864 6.95455 8.57143 6.95455V7.45455V7.95455C9.45658 7.95455 10.2143 7.26394 10.2143 6.36364H9.71429ZM8.57143 4.18182V4.68182C8.94864 4.68182 9.21429 4.96804 9.21429 5.27273H9.71429H10.2143C10.2143 4.37243 9.45658 3.68182 8.57143 3.68182V4.18182ZM7.42857 4.18182V3.68182C6.54342 3.68182 5.78571 4.37243 5.78571 5.27273H6.28571H6.78571C6.78571 4.96804 7.05136 4.68182 7.42857 4.68182V4.18182Z" fill="black"/>
</g>
<defs>
<clipPath id="clip0_2351_4932">
<rect width="16" height="16" fill="white"/>
</clipPath>
</defs>
</svg>
