<svg width="16" height="16" viewBox="0 0 16 16" fill="none" xmlns="http://www.w3.org/2000/svg">
<path d="M8 4C8.84472 4 9.66775 4.26742 10.3511 4.76393C11.0345 5.26044 11.5432 5.96056 11.8042 6.76393C11.9764 7.29406 12.037 7.85733 11.9781 8.41779C11.9204 8.9664 11.7503 9.49389 11.4818 9.96871C11.1925 10.4801 10.7958 10.9187 10.3224 11.2563C9.6346 11.7467 8.80919 12.0068 7.96451 11.9993C7.11983 11.9918 6.2992 11.7171 5.62024 11.2145L5.0253 12.0183C5.61565 12.4553 6.29168 12.7544 7.00392 12.8992C8.03865 13.1096 9.11341 12.987 10.0742 12.549C10.7016 12.263 11.2594 11.852 11.7156 11.3453C12.4222 10.5606 12.8622 9.57243 12.9726 8.52232C13.083 7.47221 12.8581 6.41411 12.3301 5.49968C11.9817 4.89628 11.5089 4.36899 10.9389 3.95492C10.0847 3.33427 9.0559 3 8 3V4Z" fill="#969696"/>
<path fill-rule="evenodd" clip-rule="evenodd" d="M8.0282 11.0001C9.68506 11.0001 11.0282 9.65697 11.0282 8.00012C11.0282 6.34326 9.68506 5.00012 8.0282 5.00012C6.37135 5.00012 5.0282 6.34326 5.0282 8.00012C5.0282 9.65697 6.37135 11.0001 8.0282 11.0001ZM8.0282 10.0001C9.13277 10.0001 10.0282 9.10468 10.0282 8.00012C10.0282 6.89555 9.13277 6.00012 8.0282 6.00012C6.92363 6.00012 6.0282 6.89555 6.0282 8.00012C6.0282 9.10468 6.92363 10.0001 8.0282 10.0001Z" fill="black"/>
<path fill-rule="evenodd" clip-rule="evenodd" d="M1.0282 15H2.0282V11.6076C3.2531 13.6404 5.48187 15 8.0282 15C11.681 15 14.6803 12.2022 15 8.6326V7.3674C14.6803 3.79783 11.681 1 8.0282 1C4.1622 1 1.0282 4.13401 1.0282 8V15ZM8.0282 14C11.3419 14 14.0282 11.3137 14.0282 8C14.0282 4.68629 11.3419 2 8.0282 2C4.71449 2 2.0282 4.68629 2.0282 8C2.0282 11.3137 4.71449 14 8.0282 14Z" fill="black"/>
</svg>
