<svg width="16" height="16" viewBox="0 0 16 16" fill="none" xmlns="http://www.w3.org/2000/svg">
<path fill-rule="evenodd" clip-rule="evenodd" d="M6.48587 2.5L6.47154 2.50002C6.40063 2.50024 6.33011 2.50211 6.26008 2.50559C5.30686 2.55289 4.43313 2.89841 3.73057 3.45057L5.21955 4.93103L5.22271 4.92787L9.97607 9.65404C10.5668 8.91147 10.9218 7.97704 10.9315 6.96029L10.9317 6.91756C10.9317 6.1733 10.7469 5.47333 10.4207 4.85906L10.2708 4.57693L10.4639 4.3224C10.6605 4.06312 10.9219 3.78568 11.2654 3.53487C11.4477 3.40183 11.6305 3.29273 11.8086 3.20321C11.4368 3.10784 11.0106 3.04127 10.5396 3.03838C10.0167 3.03518 9.56095 3.11122 9.19285 3.20643L8.98802 3.25941L8.80737 3.14927C8.19295 2.77466 7.48003 2.54431 6.71522 2.50576C6.6393 2.50194 6.56284 2.5 6.48587 2.5ZM12.7742 2.86727L12.7723 2.86768L12.7742 2.86727ZM4.52134 5.647L2.28972 3.42814L2.6486 3.07358C3.57188 2.16143 4.823 1.57567 6.21051 1.50682C6.29598 1.50258 6.38194 1.5003 6.46834 1.50003L6.48587 1.5C6.57963 1.5 6.67288 1.50236 6.76555 1.50703C7.62649 1.55042 8.43543 1.79292 9.1459 2.18923C9.54374 2.10024 10.0155 2.03515 10.5457 2.0384C11.6338 2.04508 12.5174 2.33637 13.115 2.60729C13.6911 2.86849 13.6007 3.71658 12.9781 3.84626C12.6659 3.9113 12.2578 4.04855 11.855 4.34255C11.7 4.45575 11.5675 4.57628 11.4545 4.69685C11.7612 5.37494 11.9317 6.12696 11.9317 6.91756L11.9315 6.9698C11.9192 8.25833 11.4543 9.43934 10.6887 10.3626L12.9282 12.5893L12.5696 12.9438L12.5559 12.9571C12.5531 12.9597 12.5526 12.9602 12.5526 12.9602L12.2971 13.2104L12.2732 13.1983C11.3264 14.0051 10.0974 14.4946 8.75451 14.5C5.74292 14.512 3.2743 12.0618 3.28637 9.06034C3.28847 8.53869 3.36477 8.03439 3.50523 7.55739L3.49913 7.55259L3.50421 7.53902L3.49913 7.53503L3.60968 7.23965C3.82218 6.65535 4.13275 6.11785 4.52134 5.647ZM11.2941 12.6932C9.11219 11.5232 6.43059 9.78678 4.36941 8.2278C4.31601 8.49859 4.28751 8.77825 4.28636 9.06436C4.27655 11.5049 6.28885 13.5098 8.75051 13.5C9.69791 13.4962 10.5746 13.1982 11.2941 12.6932ZM9.20471 10.3036L5.24202 6.36355C5.03435 6.62471 4.85585 6.9096 4.71124 7.21331C6.02437 8.22346 7.63362 9.32722 9.20471 10.3036ZM6.60368 2.69273C6.96247 2.70985 7.35965 2.83609 7.72792 3.04433C8.09611 3.25253 8.40879 3.52764 8.6076 3.82638C8.7889 4.0988 8.96129 4.53656 8.72685 4.94645C8.49332 5.35473 8.02978 5.43061 7.70296 5.41502C7.34418 5.39791 6.947 5.27167 6.57873 5.06343C6.21054 4.85523 5.89786 4.58011 5.69906 4.28137C5.51777 4.00896 5.34537 3.5712 5.57981 3.1613C5.81334 2.753 6.27687 2.67714 6.60368 2.69273ZM6.50844 3.69064C6.52255 3.69049 6.53836 3.69076 6.55603 3.6916C6.72855 3.69983 6.97466 3.76719 7.2357 3.9148C7.49684 4.06247 7.68038 4.23808 7.7751 4.38041C7.78396 4.39372 7.79161 4.40594 7.79822 4.41711C7.7841 4.41727 7.76829 4.417 7.75061 4.41616C7.57809 4.40793 7.33199 4.34056 7.07094 4.19295C6.80981 4.04529 6.62627 3.86967 6.53156 3.72735C6.5227 3.71404 6.51505 3.70181 6.50844 3.69064ZM7.83898 4.51465C7.83898 4.51465 7.83833 4.51234 7.83853 4.50812C7.83933 4.51261 7.83898 4.51465 7.83898 4.51465ZM6.46813 3.59963C6.46733 3.59515 6.46768 3.59311 6.46768 3.59311C6.46768 3.59311 6.46833 3.59542 6.46813 3.59963Z" fill="black"/>
</svg>
