<svg width="16" height="16" viewBox="0 0 16 16" fill="none" xmlns="http://www.w3.org/2000/svg">
<path fill-rule="evenodd" clip-rule="evenodd" d="M8.79289 3H7.20711L5.45711 4.75L8 7.29289L10.5429 4.75L8.79289 3ZM7.29289 8L4.75 5.45711L3 7.20711L3 8.79289L4.75 10.5429L7.29289 8ZM4.75 4.04289L5.79289 3H3.70711L4.75 4.04289ZM3 3.70711L3 5.79289L4.04289 4.75L3 3.70711ZM8 8.70711L10.5429 11.25L8.79289 13H7.20711L5.45711 11.25L8 8.70711ZM11.25 10.5429L8.70711 8L11.25 5.45711L13 7.20711V8.79289L11.25 10.5429ZM11.25 11.9571L10.2071 13H12.2929L11.25 11.9571ZM13 12.2929V10.2071L11.9571 11.25L13 12.2929ZM3 10.2071L4.04289 11.25L3 12.2929L3 10.2071ZM4.75 11.9571L3.70711 13H5.79289L4.75 11.9571ZM13 5.79289L11.9571 4.75L13 3.70711V5.79289ZM11.25 4.04289L10.2071 3H12.2929L11.25 4.04289ZM3 2C2.44772 2 2 2.44772 2 3V13C2 13.5523 2.44772 14 3 14H13C13.5523 14 14 13.5523 14 13V3C14 2.44772 13.5523 2 13 2H3Z" fill="black"/>
</svg>
