<svg width="16" height="16" viewBox="0 0 16 16" fill="none" xmlns="http://www.w3.org/2000/svg">
<path d="M2.705 5.205L2 4.5L4.5 2L7 4.5L6.295 5.205L5 3.915V11.085L6.295 9.795L7 10.5L4.5 13L2 10.5L2.705 9.795L4 11.085V3.915L2.705 5.205Z" fill="black"/>
<path fill-rule="evenodd" clip-rule="evenodd" d="M8 14.5H10.2071L14.8535 9.8535C14.9 9.80709 14.9368 9.75199 14.9619 9.69133C14.9865 9.63195 14.9995 9.56839 15 9.50414V9.49586C14.9995 9.43161 14.9865 9.36805 14.9619 9.30867C14.9368 9.24801 14.9 9.19291 14.8535 9.1465L13.3535 7.6465C13.3071 7.60005 13.252 7.5632 13.1913 7.53806C13.1307 7.51292 13.0657 7.49998 13 7.49998C12.9343 7.49998 12.8693 7.51292 12.8087 7.53806C12.748 7.5632 12.6929 7.60005 12.6465 7.6465L8 12.2929V14.5ZM9.79295 13.5H9V12.7071L11.5 10.2071L12.2929 11L9.79295 13.5ZM13 10.2929L12.2071 9.5L13 8.70705L13.7929 9.5L13 10.2929Z" fill="black"/>
</svg>
