<svg width="16" height="16" viewBox="0 0 16 16" fill="none" xmlns="http://www.w3.org/2000/svg">
<path fill-rule="evenodd" clip-rule="evenodd" d="M6.99449 0.938091C7.61604 0.57663 8.38378 0.576626 9.00534 0.93808L13.5054 3.55501C14.1212 3.91308 14.5 4.57162 14.5 5.28392L14.5 10.5691C14.5 11.2814 14.1211 11.9399 13.5054 12.298L9.00534 14.9147C8.38382 15.2761 7.61613 15.2761 6.99461 14.9147L2.49462 12.298C1.87884 11.9399 1.49999 11.2814 1.49999 10.5691L1.49999 5.2839C1.49999 4.57162 1.87882 3.91308 2.49456 3.55501L6.99449 0.938091ZM2.99752 4.41859C2.68951 4.59759 2.49999 4.92694 2.49999 5.28319L2.49999 10.5698C2.49999 10.9261 2.68952 11.2554 2.99753 11.4344L7.49752 14.0496C7.80817 14.2302 8.1918 14.2302 8.50245 14.0496L13.0025 11.4344C13.3105 11.2554 13.5 10.9261 13.5 10.5698L13.5 5.28319C13.5 4.92694 13.3105 4.59759 13.0025 4.41859L8.50245 1.8034C8.1918 1.62287 7.80817 1.62287 7.49752 1.8034L2.99752 4.41859Z" fill="black"/>
<path d="M7.32909 4.00395C7.57603 3.88052 7.87647 3.9807 7.99999 4.22758C8.12327 4.4745 8.02321 4.77501 7.77636 4.89848L5 6.5L4.99997 9.5L7.99999 11.1728L11.0743 9.47275C11.3212 9.34925 11.6217 9.44939 11.7452 9.69638C11.8683 9.94324 11.7683 10.2428 11.5215 10.3663L8.50097 12.1093C8.19074 12.2881 7.80857 12.2873 7.49902 12.1074L4.49816 10.3663C4.18979 10.1874 3.99999 9.85785 3.99999 9.50134L4 6.50235C4 6.14498 4.19071 5.81477 4.50025 5.63618L7.32909 4.00395Z" fill="black"/>
</svg>
