<svg width="16" height="16" viewBox="0 0 16 16" fill="none" xmlns="http://www.w3.org/2000/svg">
<path d="M14.3086 11.3574C14.2125 11.4561 14.1019 11.5 14 11.5H2C1.89807 11.5 1.7875 11.4561 1.69141 11.3574H14.3086ZM2 3.5H14C14.1019 3.5 14.2125 3.54388 14.3086 3.64258H1.69141C1.7875 3.54389 1.89807 3.5 2 3.5Z" stroke="black"/>
<path d="M4.47495 14.1582C4.38759 14.42 4.10396 14.5617 3.84213 14.4746C3.58022 14.3873 3.43852 14.1037 3.52573 13.8418L4.47299 11H5.52768L4.47495 14.1582ZM12.4749 13.8418C12.5621 14.1036 12.4202 14.3872 12.1585 14.4746C11.8966 14.5619 11.6131 14.42 11.5257 14.1582L10.473 11H11.5277L12.4749 13.8418ZM8.50034 12C8.50024 12.276 8.27627 12.4998 8.00034 12.5C7.72426 12.5 7.50043 12.2761 7.50034 12V11H8.50034V12ZM7.38412 2.29883C7.64115 1.81063 8.35965 1.8105 8.61655 2.29883L8.6644 2.41113L9.1937 4H6.80698L7.33627 2.41113L7.38412 2.29883Z" fill="black"/>
</svg>
