<svg width="16" height="16" viewBox="0 0 16 16" fill="none" xmlns="http://www.w3.org/2000/svg">
<path d="M6 9C6.55228 9 7 8.55228 7 8C7 7.44772 6.55228 7 6 7C5.44772 7 5 7.44772 5 8C5 8.55228 5.44772 9 6 9Z" fill="black"/>
<path d="M6.5 12C6.77614 12 7 11.7761 7 11.5C7 11.2239 6.77614 11 6.5 11C6.22386 11 6 11.2239 6 11.5C6 11.7761 6.22386 12 6.5 12Z" fill="black"/>
<path d="M10 9C9.44772 9 9 8.55228 9 8C9 7.44772 9.44772 7 10 7C10.5523 7 11 7.44772 11 8C11 8.55228 10.5523 9 10 9Z" fill="black"/>
<path d="M9.5 12C9.22386 12 9 11.7761 9 11.5C9 11.2239 9.22386 11 9.5 11C9.77614 11 10 11.2239 10 11.5C10 11.7761 9.77614 12 9.5 12Z" fill="black"/>
<path fill-rule="evenodd" clip-rule="evenodd" d="M8.99237 2.12406C8.93128 2.6178 8.51027 3 8 3C7.48973 3 7.06872 2.61781 7.00762 2.12406C5.27853 2.56545 4 4.13342 4 6V10C4 12.2091 5.79086 14 8 14C10.2091 14 12 12.2091 12 10V6C12 4.13342 10.7215 2.56545 8.99237 2.12406ZM13 6V7C13.5523 7 14 7.44772 14 8C14 8.55229 13.5523 9 13 9V10C13 12.7614 10.7614 15 8 15C5.23858 15 3 12.7614 3 10V9C2.44772 9 2 8.55229 2 8C2 7.44772 2.44772 7 3 7V6C3 3.23858 5.23858 1 8 1C10.7614 1 13 3.23858 13 6Z" fill="black"/>
</svg>
