<svg width="16" height="16" viewBox="0 0 16 16" fill="none" xmlns="http://www.w3.org/2000/svg">
<path fill-rule="evenodd" clip-rule="evenodd" d="M14 6V2H8V6L11 8L14 6ZM11 6.79815L9 5.46482V3H13V5.46482L11 6.79815Z" fill="black"/>
<path d="M10 9H3.5C2.67157 9 2 9.67157 2 10.5C2 11.3284 2.67157 12 3.5 12H12.5C12.7761 12 13 12.2239 13 12.5C13 12.7761 12.7761 13 12.5 13H2V14H12.5C13.3284 14 14 13.3284 14 12.5C14 11.6716 13.3284 11 12.5 11H3.5C3.22386 11 3 10.7761 3 10.5C3 10.2239 3.22386 10 3.5 10H10V9Z" fill="black"/>
</svg>
