<svg width="16" height="16" viewBox="0 0 16 16" fill="none" xmlns="http://www.w3.org/2000/svg">
<path d="M15 9.5V8.5H13.955C13.8801 8.05473 13.7049 7.6323 13.4428 7.26465L14.182 6.525L13.475 5.8181L12.7356 6.55735C12.3679 6.29512 11.9454 6.11992 11.5 6.045V5H10.5V6.045C10.0547 6.1199 9.63223 6.29504 9.26455 6.5572L8.525 5.8181L7.818 6.525L8.55735 7.2645C8.29519 7.63221 8.11999 8.05467 8.045 8.5H7V9.5H8.045C8.11997 9.94526 8.29511 10.3677 8.5572 10.7353L7.818 11.475L8.525 12.1819L9.2644 11.4426C9.63211 11.7049 10.0546 11.8801 10.5 11.955V13H11.5V11.955C11.9453 11.8801 12.3678 11.705 12.7354 11.4428L13.475 12.1819L14.182 11.475L13.4426 10.7355C13.7049 10.3678 13.8801 9.94534 13.955 9.5H15ZM11 11C10.6044 11 10.2178 10.8827 9.88886 10.6629C9.55996 10.4432 9.30362 10.1308 9.15224 9.76537C9.00087 9.39991 8.96126 8.99778 9.03843 8.60982C9.1156 8.22186 9.30608 7.86549 9.58579 7.58579C9.86549 7.30608 10.2219 7.1156 10.6098 7.03843C10.9978 6.96126 11.3999 7.00087 11.7654 7.15224C12.1308 7.30362 12.4432 7.55996 12.6629 7.88886C12.8827 8.21776 13 8.60444 13 9C12.9994 9.53025 12.7885 10.0386 12.4136 10.4136C12.0386 10.7885 11.5303 10.9994 11 11Z" fill="black"/>
<path d="M8 5.5V4.5H6.955C6.88008 4.05473 6.70493 3.6323 6.4428 3.26465L7.182 2.525L6.475 1.8181L5.7356 2.55735C5.36789 2.29512 4.94538 2.11992 4.5 2.045V1H3.5V2.045C3.05469 2.1199 2.63223 2.29504 2.26455 2.5572L1.525 1.8181L0.818 2.525L1.55735 3.2645C1.29518 3.63221 1.11999 4.05467 1.045 4.5H0V5.5H1.045C1.11997 5.94526 1.29511 6.36767 1.5572 6.73535L0.818 7.475L1.525 8.1819L2.2644 7.44265C2.63211 7.70488 3.05462 7.88008 3.5 7.955V9H4.5V7.955C4.94531 7.8801 5.36777 7.70496 5.73545 7.4428L6.475 8.1819L7.182 7.475L6.44265 6.7355C6.70486 6.36782 6.88005 5.94534 6.955 5.5H8ZM4 7C3.60444 7 3.21776 6.8827 2.88886 6.66294C2.55996 6.44318 2.30362 6.13082 2.15224 5.76537C2.00087 5.39991 1.96126 4.99778 2.03843 4.60982C2.1156 4.22186 2.30608 3.86549 2.58579 3.58579C2.86549 3.30608 3.22186 3.1156 3.60982 3.03843C3.99778 2.96126 4.39991 3.00087 4.76537 3.15224C5.13082 3.30362 5.44318 3.55996 5.66294 3.88886C5.8827 4.21776 6 4.60444 6 5C5.9994 5.53025 5.7885 6.03861 5.41356 6.41356C5.03861 6.7885 4.53025 6.9994 4 7Z" fill="black"/>
</svg>
