<svg width="16" height="16" viewBox="0 0 16 16" fill="none" xmlns="http://www.w3.org/2000/svg">
<path fill-rule="evenodd" clip-rule="evenodd" d="M13 3H3L3 13H13V3ZM3 2C2.44772 2 2 2.44772 2 3V13C2 13.5523 2.44772 14 3 14H13C13.5523 14 14 13.5523 14 13V3C14 2.44772 13.5523 2 13 2H3Z" fill="black"/>
<path fill-rule="evenodd" clip-rule="evenodd" d="M7.72266 5.41624C7.00016 4.93457 6.05246 4.96088 5.35779 5.48188L5.20001 5.60021C4.9791 5.7659 4.6657 5.72112 4.50001 5.50021C4.33433 5.2793 4.3791 4.9659 4.60001 4.80021L4.75779 4.68188C5.79164 3.90649 7.20209 3.86734 8.27736 4.58419C8.99986 5.06585 9.94757 5.03955 10.6422 4.51854L10.8 4.40021C11.0209 4.23453 11.3343 4.2793 11.5 4.50021C11.6657 4.72112 11.6209 5.03453 11.4 5.20021L11.2422 5.31854C10.2084 6.09393 8.79793 6.13308 7.72266 5.41624Z" fill="black"/>
<path fill-rule="evenodd" clip-rule="evenodd" d="M7.72266 8.41624C7.00016 7.93457 6.05246 7.96088 5.35779 8.48188L5.20001 8.60021C4.9791 8.7659 4.6657 8.72112 4.50001 8.50021C4.33433 8.2793 4.3791 7.9659 4.60001 7.80021L4.75779 7.68188C5.79164 6.90649 7.20209 6.86734 8.27736 7.58419C8.99986 8.06585 9.94757 8.03955 10.6422 7.51855L10.8 7.40021C11.0209 7.23453 11.3343 7.2793 11.5 7.50021C11.6657 7.72112 11.6209 8.03452 11.4 8.20021L11.2422 8.31854C10.2084 9.09393 8.79793 9.13308 7.72266 8.41624Z" fill="black"/>
<path fill-rule="evenodd" clip-rule="evenodd" d="M7.72266 11.4162C7.00016 10.9346 6.05246 10.9609 5.35779 11.4819L5.20001 11.6002C4.9791 11.7659 4.6657 11.7211 4.50001 11.5002C4.33433 11.2793 4.3791 10.9659 4.60001 10.8002L4.75779 10.6819C5.79164 9.90649 7.20209 9.86734 8.27736 10.5842C8.99986 11.0659 9.94757 11.0395 10.6422 10.5185L10.8 10.4002C11.0209 10.2345 11.3343 10.2793 11.5 10.5002C11.6657 10.7211 11.6209 11.0345 11.4 11.2002L11.2422 11.3185C10.2084 12.0939 8.79793 12.1331 7.72266 11.4162Z" fill="black"/>
</svg>
