<svg width="16" height="16" viewBox="0 0 16 16" fill="none" xmlns="http://www.w3.org/2000/svg">
<path d="M10.3511 4.76393C9.66775 4.26742 8.84471 4 7.99999 4V3C9.05589 3 10.0847 3.33427 10.9389 3.95492C11.5088 4.36899 11.9816 4.89635 12.33 5.49975C12.8579 6.41418 13.083 7.47221 12.9726 8.52232C12.8622 9.57243 12.4222 10.5606 11.7157 11.3453C11.2594 11.852 10.7016 12.263 10.0742 12.549C9.1134 12.987 8.03864 13.1096 7.00391 12.8993C6.29858 12.7559 5.62877 12.4611 5.0425 12.031C4.19113 11.4064 3.55931 10.5284 3.23765 9.5227C2.91599 8.51699 2.92097 7.43526 3.25189 6.43256L4.20151 6.74595C3.93678 7.54812 3.93279 8.4135 4.19012 9.21806C4.44571 10.0172 4.94607 10.7156 5.6202 11.2146C6.29916 11.7171 7.11982 11.9918 7.9645 11.9993C8.80919 12.0068 9.63456 11.7467 10.3223 11.2563C10.7957 10.9187 11.1925 10.4801 11.4817 9.96868C11.7502 9.49386 11.9204 8.9664 11.9781 8.41779C12.037 7.85733 11.9765 7.29403 11.8043 6.7639C11.5433 5.96053 11.0345 5.26044 10.3511 4.76393Z" fill="#969696"/>
<path fill-rule="evenodd" clip-rule="evenodd" d="M8.0282 11.0001C9.68506 11.0001 11.0282 9.65697 11.0282 8.00012C11.0282 6.34326 9.68506 5.00012 8.0282 5.00012C6.37135 5.00012 5.0282 6.34326 5.0282 8.00012C5.0282 9.65697 6.37135 11.0001 8.0282 11.0001ZM8.0282 10.0001C9.13277 10.0001 10.0282 9.10468 10.0282 8.00012C10.0282 6.89555 9.13277 6.00012 8.0282 6.00012C6.92363 6.00012 6.0282 6.89555 6.0282 8.00012C6.0282 9.10468 6.92363 10.0001 8.0282 10.0001Z" fill="black"/>
<path fill-rule="evenodd" clip-rule="evenodd" d="M1.0282 15H2.0282V11.6076C3.2531 13.6404 5.48187 15 8.0282 15C11.681 15 14.6803 12.2022 15 8.6326V7.3674C14.6803 3.79783 11.681 1 8.0282 1C4.1622 1 1.0282 4.13401 1.0282 8V15ZM8.0282 14C11.3419 14 14.0282 11.3137 14.0282 8C14.0282 4.68629 11.3419 2 8.0282 2C4.71449 2 2.0282 4.68629 2.0282 8C2.0282 11.3137 4.71449 14 8.0282 14Z" fill="black"/>
</svg>
