<svg width="16" height="16" viewBox="0 0 16 16" fill="none" xmlns="http://www.w3.org/2000/svg">
<path d="M6 9.00045H3C2.73478 9.00045 2.48043 9.10581 2.29289 9.29334C2.10536 9.48088 2 9.73523 2 10.0004V13.0004C2 13.2657 2.10536 13.52 2.29289 13.7076C2.48043 13.8951 2.73478 14.0004 3 14.0004H6C6.26522 14.0004 6.51957 13.8951 6.70711 13.7076C6.89464 13.52 7 13.2657 7 13.0004V10.0004C7 9.73523 6.89464 9.48088 6.70711 9.29334C6.51957 9.10581 6.26522 9.00045 6 9.00045ZM3 13.0004V10.0004H6V13.0004H3Z" fill="black"/>
<path d="M9 11.0006V12.0006H13C13.2652 12.0006 13.5196 11.8952 13.7071 11.7077C13.8946 11.5202 14 11.2658 14 11.0006V3C14 2.73478 13.8946 2.48043 13.7071 2.29289C13.5196 2.10536 13.2652 2 13 2H5C4.73478 2 4.48043 2.10536 4.29289 2.29289C4.10536 2.48043 4 2.73478 4 3V6.91466H5V3H13V11.0006" fill="black"/>
</svg>
