<svg width="16" height="16" viewBox="0 0 16 16" fill="none" xmlns="http://www.w3.org/2000/svg">
<path fill-rule="evenodd" clip-rule="evenodd" d="M7.46999 2.24185C7.79426 2.03918 8.20572 2.03918 8.52999 2.24185L12.03 4.42935C12.3224 4.61208 12.5 4.93255 12.5 5.27734V7.73263L14.6042 9.13543C15.2227 9.54779 15.1911 10.4669 14.5456 10.8357L8.49613 14.2926C8.18869 14.4683 7.81128 14.4683 7.50385 14.2926L1.45434 10.8357C0.808906 10.4669 0.777249 9.54779 1.39578 9.13543L3.49999 7.73263V5.27734C3.49999 4.93255 3.67761 4.61208 3.96999 4.42935L7.46999 2.24185ZM12.03 9.57109C12.2653 9.42401 12.4263 9.18768 12.4802 8.92127L14.0495 9.96748L7.99999 13.4243L1.95048 9.96748L3.5198 8.92127C3.57366 9.18768 3.73465 9.42401 3.96999 9.57109L7.46999 11.7586C7.79426 11.9613 8.20572 11.9613 8.52999 11.7586L12.03 9.57109ZM11.0566 5.00022L7.99999 3.08984L4.94339 5.00022L7.99999 6.9106L11.0566 5.00022ZM11.5 5.90234V8.7231L8.49999 10.5981V7.77734L11.5 5.90234ZM7.49999 10.5981L4.49999 8.7231L4.49999 5.90234L7.49999 7.77734V10.5981Z" fill="black"/>
</svg>
