<svg width="16" height="16" viewBox="0 0 16 16" fill="none" xmlns="http://www.w3.org/2000/svg">
<path fill-rule="evenodd" clip-rule="evenodd" d="M6.5 2H9.5V3H9H7H6.5V2ZM9 8V4H7V8C7 8.55228 7.44772 8.99999 8 8.99999C8.55228 8.99999 9 8.55228 9 8ZM6 8V3.86622C5.7011 3.69331 5.5 3.37014 5.5 3H5.41421L5 3.41421V11.0858L5.91421 12H10.0858L11 11.0858V3.41421L10.5858 3H10.5C10.5 3.37014 10.2989 3.69331 10 3.86622V8C10 9.10457 9.10457 9.99999 8 9.99999C6.89543 9.99999 6 9.10457 6 8ZM5.5 2C5.5 1.44772 5.94772 1 6.5 1H9.5C10.0523 1 10.5 1.44772 10.5 2H10.5858C10.851 2 11.1054 2.10536 11.2929 2.29289L11.7071 2.70711C11.8946 2.89464 12 3.149 12 3.41421V11.0858C12 11.351 11.8946 11.6054 11.7071 11.7929L10.7929 12.7071C10.6054 12.8946 10.351 13 10.0858 13H9V14L8 15L7 14V13H5.91421C5.649 13 5.39464 12.8946 5.20711 12.7071L4.29289 11.7929C4.10536 11.6054 4 11.351 4 11.0858V3.41421C4 3.149 4.10536 2.89464 4.29289 2.70711L4.70711 2.29289C4.89464 2.10536 5.149 2 5.41421 2H5.5Z" fill="black"/>
</svg>
