<svg width="16" height="16" viewBox="0 0 16 16" fill="none" xmlns="http://www.w3.org/2000/svg">
<path fill-rule="evenodd" clip-rule="evenodd" d="M11 5H5C3.34315 5 2 6.34315 2 8C2 9.65685 3.34315 11 5 11H11C12.6569 11 14 9.65685 14 8C14 6.34315 12.6569 5 11 5ZM5 4C2.79086 4 1 5.79086 1 8C1 10.2091 2.79086 12 5 12H11C13.2091 12 15 10.2091 15 8C15 5.79086 13.2091 4 11 4H5Z" fill="#282828"/>
<path d="M7 8C7 9.10457 6.10457 10 5 10C3.89543 10 3 9.10457 3 8C3 6.89543 3.89543 6 5 6C6.10457 6 7 6.89543 7 8Z" fill="black"/>
</svg>
