<svg width="16" height="16" viewBox="0 0 16 16" fill="none" xmlns="http://www.w3.org/2000/svg">
<path d="M8 8.00031C8.19698 8.00031 8.39204 7.96151 8.57403 7.88613C8.75601 7.81075 8.92137 7.70026 9.06066 7.56097C9.19995 7.42168 9.31044 7.25632 9.38582 7.07434C9.4612 6.89235 9.5 6.69729 9.5 6.50031C9.5 6.30333 9.4612 6.10827 9.38582 5.92628C9.31044 5.7443 9.19995 5.57894 9.06066 5.43965C8.92137 5.30036 8.75601 5.18987 8.57403 5.11449C8.39204 5.03911 8.19698 5.00031 8 5.00031V8.00031Z" fill="black"/>
<path d="M8 8.00031C7.80302 8.00031 7.60796 8.03911 7.42597 8.11449C7.24399 8.18987 7.07863 8.30036 6.93934 8.43965C6.80005 8.57894 6.68956 8.7443 6.61418 8.92629C6.5388 9.10827 6.5 9.30333 6.5 9.50031C6.5 9.69729 6.5388 9.89235 6.61418 10.0743C6.68956 10.2563 6.80005 10.4217 6.93934 10.561C7.07863 10.7003 7.24399 10.8107 7.42597 10.8861C7.60796 10.9615 7.80302 11.0003 8 11.0003V8.00031Z" fill="black"/>
<path d="M8 8.00031C8 8.19729 8.0388 8.39235 8.11418 8.57434C8.18956 8.75632 8.30005 8.92168 8.43934 9.06097C8.57863 9.20026 8.74399 9.31075 8.92597 9.38613C9.10796 9.46151 9.30302 9.50031 9.5 9.50031C9.69698 9.50031 9.89204 9.46151 10.074 9.38613C10.256 9.31075 10.4214 9.20026 10.5607 9.06097C10.6999 8.92168 10.8104 8.75632 10.8858 8.57434C10.9612 8.39235 11 8.19729 11 8.00031H8Z" fill="black"/>
<path d="M8 8.00031C8 7.80333 7.9612 7.60827 7.88582 7.42629C7.81044 7.2443 7.69995 7.07894 7.56066 6.93965C7.42137 6.80036 7.25601 6.68987 7.07403 6.61449C6.89204 6.53911 6.69698 6.50031 6.5 6.50031C6.30302 6.50031 6.10796 6.53911 5.92598 6.61449C5.74399 6.68987 5.57863 6.80036 5.43934 6.93965C5.30005 7.07894 5.18956 7.2443 5.11418 7.42628C5.0388 7.60827 5 7.80333 5 8.00031H8Z" fill="black"/>
<path fill-rule="evenodd" clip-rule="evenodd" d="M13.1608 3.80389C13.0673 3.33646 12.6569 3 12.1802 3H3.81981C3.34313 3 2.93271 3.33646 2.83923 3.80389L1 13.0003H15L13.1608 3.80389ZM13.7802 12.0003L12.1802 4L3.81981 4L2.2198 12.0003H13.7802Z" fill="black"/>
</svg>
