<svg width="16" height="16" viewBox="0 0 16 16" fill="none" xmlns="http://www.w3.org/2000/svg">
<path fill-rule="evenodd" clip-rule="evenodd" d="M14 3C14 2.44772 13.5523 2 13 2H3C2.44772 2 2 2.44772 2 3V13C2 13.5523 2.44772 14 3 14H13C13.5523 14 14 13.5523 14 13L14 3ZM13 3L3 3L3 13H13L13 3Z" fill="black"/>
<path d="M5.00003 10V12H4.00003V10H5.00003Z" fill="black"/>
<path d="M9.00003 11V12H7.00003V11H9.00003Z" fill="black"/>
<path d="M12 11V12H10V11H12Z" fill="black"/>
<path d="M6.00003 11V12H4.00003V11H6.00003Z" fill="black"/>
<path d="M12 10V12H11V10H12Z" fill="black"/>
<path d="M12 7V9H11V7H12Z" fill="black"/>
<path d="M12 4V6H11V4H12Z" fill="black"/>
<path d="M9.00003 4V5H7.00003V4L9.00003 4Z" fill="black"/>
<path d="M12 4V5H10V4L12 4Z" fill="black"/>
<path d="M6.00003 4V5H4.00003V4L6.00003 4Z" fill="black"/>
<path d="M5.00003 7V9H4.00003V7H5.00003Z" fill="black"/>
<path d="M5.00003 4V6H4.00003V4L5.00003 4Z" fill="black"/>
</svg>
