<svg width="16" height="16" viewBox="0 0 16 16" fill="none" xmlns="http://www.w3.org/2000/svg">
<path fill-rule="evenodd" clip-rule="evenodd" d="M3 3V13H7.71922L5.21922 3H3ZM5.21922 2C5.67809 2 6.07807 2.3123 6.18937 2.75746L8.68937 12.7575C8.84715 13.3886 8.36979 14 7.71922 14H3C2.44772 14 2 13.5523 2 13V3C2 2.44772 2.44772 2 3 2H5.21922Z" fill="black"/>
<path fill-rule="evenodd" clip-rule="evenodd" d="M13 13L13 3L8.28078 3L10.7808 13L13 13ZM10.7808 14C10.3219 14 9.92193 13.6877 9.81063 13.2425L7.31063 3.24254C7.15285 2.61139 7.63021 2 8.28078 2L13 2C13.5523 2 14 2.44772 14 3L14 13C14 13.5523 13.5523 14 13 14L10.7808 14Z" fill="black"/>
</svg>
