<svg width="16" height="16" viewBox="0 0 16 16" fill="none" xmlns="http://www.w3.org/2000/svg">
<path fill-rule="evenodd" clip-rule="evenodd" d="M4 14V13H6V14H7V13H8V12H7V10H8V9H7L7 7H9V8H10V7H12V8H13V7H14V6H13V4H14V3H13V2H12V3H10V2H9V3H7V2H6V3H4V2H3L3 3H2V4H3L3 6H2V7H3L3 9H2V10H3L3 12H2V13H3L3 14H4ZM6 4H4V6H6L6 4ZM6 7H4V9H6V7ZM6 10H4V12H6L6 10ZM7 6V4H9V6H7ZM12 6H10V4H12V6Z" fill="black"/>
<path d="M9 10H11C12.1046 10 13 10.3955 13 11.5C13 12.6045 12.1046 13 11 13H9V14H11C12.6569 14 14 13.1572 14 11.5C14 9.84277 12.6569 9 11 9H9V10Z" fill="black"/>
<rect x="7" y="9" width="1" height="5" fill="white"/>
<rect x="9" y="7" width="5" height="1" fill="white"/>
</svg>
