<svg width="16" height="16" viewBox="0 0 16 16" fill="none" xmlns="http://www.w3.org/2000/svg">
<path d="M11 10.6667L11.6667 10L15 13.3333L14.3333 13.9999L11 10.6667Z" fill="#000E1A"/>
<path d="M14.3333 10.0001L15 10.6667L11.6667 14L11 13.3333L14.3333 10.0001Z" fill="#000E1A"/>
<path d="M4.00012 9.00098V14H3.00012V8.00098L4.00012 9.00098ZM6.66516 11.666C6.7686 11.7694 6.88119 11.8582 7.00012 11.9326V14H6.00012V11.001L6.66516 11.666ZM10.0001 14H9.00012V11.9326C9.11907 11.8582 9.23163 11.7694 9.33508 11.666L10.0001 11.001V14ZM6.93958 1.35352C7.52537 0.767817 8.47491 0.767758 9.06067 1.35352L10.6671 2.95996C10.5789 3.02312 10.4934 3.09264 10.4142 3.17188L9.93958 3.64648L8.35364 2.06055C8.15841 1.86531 7.84188 1.86537 7.64661 2.06055L4.06067 5.64648C3.86549 5.84175 3.86544 6.15828 4.06067 6.35352L7.64661 9.93945C7.84186 10.1344 8.15846 10.1345 8.35364 9.93945L9.9386 8.35352L10.4142 8.8291C10.4931 8.908 10.5783 8.97708 10.6661 9.04004L9.06067 10.6465C8.47496 11.2321 7.52535 11.232 6.93958 10.6465L3.35364 7.06055C2.76788 6.47479 2.76794 5.52525 3.35364 4.93945L6.93958 1.35352Z" fill="#000E1A"/>
<path fill-rule="evenodd" clip-rule="evenodd" d="M13.2426 6.0003L11.8284 4.58609L10.4142 6.0003L11.8284 7.41452L13.2426 6.0003ZM12.5355 3.87898C12.145 3.48846 11.5118 3.48846 11.1213 3.87898L9.70711 5.2932C9.31659 5.68372 9.31659 6.31688 9.70711 6.70741L11.1213 8.12162C11.5118 8.51215 12.145 8.51215 12.5355 8.12162L13.9498 6.70741C14.3403 6.31688 14.3403 5.68372 13.9498 5.2932L12.5355 3.87898Z" fill="#000E1A"/>
</svg>
