<svg width="16" height="16" viewBox="0 0 16 16" fill="none" xmlns="http://www.w3.org/2000/svg">
<path fill-rule="evenodd" clip-rule="evenodd" d="M4 9V3.5H3V9C3 9.55228 3.44772 10 4 10H12C12.5523 10 13 9.55228 13 9V3.5H12V9H4Z" fill="black"/>
<path d="M5 11V12H3V11H5Z" fill="black"/>
<path d="M9 11V12H7V11H9Z" fill="black"/>
<path d="M13 11V12H11V11H13Z" fill="black"/>
<path d="M1 13H15V14H1V13Z" fill="black"/>
<path d="M10.3 4.3L8.5 6.1V3H7.5V6.1L5.7 4.3L5 5L8 8L11 5L10.3 4.3Z" fill="black"/>
</svg>
