<svg width="16" height="16" viewBox="0 0 16 16" fill="none" xmlns="http://www.w3.org/2000/svg">
<path d="M4.41421 2C4.28161 2 4.15443 2.05268 4.06066 2.14645L3.14645 3.06066C3.05268 3.15443 3 3.28161 3 3.41421V12.5858C3 12.7184 3.05268 12.8456 3.14645 12.9393L4.06066 13.8536C4.15443 13.9473 4.28161 14 4.41421 14H5V15H4.41421C4.01639 15 3.63486 14.842 3.35355 14.5607L2.43934 13.6464C2.15804 13.3651 2 12.9836 2 12.5858V3.41421C2 3.01639 2.15804 2.63486 2.43934 2.35355L3.35355 1.43934C3.63486 1.15804 4.01639 1 4.41421 1H9.58579C9.98361 1 10.3651 1.15804 10.6464 1.43934L11.5607 2.35355C11.842 2.63486 12 3.01639 12 3.41421V6H11V3.41421C11 3.28161 10.9473 3.15443 10.8536 3.06066L9.93934 2.14645C9.84557 2.05268 9.71839 2 9.58579 2H4.41421Z" fill="black"/>
<path d="M10 6V5C10 4.44772 9.55228 4 9 4H5C4.44772 4 4 4.44772 4 5V9C4 9.55228 4.44772 10 5 10V5H6V6H8V5H9V6H10Z" fill="black"/>
<path d="M14 11.5V10.5H12.955C12.8801 10.0547 12.7049 9.63231 12.4428 9.26465L13.182 8.525L12.475 7.8181L11.7356 8.55735C11.3679 8.29512 10.9454 8.11992 10.5 8.045V7H9.5V8.045C9.05469 8.1199 8.63223 8.29504 8.26455 8.5572L7.525 7.8181L6.818 8.525L7.55735 9.2645C7.29518 9.63221 7.11999 10.0547 7.045 10.5H6V11.5H7.045C7.11997 11.9453 7.29511 12.3677 7.5572 12.7353L6.818 13.475L7.525 14.1819L8.2644 13.4426C8.63211 13.7049 9.05462 13.8801 9.5 13.955V15H10.5V13.955C10.9453 13.8801 11.3678 13.705 11.7354 13.4428L12.475 14.1819L13.182 13.475L12.4426 12.7355C12.7049 12.3678 12.8801 11.9453 12.955 11.5H14ZM10 13C9.60444 13 9.21776 12.8827 8.88886 12.6629C8.55996 12.4432 8.30362 12.1308 8.15224 11.7654C8.00087 11.3999 7.96126 10.9978 8.03843 10.6098C8.1156 10.2219 8.30608 9.86549 8.58579 9.58579C8.86549 9.30608 9.22186 9.1156 9.60982 9.03843C9.99778 8.96126 10.3999 9.00087 10.7654 9.15224C11.1308 9.30362 11.4432 9.55996 11.6629 9.88886C11.8827 10.2178 12 10.6044 12 11C11.9994 11.5303 11.7885 12.0386 11.4136 12.4136C11.0386 12.7885 10.5303 12.9994 10 13Z" fill="black"/>
</svg>
