<svg width="16" height="16" viewBox="0 0 16 16" fill="none" xmlns="http://www.w3.org/2000/svg">
<path fill-rule="evenodd" clip-rule="evenodd" d="M11.3334 3.01118C10.3467 2.35189 9.18669 2 8 2V1C9.38447 1 10.7378 1.41054 11.889 2.17971C13.0401 2.94888 13.9373 4.04213 14.4672 5.32122C14.997 6.6003 15.1356 8.00777 14.8655 9.36563C14.5954 10.7235 13.9287 11.9708 12.9497 12.9497C11.9708 13.9287 10.7235 14.5954 9.36563 14.8655C8.00776 15.1356 6.6003 14.997 5.32122 14.4672C4.04213 13.9373 2.94888 13.0401 2.17971 11.889C1.41054 10.7378 1 9.38447 1 8H2C2 9.18669 2.35189 10.3467 3.01118 11.3334C3.67047 12.3201 4.60754 13.0892 5.7039 13.5433C6.80026 13.9974 8.00666 14.1162 9.17054 13.8847C10.3344 13.6532 11.4035 13.0818 12.2426 12.2426C13.0818 11.4035 13.6532 10.3344 13.8847 9.17054C14.1162 8.00666 13.9974 6.80026 13.5433 5.7039C13.0892 4.60754 12.3201 3.67047 11.3334 3.01118Z" fill="black"/>
</svg>
