<svg width="16" height="16" viewBox="0 0 16 16" fill="none" xmlns="http://www.w3.org/2000/svg">
<path fill-rule="evenodd" clip-rule="evenodd" d="M8.0282 11.0001C9.68506 11.0001 11.0282 9.65697 11.0282 8.00012C11.0282 6.34326 9.68506 5.00012 8.0282 5.00012C6.37135 5.00012 5.0282 6.34326 5.0282 8.00012C5.0282 9.65697 6.37135 11.0001 8.0282 11.0001ZM8.0282 10.0001C9.13277 10.0001 10.0282 9.10468 10.0282 8.00012C10.0282 6.89555 9.13277 6.00012 8.0282 6.00012C6.92363 6.00012 6.0282 6.89555 6.0282 8.00012C6.0282 9.10468 6.92363 10.0001 8.0282 10.0001Z" fill="black"/>
<path fill-rule="evenodd" clip-rule="evenodd" d="M1.0282 15H2.0282V11.6076C3.2531 13.6404 5.48187 15 8.0282 15C11.681 15 14.6803 12.2022 15 8.6326V7.3674C14.6803 3.79783 11.681 1 8.0282 1C4.1622 1 1.0282 4.13401 1.0282 8V15ZM8.0282 14C11.3419 14 14.0282 11.3137 14.0282 8C14.0282 4.68629 11.3419 2 8.0282 2C4.71449 2 2.0282 4.68629 2.0282 8C2.0282 11.3137 4.71449 14 8.0282 14Z" fill="black"/>
</svg>
