<svg width="16" height="16" viewBox="0 0 16 16" fill="none" xmlns="http://www.w3.org/2000/svg">
<path d="M14.252 4.06812L8.25195 0.568119C8.17548 0.523507 8.08853 0.5 8 0.5C7.91147 0.5 7.82452 0.523507 7.74805 0.568119L1.74805 4.06812C1.67257 4.11215 1.60994 4.1752 1.56642 4.25099C1.5229 4.32677 1.5 4.41263 1.5 4.50002V11.5C1.5 11.5874 1.5229 11.6733 1.56642 11.7491C1.60994 11.8248 1.67257 11.8879 1.74805 11.9319L7.74805 15.4319C7.82452 15.4765 7.91147 15.5 8 15.5C8.08853 15.5 8.17548 15.4765 8.25195 15.4319L14.252 11.9319C14.3274 11.8879 14.3901 11.8248 14.4336 11.7491C14.4771 11.6733 14.5 11.5874 14.5 11.5V4.50002C14.5 4.41263 14.4771 4.32677 14.4336 4.25099C14.3901 4.1752 14.3274 4.11215 14.252 4.06812ZM8 1.57887L13.0078 4.50002L8 7.42117L2.9922 4.50002L8 1.57887ZM2.5 5.37062L7.5 8.28712V14.1294L2.5 11.2129V5.37062ZM8.5 14.1294V8.28712L13.5 5.37062V11.2129L8.5 14.1294Z" fill="black"/>
<path fill-rule="evenodd" clip-rule="evenodd" d="M7.5 1.43754V1.00004H8.5V1.43754H7.5ZM7.5 3.18754V2.31254H8.5V3.18754H7.5ZM7.5 4.93754V4.06254H8.5V4.93754H7.5ZM7.5 6.68754V5.81254H8.5V6.68754H7.5ZM7.5 7.71285V7.56254H8.5V7.71285L8.75194 7.85982L8.24806 8.72359L8 8.57889L7.75194 8.72359L7.24806 7.85982L7.5 7.71285ZM6.75194 9.30693L5.75194 9.89026L5.24806 9.02648L6.24806 8.44315L6.75194 9.30693ZM10.2481 9.89026L9.24806 9.30693L9.75194 8.44315L10.7519 9.02648L10.2481 9.89026ZM4.75194 10.4736L3.75194 11.0569L3.24806 10.1931L4.24806 9.60982L4.75194 10.4736ZM12.2481 11.0569L11.2481 10.4736L11.7519 9.60982L12.7519 10.1931L12.2481 11.0569ZM2.75194 11.6403L2.25194 11.9319L1.74806 11.0681L2.24806 10.7765L2.75194 11.6403ZM13.7481 11.9319L13.2481 11.6403L13.7519 10.7765L14.2519 11.0681L13.7481 11.9319Z" fill="black"/>
</svg>
