<svg width="16" height="16" viewBox="0 0 16 16" fill="none" xmlns="http://www.w3.org/2000/svg">
<path fill-rule="evenodd" clip-rule="evenodd" d="M6.93927 1.3534C7.52506 0.767616 8.47481 0.767615 9.06059 1.3534L12.6464 4.93917C13.2321 5.52495 13.2321 6.4747 12.6464 7.06049L9.06059 10.6462C8.47481 11.232 7.52506 11.232 6.93927 10.6462L3.35351 7.06049C2.76772 6.4747 2.76772 5.52495 3.35351 4.93917L6.93927 1.3534ZM8.35349 2.06051C8.15822 1.86525 7.84164 1.86525 7.64638 2.06051L4.06062 5.64627C3.86535 5.84153 3.86535 6.15812 4.06062 6.35338L7.64638 9.93914C7.84164 10.1344 8.15822 10.1344 8.35349 9.93914L11.9392 6.35338C12.1345 6.15812 12.1345 5.84153 11.9392 5.64627L8.35349 2.06051Z" fill="black"/>
<path d="M2.99999 8.00082V13.9998H3.99999V9.00082L2.99999 8.00082Z" fill="black"/>
<path d="M5.99999 11.0008V13.9998H6.99999V11.9326C6.88091 11.8582 6.76832 11.7691 6.66476 11.6656L5.99999 11.0008Z" fill="black"/>
<path d="M8.99999 11.9326V13.9998H9.99999V11.0008L9.33523 11.6656C9.23167 11.7691 9.11908 11.8582 8.99999 11.9326Z" fill="black"/>
<path d="M12 9.00082V13.9998H13V8.00082L12 9.00082Z" fill="black"/>
</svg>
