<svg width="16" height="16" viewBox="0 0 16 16" fill="none" xmlns="http://www.w3.org/2000/svg">
<path d="M8 1C9.49409 1 10.8788 1.46809 12.0156 2.26562L11.2958 2.98545C10.3499 2.3625 9.21729 2 8 2C4.68629 2 2 4.68629 2 8C2 9.21729 2.3625 10.3499 2.98545 11.2958L2.26562 12.0156C1.46809 10.8788 1 9.49409 1 8C1 4.13401 4.13401 1 8 1Z" fill="black"/>
<path d="M8 5C8.38099 5 8.7454 5.07102 9.0807 5.20055L8.26398 6.01727C8.1776 6.00588 8.08949 6 8 6C6.89543 6 6 6.89543 6 8C6 8.08949 6.00588 8.1776 6.01727 8.26398L5.20055 9.0807C5.07102 8.7454 5 8.38099 5 8C5 6.34315 6.34315 5 8 5Z" fill="black"/>
<path fill-rule="evenodd" clip-rule="evenodd" d="M13.5165 3.69043L14.9862 2.22078L14.2791 1.51367L0.997803 14.7949L1.70491 15.502L3.69043 13.5165C4.87854 14.446 6.37457 15 8 15C11.866 15 15 11.866 15 8C15 6.37457 14.446 4.87854 13.5165 3.69043ZM9.88289 7.32405L7.32405 9.88289C7.53519 9.9587 7.76277 10 8 10C9.10457 10 10 9.10457 10 8C10 7.76277 9.9587 7.53519 9.88289 7.32405ZM6.56937 10.6376L4.40371 12.8032C5.40587 13.5548 6.65094 14 8 14C11.3137 14 14 11.3137 14 8C14 6.65094 13.5548 5.40587 12.8032 4.40371L10.6376 6.56937C10.8687 6.99461 11 7.48197 11 8C11 9.65685 9.65685 11 8 11C7.48197 11 6.99461 10.8687 6.56937 10.6376Z" fill="black"/>
</svg>
