<svg width="16" height="16" viewBox="0 0 16 16" fill="none" xmlns="http://www.w3.org/2000/svg">
<path d="M8.5 4H7.5V7H8.5V4Z" fill="black"/>
<path d="M8.5 9H7.5V12H8.5V9Z" fill="black"/>
<path d="M12 7.5H9V8.5H12V7.5Z" fill="black"/>
<path d="M7 7.5H4V8.5H7V7.5Z" fill="black"/>
<path d="M2 5H1V2C1.00028 1.73487 1.10572 1.48068 1.2932 1.2932C1.48068 1.10572 1.73487 1.00028 2 1H5V2H2V5Z" fill="black"/>
<path d="M5 15H2C1.73487 14.9997 1.48068 14.8943 1.2932 14.7068C1.10572 14.5193 1.00028 14.2651 1 14V11H2V14H5V15Z" fill="black"/>
<path d="M14 15H11V14H14V11H15V14C14.9997 14.2651 14.8943 14.5193 14.7068 14.7068C14.5193 14.8943 14.2651 14.9997 14 15Z" fill="black"/>
<path d="M15 5H14V2H11V1H14C14.2651 1.00028 14.5193 1.10572 14.7068 1.2932C14.8943 1.48068 14.9997 1.73487 15 2V5Z" fill="black"/>
</svg>
