<svg width="16" height="16" viewBox="0 0 16 16" fill="none" xmlns="http://www.w3.org/2000/svg">
<path d="M12.2958 3.66222C12.8339 4.21538 13.3003 4.87917 13.5873 5.61671C13.9102 6.35425 14.0536 7.20243 13.9819 8.01373C13.9819 8.825 13.8384 9.63631 13.5155 10.4108C13.2285 11.1483 12.7622 11.8121 12.224 12.3652C11.6859 12.9184 11.0402 13.3982 10.3228 13.6928C9.60525 14.0247 8.78018 14.1722 7.99094 14.1722C7.20171 14.1722 6.41249 14.0247 5.65914 13.6928C4.94166 13.3982 4.29593 12.9184 3.75782 12.3652C3.21971 11.8121 2.75335 11.1483 2.46636 10.4108C2.1435 9.67317 2 8.86193 2 8.01373C2 7.20243 2.1435 6.35425 2.50223 5.57983C2.78923 4.84228 3.25559 4.17887 3.7937 3.62571C4.33181 3.07255 4.97754 2.59278 5.69501 2.29776C6.41249 1.96624 7.20171 1.81836 8.02682 1.81836C8.85194 1.81836 9.64116 1.96624 10.3945 2.33501C11.112 2.62966 11.7577 3.10906 12.2958 3.66222ZM2.8251 8.01373C2.8251 10.9639 5.1569 13.3609 8.02682 13.3609C10.8967 13.3609 13.2285 10.9639 13.2285 8.01373C13.2285 5.06355 10.8967 2.66653 8.02682 2.66653C5.1569 2.66653 2.8251 5.06355 2.8251 8.01373Z" fill="black"/>
<path d="M9.67705 3.95863H6.41253C5.94617 3.95863 5.55156 4.10614 5.22869 4.43804C4.90582 4.76993 4.76233 5.17558 4.76233 5.65535V10.9284C4.76233 11.1497 4.83408 11.3341 4.97757 11.4815C5.12107 11.6291 5.30044 11.7029 5.51568 11.7029C5.73092 11.7029 5.9103 11.6291 6.05379 11.4815C6.19729 11.3341 6.26903 11.1497 6.26903 10.9284V5.47097H7.34525V10.9284C7.34525 11.1497 7.417 11.3341 7.52462 11.4815C7.66812 11.6291 7.84748 11.7029 8.06273 11.7029C8.27797 11.7029 8.45734 11.6291 8.60084 11.4815C8.74433 11.3341 8.7802 11.1497 8.7802 10.9284V5.47097H9.85642V10.9284C9.85642 11.1497 9.92817 11.3341 10.0717 11.4815C10.2152 11.6291 10.3945 11.7029 10.6098 11.7029C10.825 11.7029 11.0044 11.6291 11.1479 11.4815C11.2914 11.3341 11.3631 11.1497 11.3631 10.9284V5.65535C11.3631 5.17558 11.2196 4.76993 10.8968 4.43804C10.538 4.10614 10.1434 3.95863 9.67705 3.95863Z" fill="black"/>
</svg>
