<svg width="16" height="16" viewBox="0 0 16 16" fill="none" xmlns="http://www.w3.org/2000/svg">
<path fill-rule="evenodd" clip-rule="evenodd" d="M7.52956 1.57966C7.68827 1.13881 8.31174 1.13881 8.47045 1.57966L9.79142 5.24902H14.5C14.9769 5.24902 15.1831 5.85308 14.8057 6.14467L11.135 8.98115L12.9704 14.0797C13.1398 14.5502 12.59 14.9504 12.1943 14.6447L8 11.4036L3.80573 14.6447C3.41003 14.9504 2.86018 14.5502 3.02956 14.0797L4.86502 8.98115L1.19428 6.14467C0.816937 5.85308 1.02313 5.24902 1.5 5.24902H6.20859L7.52956 1.57966ZM5.84859 6.24902H2.96479L5.22096 7.99243L5.84859 6.24902ZM6.05248 8.63496L6.91142 6.24902H9.08859L9.94753 8.63496L8 10.1399L6.05248 8.63496ZM5.69654 9.62369L4.55136 12.8047L7.18227 10.7718L5.69654 9.62369ZM8.81773 10.7718L11.4486 12.8047L10.3035 9.62369L8.81773 10.7718ZM10.779 7.99243L13.0352 6.24902H10.1514L10.779 7.99243ZM8.72859 5.24902H7.27142L8 3.22517L8.72859 5.24902Z" fill="black"/>
</svg>
