<svg width="16" height="16" viewBox="0 0 16 16" fill="none" xmlns="http://www.w3.org/2000/svg">
<path d="M7.58496 2C7.71692 1.9999 7.84787 2.02554 7.96973 2.07617C8.09152 2.12679 8.20193 2.20139 8.29492 2.29492L10 4H14C14.2652 4 14.5195 4.10543 14.707 4.29297C14.8946 4.48051 15 4.73478 15 5V13C15 13.2652 14.8946 13.5195 14.707 13.707C14.5195 13.8946 14.2652 14 14 14H2C1.73478 14 1.48051 13.8946 1.29297 13.707C1.10543 13.5195 1 13.2652 1 13V7H12V12H13V6H3V3C3 2.73478 3.10543 2.48051 3.29297 2.29297C3.4805 2.10543 3.73478 2 4 2H7.58496Z" fill="black"/>
</svg>
