<svg width="16" height="16" viewBox="0 0 16 16" fill="none" xmlns="http://www.w3.org/2000/svg">
<path fill-rule="evenodd" clip-rule="evenodd" d="M14.0282 8C14.0282 11.3137 11.3419 14 8.0282 14C4.71449 14 2.0282 11.3137 2.0282 8C2.0282 4.68629 4.71449 2 8.0282 2C11.3419 2 14.0282 4.68629 14.0282 8ZM2.0282 11.6076C3.2531 13.6404 5.48187 15 8.0282 15C11.8942 15 15.0282 11.866 15.0282 8C15.0282 4.13401 11.8942 1 8.0282 1C4.1622 1 1.0282 4.13401 1.0282 8V15H2.0282V11.6076Z" fill="black"/>
<path d="M9.49999 10.5H6.49999V8.5C6.49999 8.23478 6.60535 7.98043 6.79289 7.79289C6.98042 7.60536 7.23478 7.5 7.49999 7.5H8.49999V6.5H6.49999V5.5H8.49999C8.76521 5.5 9.01956 5.60536 9.2071 5.79289C9.39464 5.98043 9.49999 6.23478 9.49999 6.5V7.5C9.49999 7.76522 9.39464 8.01957 9.2071 8.20711C9.01956 8.39464 8.76521 8.5 8.49999 8.5H7.49999V9.5H9.49999V10.5Z" fill="black"/>
</svg>
