<svg width="16" height="16" viewBox="0 0 16 16" fill="none" xmlns="http://www.w3.org/2000/svg">
<path fill-rule="evenodd" clip-rule="evenodd" d="M3 13V5.41421L5.41421 3H13V10.5858L10.5858 13H3ZM3 14C2.44772 14 2 13.5523 2 13V5.41421C2 5.149 2.10536 4.89464 2.29289 4.70711L4.70711 2.29289C4.89464 2.10536 5.149 2 5.41421 2H13C13.5523 2 14 2.44772 14 3V10.5858C14 10.851 13.8946 11.1054 13.7071 11.2929L11.2929 13.7071C11.1054 13.8946 10.851 14 10.5858 14H3ZM10 6H8C6.89543 6 6 6.89551 6 8C6 9.10449 6.89543 10 8 10H10V11H8C6.34315 11 5 9.65723 5 8C5 6.34277 6.34315 5 8 5H10V6Z" fill="black"/>
</svg>
