<svg width="16" height="16" viewBox="0 0 16 16" fill="none" xmlns="http://www.w3.org/2000/svg">
<path d="M7.5 1H8.5V3.5H7.5V1Z" fill="black"/>
<path d="M10.8433 4.44968L12.5962 2.69677L13.3033 3.4038L11.5503 5.15672L10.8433 4.44968Z" fill="black"/>
<path d="M15 7.5H12.5V8.5H15V7.5Z" fill="black"/>
<path d="M3.40383 2.69677L2.69679 3.40381L12.5962 13.3032L13.3032 12.5962L3.40383 2.69677Z" fill="black"/>
<path d="M8.5 12.5H7.5V15H8.5V12.5Z" fill="black"/>
<path d="M2.69679 12.5962L4.4497 10.8433L5.15674 11.5503L3.40382 13.3032L2.69679 12.5962Z" fill="black"/>
<path d="M3.5 7.5H1V8.5H3.5V7.5Z" fill="black"/>
<path d="M10.7076 9.29342C10.895 8.90178 11 8.46315 11 8C11 6.34315 9.65685 5 8 5C7.53685 5 7.09822 5.10495 6.70658 5.29237L7.48196 6.06774C7.64718 6.02356 7.82084 6 8 6C9.10457 6 10 6.89543 10 8C10 8.17916 9.97644 8.35282 9.93226 8.51804L10.7076 9.29342Z" fill="black"/>
<path d="M6.06774 7.48196C6.02356 7.64718 6 7.82084 6 8C6 9.10457 6.89543 10 8 10C8.17916 10 8.35282 9.97644 8.51804 9.93226L9.29342 10.7076C8.90178 10.895 8.46315 11 8 11C6.34315 11 5 9.65685 5 8C5 7.53685 5.10495 7.09822 5.29237 6.70658L6.06774 7.48196Z" fill="black"/>
</svg>
