<svg width="16" height="16" viewBox="0 0 16 16" fill="none" xmlns="http://www.w3.org/2000/svg">
<path fill-rule="evenodd" clip-rule="evenodd" d="M4 2L4 14H12V2L4 2ZM3 2V14C3 14.5523 3.44772 15 4 15H12C12.5523 15 13 14.5523 13 14V2C13 1.44772 12.5523 1 12 1H4C3.44772 1 3 1.44772 3 2Z" fill="black"/>
<path fill-rule="evenodd" clip-rule="evenodd" d="M5 4C5 3.44772 5.44772 3 6 3H10C10.5523 3 11 3.44772 11 4V9C11 9.55228 10.5523 10 10 10H6C5.44772 10 5 9.55228 5 9V4ZM9 4H10V9H6V4H7V5H9V4Z" fill="black"/>
<path d="M5 12C5 11.4477 5.44772 11 6 11H10C10.5523 11 11 11.4477 11 12C11 12.5523 10.5523 13 10 13H6C5.44772 13 5 12.5523 5 12Z" fill="black"/>
</svg>
