<svg width="16" height="16" viewBox="0 0 16 16" fill="none" xmlns="http://www.w3.org/2000/svg">
<path d="M15.5825 0.707092L14.8754 0L0 14.8754L0.707108 15.5825L1.85112 14.4385H6.43768V9.8519L15.5825 0.707092Z" fill="black"/>
<path d="M0.437683 8.43848H5.02316L0.437683 13.024V8.43848Z" fill="black"/>
<path fill-rule="evenodd" clip-rule="evenodd" d="M0.437683 1.43848C0.437683 0.8862 0.885391 0.438477 1.43768 0.438477H6.43768V6.43848H0.437683V1.43848ZM1.43768 1.43848H5.43768V5.43848H1.43768V1.43848Z" fill="black"/>
<path fill-rule="evenodd" clip-rule="evenodd" d="M14.4377 13.4385C14.4377 13.9908 13.99 14.4385 13.4377 14.4385H8.43768V8.43848H14.4377V13.4385ZM13.4377 13.4385H9.43768V9.43848H13.4377V13.4385Z" fill="black"/>
<path d="M8.43768 0.438477H9.73062L8.43768 1.73138V0.438477Z" fill="black"/>
<path d="M8.43768 3.14563V4.73138L12.7306 0.438477H11.1448L8.43768 3.14563Z" fill="black"/>
<path d="M12.7306 6.43848H11.1448L14.4377 3.14563V4.73138L12.7306 6.43848Z" fill="black"/>
</svg>
