<svg width="16" height="16" viewBox="0 0 16 16" fill="none" xmlns="http://www.w3.org/2000/svg">
<path fill-rule="evenodd" clip-rule="evenodd" d="M8.46424 1.81445L8.48787 1.87354C9.16229 3.55958 9.14334 5.44378 8.43514 7.11592C7.85754 8.4797 7.81536 10.0111 8.31702 11.4046L8.47044 11.8308L7.52956 12.1695L7.37614 11.7433C6.78924 10.1131 6.83858 8.32143 7.51432 6.72592C8.11966 5.29665 8.13586 3.6861 7.5594 2.24494L7.53576 2.18584L8.46424 1.81445Z" fill="black"/>
<path fill-rule="evenodd" clip-rule="evenodd" d="M4.47044 1.83079L4.64503 2.31576C5.21841 3.90847 5.15062 5.66165 4.45596 7.20533C3.86773 8.51252 3.81032 9.99711 4.29585 11.3458L4.47044 11.8308L3.52956 12.1695L3.35497 11.6845C2.78159 10.0918 2.84938 8.33865 3.54404 6.79497C4.13227 5.48778 4.18968 4.00319 3.70415 2.65448L3.52956 2.16951L4.47044 1.83079Z" fill="black"/>
<path fill-rule="evenodd" clip-rule="evenodd" d="M12.4704 1.83079L12.645 2.31576C13.2184 3.90847 13.1506 5.66165 12.456 7.20533C11.8677 8.51252 11.8103 9.99711 12.2959 11.3458L12.4704 11.8308L11.5296 12.1695L11.355 11.6845C10.7816 10.0918 10.8494 8.33865 11.544 6.79497C12.1323 5.48778 12.1897 4.00319 11.7041 2.65448L11.5296 2.16951L12.4704 1.83079Z" fill="black"/>
<path d="M1 14.0001H15V15.0001H1V14.0001Z" fill="black"/>
</svg>
