<svg width="16" height="16" viewBox="0 0 16 16" fill="none" xmlns="http://www.w3.org/2000/svg">
<path d="M11.5 8L8.5 6V2H14.5V6L11.5 8Z" fill="black"/>
<path fill-rule="evenodd" clip-rule="evenodd" d="M1.50001 6V2H7.5V6L4.5 8L1.50001 6ZM4.5 6.79815L6.5 5.46482V3H2.50001V5.46482L4.5 6.79815Z" fill="black"/>
<path d="M9 12C10.6569 12 12 10.6569 12 9H11C11 10.1046 10.1046 11 9 11H3C2.17157 11 1.5 11.6716 1.5 12.5C1.5 13.3284 2.17157 14 3 14H14V13H3C2.72386 13 2.5 12.7761 2.5 12.5C2.5 12.2239 2.72386 12 3 12H9Z" fill="black"/>
</svg>
