<svg width="16" height="16" viewBox="0 0 16 16" fill="none" xmlns="http://www.w3.org/2000/svg">
<path fill-rule="evenodd" clip-rule="evenodd" d="M14 3C14 2.44772 13.5523 2 13 2H3C2.44772 2 2 2.44771 2 3V13C2 13.5523 2.44772 14 3 14H13C13.5523 14 14 13.5523 14 13L14 3ZM13 3L3 3L3 13H13L13 3Z" fill="black"/>
<path d="M8 11H9V12H8V11Z" fill="black"/>
<path d="M9 9H10V10H9V9Z" fill="black"/>
<path d="M4 7H5V8H4V7Z" fill="black"/>
<path d="M11 9H12V10H11V9Z" fill="black"/>
<path d="M6 11H7V12H6V11Z" fill="black"/>
<path d="M4 11H5V12H4V11Z" fill="black"/>
<path d="M7 9H8V10H7V9Z" fill="black"/>
<path d="M6 7H7V8H6V7Z" fill="black"/>
<path d="M10 11H11V12H10V11Z" fill="black"/>
<path d="M9 5H10V6H9V5Z" fill="black"/>
<path d="M8 7H9V8H8V7Z" fill="black"/>
<path d="M10 7H11V8H10V7Z" fill="black"/>
<path d="M5 5H6V6H5V5Z" fill="black"/>
<path d="M7 5H8V6H7V5Z" fill="black"/>
<path d="M5 9H6V10H5V9Z" fill="black"/>
<path d="M11 5H12V6H11V5Z" fill="black"/>
</svg>
