<svg width="16" height="16" viewBox="0 0 16 16" fill="none" xmlns="http://www.w3.org/2000/svg">
<path d="M8 15L3.78225 10.0257C3.7583 9.9971 3.60815 9.7999 3.60815 9.7999C2.8876 8.85084 2.49831 7.6916 2.5 6.5C2.5 5.04131 3.07946 3.64236 4.11091 2.61091C5.14236 1.57946 6.54131 1 8 1C9.45869 1 10.8576 1.57946 11.8891 2.61091C12.9205 3.64236 13.5 5.04131 13.5 6.5C13.5018 7.69111 13.1128 8.84991 12.3926 9.79865L12.3918 9.7999C12.3918 9.7999 12.2418 9.9971 12.2195 10.0236L8 15ZM4.40625 9.1975C4.40625 9.1975 4.52295 9.3516 4.54955 9.3847L8 13.4539L11.455 9.37895C11.4769 9.35135 11.5944 9.1961 11.5944 9.1961C12.183 8.42064 12.5011 7.47356 12.5 6.5C12.5 5.30653 12.0259 4.16193 11.182 3.31802C10.3381 2.47411 9.19347 2 8 2C6.80652 2 5.66193 2.47411 4.81802 3.31802C3.9741 4.16193 3.5 5.30653 3.5 6.5C3.49889 7.47409 3.81724 8.42167 4.40625 9.1975Z" fill="black"/>
<path d="M7 4H6V9H7V4Z" fill="black"/>
<path fill-rule="evenodd" clip-rule="evenodd" d="M10 4C10.5523 4 11 4.44772 11 5V6C11 6.55228 10.5523 7 10 7H9V9H8V4H10ZM9 5V6H10V5H9Z" fill="black"/>
</svg>
