<svg width="16" height="16" viewBox="0 0 16 16" fill="none" xmlns="http://www.w3.org/2000/svg">
<path d="M14 5.62109L5.62109 14H4.20703L14 4.20703V5.62109ZM14 8.44922L8.44922 14H7.03516L14 7.03516V8.44922ZM14 11.2773L11.2783 14H9.86328L14 9.86328V11.2773ZM14 13C14 13.5523 13.5523 14 13 14H12.6924L14 12.6924V13ZM13.3223 2.05371C13.6582 2.16809 13.9134 2.45576 13.9814 2.81055L2.81055 13.9814C2.45576 13.9134 2.16809 13.6582 2.05371 13.3223L13.3223 2.05371ZM2 11.9629V10.5488L10.5488 2H11.9629L2 11.9629ZM2 9.13477V7.7207L7.7207 2H9.13477L2 9.13477ZM2 6.30664V4.89258L4.89258 2H6.30664L2 6.30664ZM2 3.57617V3C2 2.44772 2.44772 2 3 2H3.57715L2 3.57617Z" fill="black"/>
</svg>
