<svg width="16" height="16" viewBox="0 0 16 16" fill="none" xmlns="http://www.w3.org/2000/svg">
<path d="M14 5H11V2C11 1.73478 10.8946 1.48043 10.7071 1.29289C10.5196 1.10536 10.2652 1 10 1H2C1.73478 1 1.48043 1.10536 1.29289 1.29289C1.10536 1.48043 1 1.73478 1 2V10C1 10.2652 1.10536 10.5196 1.29289 10.7071C1.48043 10.8946 1.73478 11 2 11H5V14C5.0003 14.2651 5.10576 14.5193 5.29323 14.7068C5.4807 14.8942 5.73488 14.9997 6 15H14C14.2651 14.9997 14.5193 14.8942 14.7068 14.7068C14.8942 14.5193 14.9997 14.2651 15 14V6C14.9997 5.73488 14.8942 5.4807 14.7068 5.29323C14.5193 5.10576 14.2651 5.0003 14 5ZM6 14V6H14L14.0007 14H6Z" fill="black"/>
</svg>
