<svg width="16" height="16" viewBox="0 0 16 16" fill="none" xmlns="http://www.w3.org/2000/svg">
<path fill-rule="evenodd" clip-rule="evenodd" d="M5 11H2V3C2 2.44772 2.44772 2 3 2H11V5L14 5L14 13C14 13.5523 13.5523 14 13 14L5 14L5 11ZM3 3H10V5L5 5L5 10H3V3ZM11 6L13 6L13 13L6 13V11H11V6ZM10 6V10H6L6 6L10 6Z" fill="black"/>
<path d="M8.8975 6.3975L8 7.295L7.1025 6.3975L6.3975 7.1025L7.295 8L6.3975 8.8975L7.1025 9.6025L8 8.705L8.8975 9.6025L9.6025 8.8975L8.705 8L9.6025 7.1025L8.8975 6.3975Z" fill="black"/>
</svg>
