<svg width="16" height="16" viewBox="0 0 16 16" fill="none" xmlns="http://www.w3.org/2000/svg">
<path d="M2.05115 10.2559H3.07947C3.27538 10.2559 3.43396 10.4144 3.43396 10.6104V11.8652C3.43371 12.0609 3.27523 12.2197 3.07947 12.2197H2.05115C1.85549 12.2196 1.6969 12.0609 1.69666 11.8652V10.6104C1.69666 10.4145 1.85534 10.256 2.05115 10.2559ZM7.10583 10.1865C7.23902 10.2303 7.38084 10.2559 7.52869 10.2559H8.55408C8.70134 10.2559 8.84315 10.2309 8.97595 10.1875C8.93297 10.3193 8.90955 10.4603 8.90955 10.6064V11.8604C8.90955 12.0565 8.75022 12.2148 8.55408 12.2148H7.52869C7.33255 12.2148 7.17419 12.0565 7.17419 11.8604V10.6084C7.17419 10.461 7.14931 10.3193 7.10583 10.1865ZM12.5765 10.1865C12.7097 10.2303 12.8515 10.2559 12.9994 10.2559H14.0521C14.2356 10.2696 14.3802 10.4214 14.3802 10.6084V11.8604C14.3802 12.0565 14.2209 12.2148 14.0248 12.2148H12.9994C12.8033 12.2148 12.6449 12.0565 12.6449 11.8604V10.6084C12.6449 10.461 12.62 10.3193 12.5765 10.1865ZM10.264 3.87207H11.2894C11.4856 3.87207 11.6449 4.0314 11.6449 4.22754V8.90039C11.6449 9.04723 11.6681 9.18889 11.7113 9.32129C11.5786 9.27786 11.4367 9.25293 11.2894 9.25293H10.264C10.1163 9.25293 9.97432 9.2776 9.84119 9.32129C9.88418 9.18951 9.9095 9.0494 9.90955 8.90332V4.22754C9.90955 4.0314 10.0679 3.87207 10.264 3.87207ZM4.79333 3.87012H5.81873C6.01476 3.87012 6.17402 4.02862 6.17419 4.22461V8.90039C6.17419 9.04724 6.19742 9.18888 6.2406 9.32129C6.10784 9.27785 5.96604 9.25293 5.81873 9.25293H4.79333C4.5972 9.25293 4.43884 9.09458 4.43884 8.89844V4.22461C4.43901 4.02862 4.5973 3.87012 4.79333 3.87012Z" stroke="black"/>
</svg>
