<svg width="16" height="16" viewBox="0 0 16 16" fill="none" xmlns="http://www.w3.org/2000/svg">
<path fill-rule="evenodd" clip-rule="evenodd" d="M15 11H13.95C13.9 10.7 13.75 10.4 13.6 10.1L14.35 9.35L13.65 8.65L12.9 9.4C12.65 9.25 12.35 9.1 12 9.05V8H11V9.05C10.7 9.1 10.4 9.25 10.1 9.4L9.35 8.65L8.65 9.35L9.4 10.1C9.25 10.35 9.1 10.65 9.05 11H8V12H9.05C9.1 12.3 9.25 12.6 9.4 12.9L8.65 13.65L9.35 14.35L10.1 13.6C10.35 13.75 10.65 13.9 11 13.95V15H12V13.95C12.3 13.9 12.6 13.75 12.9 13.6L13.65 14.35L14.35 13.65L13.6 12.9C13.75 12.65 13.9 12.35 13.95 12H15V11ZM11.5 13C10.65 13 10 12.35 10 11.5C10 10.65 10.65 10 11.5 10C12.35 10 13 10.65 13 11.5C13 12.35 12.35 13 11.5 13Z" fill="black"/>
<path d="M9 2.09082C10.226 2.30007 11.3569 2.88424 12.2363 3.76367C13.1158 4.6431 13.6999 5.77403 13.9092 7H15V8H13C13 7.01109 12.7066 6.04393 12.1572 5.22168C11.6078 4.39962 10.8266 3.75924 9.91309 3.38086C8.99951 3.00249 7.99425 2.90279 7.02441 3.0957C6.05453 3.28864 5.16409 3.7656 4.46484 4.46484C3.7656 5.16409 3.28864 6.05453 3.0957 7.02441C2.90279 7.99425 3.00249 8.99951 3.38086 9.91309C3.75924 10.8266 4.39962 11.6078 5.22168 12.1572C6.04393 12.7066 7.01109 13 8 13V15H7V13.9092C5.77403 13.6999 4.6431 13.1158 3.76367 12.2363C2.88424 11.3569 2.30007 10.226 2.09082 9H1V7H2.09082C2.30007 5.77403 2.88424 4.6431 3.76367 3.76367C4.6431 2.88424 5.77403 2.30007 7 2.09082V1H9V2.09082ZM7.21973 4.07715C7.99553 3.92284 8.79946 4.00205 9.53027 4.30469C10.2611 4.60742 10.8867 5.11961 11.3262 5.77734C11.5771 6.15293 11.7583 6.56727 11.8701 7H10.8232C10.6752 6.583 10.439 6.19873 10.1201 5.87988C9.5577 5.31747 8.79538 5.00089 8 5C7.40666 5 6.82635 5.17622 6.33301 5.50586C5.83993 5.83542 5.45555 6.30367 5.22852 6.85156C5.00149 7.39965 4.94194 8.00311 5.05762 8.58496C5.17337 9.1669 5.45935 9.70154 5.87891 10.1211C6.19645 10.4386 6.58003 10.6786 7 10.8271V11.8701C6.56727 11.7583 6.15293 11.5771 5.77734 11.3262C5.11961 10.8867 4.60742 10.2611 4.30469 9.53027C4.00205 8.79946 3.92284 7.99553 4.07715 7.21973C4.23149 6.4438 4.61246 5.73129 5.17188 5.17188C5.73129 4.61246 6.4438 4.23149 7.21973 4.07715Z" fill="black"/>
</svg>
