<svg width="16" height="16" viewBox="0 0 16 16" fill="none" xmlns="http://www.w3.org/2000/svg">
<path d="M3.07937 9.75586H2.05146C1.57937 9.75586 1.19666 10.1386 1.19666 10.6107V11.8651C1.19666 12.3372 1.57937 12.7199 2.05146 12.7199H3.07937C3.55147 12.7199 3.93418 12.3372 3.93418 11.8651V10.6107C3.93418 10.1386 3.55147 9.75586 3.07937 9.75586Z" fill="black"/>
<path d="M14.0252 9.75554H12.9994C12.5272 9.75554 12.1446 9.37301 12.1446 8.90073V4.22706C12.1446 3.75478 11.7621 3.37225 11.2898 3.37225H10.2641C9.79178 3.37225 9.40925 3.75478 9.40925 4.22706V8.90287C9.40925 9.37301 9.02673 9.75554 8.55444 9.75554H7.52867C7.05639 9.75554 6.67386 9.37301 6.67386 8.90073V4.22493C6.67386 3.75264 6.29134 3.37012 5.81906 3.37012H4.79329C4.321 3.37012 3.93848 3.75264 3.93848 4.22493V8.89859C3.93848 9.37087 4.321 9.7534 4.79329 9.7534H5.81906C6.29134 9.7534 6.67386 10.1359 6.67386 10.6082V11.8605C6.67386 12.3328 7.05639 12.7153 7.52867 12.7153H8.55444C9.02673 12.7153 9.40925 12.3328 9.40925 11.8605V10.6061C9.40925 10.1359 9.79178 9.7534 10.2641 9.7534H11.2898C11.7621 9.7534 12.1446 10.1359 12.1446 10.6082V11.8605C12.1446 12.3328 12.5272 12.7153 12.9994 12.7153H14.0252C14.4975 12.7153 14.88 12.3328 14.88 11.8605V10.6082C14.88 10.1359 14.4975 9.7534 14.0252 9.7534V9.75554Z" fill="black"/>
</svg>
