<svg width="16" height="16" viewBox="0 0 16 16" fill="none" xmlns="http://www.w3.org/2000/svg">
<path fill-rule="evenodd" clip-rule="evenodd" d="M2 3V13C2 13.5523 2.44772 14 3 14H13C13.5523 14 14 13.5523 14 13V3C14 2.44772 13.5523 2 13 2H3C2.44772 2 2 2.44772 2 3ZM3 12.293V3.70714L7.29292 8.00006L3 12.293ZM3.70719 13H12.2929L8.00003 8.70716L3.70719 13ZM8.70713 8.00006L13 12.2929V3.70719L8.70713 8.00006ZM12.293 3L8.70704 3L10.5 4.79297L12.293 3ZM7.29298 3L3.70708 3L5.50003 4.79295L7.29298 3ZM6.20713 5.50006L8.00003 7.29295L9.7929 5.50008L8.00001 3.70718L6.20713 5.50006Z" fill="black"/>
</svg>
