<svg width="16" height="16" viewBox="0 0 16 16" fill="none" xmlns="http://www.w3.org/2000/svg">
<path d="M10.2837 13.2837C9.63618 13.7348 8.84898 13.9993 8 13.9993C7.15103 13.9993 6.36383 13.7348 5.7163 13.2837L5.00022 13.9998C5.83584 14.6274 6.87449 14.9993 8 14.9993C9.12551 14.9993 10.1642 14.6274 10.9998 13.9998L10.2837 13.2837Z" fill="#989898"/>
<path d="M12.9332 10.8187C12.9771 10.552 13 10.2783 13 9.99926C13 7.78437 11.5599 5.90585 9.56488 5.24903L9.50001 5.3139V6.29002C10.9322 6.86976 11.9522 8.25492 11.9984 9.88383L12.9332 10.8187Z" fill="#989898"/>
<path d="M4.00164 9.88384L3.06682 10.8187C3.02286 10.552 3 10.2783 3 9.99926C3 7.78437 4.44016 5.90585 6.43513 5.24902L6.50001 5.3139V6.29002C5.0678 6.86976 4.04779 8.25492 4.00164 9.88384Z" fill="#989898"/>
<path d="M9.5 10.2L10.2 9.5L14 13.3V12H15V15H12V14H13.3L9.5 10.2Z" fill="#989898"/>
<path d="M6.5 10.2L5.8 9.5L2 13.3L2 12H1L1 15H4V14H2.7L6.5 10.2Z" fill="#989898"/>
<path d="M8.5 8H7.5V2.9L6.5 3.9L5.8 3.2L8 1L10.2 3.2L9.5 3.9L8.5 2.9V8Z" fill="#989898"/>
</svg>
