<svg width="16" height="16" viewBox="0 0 16 16" fill="none" xmlns="http://www.w3.org/2000/svg">
<path d="M14 14V15H6V14H14ZM14 6H10V2H2V11C1.76791 11 1.54417 10.9193 1.36621 10.7734L1.29297 10.707C1.10543 10.5195 1 10.2652 1 10V2C1 1.76791 1.08073 1.54417 1.22656 1.36621L1.29297 1.29297C1.48051 1.10543 1.73478 1 2 1H10C10.2652 1 10.5195 1.10543 10.707 1.29297C10.8946 1.48051 11 1.73478 11 2V5H14C14.2652 5 14.5195 5.10543 14.707 5.29297C14.8946 5.4805 15 5.73478 15 6V14C15 14.2652 14.8946 14.5195 14.707 14.707L14.6338 14.7734C14.4558 14.9193 14.2321 15 14 15V6ZM5 14V11H2V10H6V15C5.76791 15 5.54417 14.9193 5.36621 14.7734L5.29297 14.707C5.10543 14.5195 5 14.2652 5 14Z" fill="black"/>
</svg>
