<svg width="16" height="16" viewBox="0 0 16 16" fill="none" xmlns="http://www.w3.org/2000/svg">
<path fill-rule="evenodd" clip-rule="evenodd" d="M7.74806 0.568111C7.90375 0.477296 8.09625 0.477296 8.25194 0.568111L9.18383 1.11171L8.67995 1.97549L8 1.57885L7.32005 1.97549L6.81618 1.11171L7.74806 0.568111ZM6.18383 2.63829L4.32005 3.72549L3.81618 2.86171L5.67995 1.77451L6.18383 2.63829ZM10.32 1.77451L12.1838 2.86171L11.68 3.72549L9.81618 2.63829L10.32 1.77451ZM2.99232 4.5L3.18382 4.38829L2.67995 3.52451L1.74806 4.06811C1.59446 4.15772 1.5 4.32217 1.5 4.5V5.58333H2.5V5.37052L2.67995 5.47549L3.18382 4.61171L2.99232 4.5ZM13.32 3.52451L14.2519 4.06811C14.4055 4.15772 14.5 4.32217 14.5 4.5V5.58333H13.5V5.37052L13.32 5.47549L12.8162 4.61171L13.0077 4.5L12.8162 4.38829L13.32 3.52451ZM4.32005 5.27451L6.18383 6.36171L5.67995 7.22549L3.81618 6.13829L4.32005 5.27451ZM12.1838 6.13829L10.32 7.22549L9.81618 6.36171L11.68 5.27451L12.1838 6.13829ZM14.5 6.91667V9.08333H13.5V6.91667H14.5ZM2.5 6.91667V9.08333H1.5V6.91667H2.5ZM9.18383 7.88829L8.5 8.28719V9.08333H7.5V8.28719L6.81618 7.88829L7.32005 7.02451L8 7.42115L8.67995 7.02451L9.18383 7.88829ZM14.5 10.4167V11.5C14.5 11.6778 14.4055 11.8423 14.2519 11.9319L13.32 12.4755L12.8162 11.6117L13.5 11.2128V10.4167H14.5ZM2.5 10.4167V11.2128L3.18382 11.6117L2.67995 12.4755L1.74806 11.9319C1.59446 11.8423 1.5 11.6778 1.5 11.5V10.4167H2.5ZM8.5 10.4167V12.5833H7.5V10.4167H8.5ZM12.1838 13.1383L10.32 14.2255L9.81618 13.3617L11.68 12.2745L12.1838 13.1383ZM4.32005 12.2745L6.18383 13.3617L5.67995 14.2255L3.81618 13.1383L4.32005 12.2745ZM8.5 14.1295L8.67995 14.0245L9.18383 14.8883L8.25194 15.4319C8.09625 15.5227 7.90375 15.5227 7.74806 15.4319L6.81618 14.8883L7.32005 14.0245L7.5 14.1295V13.9167H8.5V14.1295Z" fill="black"/>
</svg>
