<svg width="16" height="16" viewBox="0 0 16 16" fill="none" xmlns="http://www.w3.org/2000/svg">
<path fill-rule="evenodd" clip-rule="evenodd" d="M2 13V3C2 2.44772 2.44772 2 3 2H13C13.5523 2 14 2.44772 14 3V13C14 13.5523 13.5523 14 13 14H3C2.44772 14 2 13.5523 2 13ZM3 3.70717V7.29291L4.79287 5.50004L3 3.70717ZM3 8.70712V12.2929L4.79289 10.5L3 8.70712ZM5.5 9.79291L3.70711 8.00001L5.49998 6.20714L7.29287 8.00004L5.5 9.79291ZM5.5 11.2071L3.70712 13H7.29288L5.5 11.2071ZM8 12.2929L6.20711 10.5L7.99998 8.70715L9.79287 10.5L8 12.2929ZM7.99998 7.29293L6.20708 5.50004L8 3.70712L9.79289 5.50001L7.99998 7.29293ZM10.5 6.20712L8.70708 8.00004L10.5 9.79293L12.2929 8.00001L10.5 6.20712ZM13 7.29291V3.70712L11.2071 5.50001L13 7.29291ZM13 8.70712L11.2071 10.5L13 12.293V8.70712ZM10.5 4.79291L8.70711 3.00001L12.2929 3L10.5 4.79291ZM7.29288 3L3.70705 3L5.49998 4.79293L7.29288 3ZM10.5 11.2071L8.70712 13H12.2928L10.5 11.2071Z" fill="black"/>
</svg>
