<svg width="16" height="16" viewBox="0 0 16 16" fill="none" xmlns="http://www.w3.org/2000/svg">
<path fill-rule="evenodd" clip-rule="evenodd" d="M2 2.5C2 2.22386 2.22386 2 2.5 2H13.5C13.7761 2 14 2.22386 14 2.5V13.5C14 13.7761 13.7761 14 13.5 14H2.5C2.22386 14 2 13.7761 2 13.5V2.5ZM3 3V13H13V3H3Z" fill="black"/>
<path fill-rule="evenodd" clip-rule="evenodd" d="M8 8.70711L5.35355 11.3536L4.64645 10.6464L7.29289 8L4.64645 5.35355L5.35355 4.64645L8 7.29289L10.6464 4.64645L11.3536 5.35355L8.70711 8L11.3536 10.6464L10.6464 11.3536L8 8.70711Z" fill="black"/>
</svg>
