<svg width="16" height="16" viewBox="0 0 16 16" fill="none" xmlns="http://www.w3.org/2000/svg">
<path d="M7 12.5H3V8.5C3 8.23478 3.10536 7.98043 3.29289 7.79289C3.48043 7.60536 3.73478 7.5 4 7.5H6V4.5H3V3.5H6C6.26522 3.5 6.51957 3.60536 6.70711 3.79289C6.89464 3.98043 7 4.23478 7 4.5V7.5C7 7.76522 6.89464 8.01957 6.70711 8.20711C6.51957 8.39464 6.26522 8.5 6 8.5H4V11.5H7V12.5Z" fill="black"/>
<path d="M11 12.5H8V3.5L11 3.5C11.5304 3.5 12.0391 3.71071 12.4142 4.08579C12.7893 4.46086 13 4.96957 13 5.5V10.5C13 11.0304 12.7893 11.5391 12.4142 11.9142C12.0391 12.2893 11.5304 12.5 11 12.5ZM9 11.5H11C11.2652 11.5 11.5196 11.3946 11.7071 11.2071C11.8946 11.0196 12 10.7652 12 10.5V5.5C12 5.23478 11.8946 4.98043 11.7071 4.79289C11.5196 4.60536 11.2652 4.5 11 4.5H9V11.5Z" fill="black"/>
</svg>
