<svg width="16" height="16" viewBox="0 0 16 16" fill="none" xmlns="http://www.w3.org/2000/svg">
<path d="M14.293 11.793L15 12.5L12.5002 14.9998L10 12.5L10.707 11.793L12 13.086V9H13V13.086L14.293 11.793Z" fill="black"/>
<path fill-rule="evenodd" clip-rule="evenodd" d="M5.41421 2C5.28161 2 5.15443 2.05268 5.06066 2.14645L4.14645 3.06066C4.05268 3.15443 4 3.28161 4 3.41421V12.5858C4 12.7184 4.05268 12.8456 4.14645 12.9393L5.06066 13.8536C5.15443 13.9473 5.28161 14 5.41421 14H10V15H5.41421C5.01639 15 4.63486 14.842 4.35355 14.5607L3.43934 13.6464C3.15804 13.3651 3 12.9836 3 12.5858V3.41421C3 3.01639 3.15804 2.63486 3.43934 2.35355L4.35355 1.43934C4.63486 1.15804 5.01639 1 5.41421 1H10.5858C10.9836 1 11.3651 1.15804 11.6464 1.43934L12.5607 2.35355C12.842 2.63486 13 3.01639 13 3.41421V7H12V3.41421C12 3.28161 11.9473 3.15443 11.8536 3.06066L10.9393 2.14645C10.8456 2.05268 10.7184 2 10.5858 2H5.41421Z" fill="black"/>
<path fill-rule="evenodd" clip-rule="evenodd" d="M11 5C11 4.44772 10.5523 4 10 4H6C5.44772 4 5 4.44772 5 5V9C5 9.55228 5.44772 10 6 10H10C10.5523 10 11 9.55228 11 9V5ZM6 9V5H7V6H9V5H10V9H6Z" fill="black"/>
</svg>
