<svg width="16" height="16" viewBox="0 0 16 16" fill="none" xmlns="http://www.w3.org/2000/svg">
<path fill-rule="evenodd" clip-rule="evenodd" d="M3 6H3.5V7.30902L7.5 9.30902V9.5C7.5 9.77614 7.27614 10 7 10H3.5C2.67157 10 2 10.6716 2 11.5C2 12.3284 2.67157 13 3.5 13H9.03544C9.01209 12.8367 9 12.6698 9 12.5C9 12.3302 9.01209 12.1633 9.03544 12H3.5C3.22386 12 3 11.7761 3 11.5C3 11.2239 3.22386 11 3.5 11H7C7.82843 11 8.5 10.3284 8.5 9.5V9.29016L10 8.43302V7.28127L7.98427 8.43312L4.5 6.69098V6H10.4998C10.9559 5.39278 11.6821 5 12.5 5C13.02 5 13.5029 5.15875 13.9029 5.43042C13.9651 5.30006 14 5.1541 14 5V2C14 1.44772 13.5523 1 13 1H3C2.44772 1 2 1.44772 2 2V5C2 5.55228 2.44772 6 3 6ZM13 5H12.5H3V2H13V5Z" fill="black"/>
<path d="M9.33682 14C9.51486 14.3748 9.75757 14.7129 10.0505 15H2V14H9.33682Z" fill="black"/>
<path d="M12.5004 15C11.9762 15.0015 11.4648 14.8378 11.039 14.532C10.6132 14.2263 10.2946 13.7941 10.1285 13.2968C9.96236 12.7996 9.95721 12.2627 10.1137 11.7624C10.2703 11.2621 10.5805 10.8239 11.0004 10.51V7.5C11.0004 7.10218 11.1584 6.72064 11.4397 6.43934C11.721 6.15804 12.1026 6 12.5004 6C12.8982 6 13.2797 6.15804 13.561 6.43934C13.8424 6.72064 14.0004 7.10218 14.0004 7.5V10.51C14.4203 10.8239 14.7305 11.2621 14.887 11.7624C15.0436 12.2627 15.0384 12.7996 14.8723 13.2968C14.7062 13.7941 14.3876 14.2263 13.9618 14.532C13.536 14.8378 13.0246 15.0015 12.5004 15ZM12.5004 7C12.3678 7.00015 12.2407 7.05287 12.147 7.14661C12.0533 7.24034 12.0005 7.36744 12.0004 7.5V11.065L11.7518 11.2097C11.5237 11.3391 11.334 11.5267 11.202 11.7534C11.07 11.9801 11.0004 12.2377 11.0004 12.5C11.0004 12.8978 11.1584 13.2794 11.4397 13.5607C11.721 13.842 12.1026 14 12.5004 14C12.8982 14 13.2797 13.842 13.561 13.5607C13.8424 13.2794 14.0004 12.8978 14.0004 12.5C14.0004 12.2377 13.9309 11.98 13.7989 11.7533C13.6668 11.5266 13.4771 11.3389 13.2489 11.2094L13.0004 11.065V7.5C13.0002 7.36744 12.9475 7.24034 12.8538 7.14661C12.76 7.05287 12.6329 7.00015 12.5004 7Z" fill="black"/>
</svg>
