<svg width="16" height="16" viewBox="0 0 16 16" fill="none" xmlns="http://www.w3.org/2000/svg">
<path fill-rule="evenodd" clip-rule="evenodd" d="M2 5.41421V10.5858L4.58579 8L2 5.41421ZM1 10.5858V5.41421C1 4.52331 2.07714 4.07714 2.70711 4.70711L5.29289 7.29289C5.68342 7.68342 5.68342 8.31658 5.29289 8.70711L2.70711 11.2929C2.07714 11.9229 1 11.4767 1 10.5858Z" fill="black"/>
<path d="M15 5.41421V10.5858C15 11.4767 13.9229 11.9229 13.2929 11.2929L10.7071 8.70711C10.3166 8.31658 10.3166 7.68342 10.7071 7.29289L13.2929 4.70711C13.9229 4.07714 15 4.52331 15 5.41421Z" fill="black"/>
<path d="M9 8C9 8.55228 8.55228 9 8 9C7.44772 9 7 8.55228 7 8C7 7.44772 7.44772 7 8 7C8.55228 7 9 7.44772 9 8Z" fill="black"/>
<path d="M9 5C9 5.55228 8.55228 6 8 6C7.44772 6 7 5.55228 7 5C7 4.44772 7.44772 4 8 4C8.55228 4 9 4.44772 9 5Z" fill="black"/>
<path d="M9 2C9 2.55228 8.55228 3 8 3C7.44772 3 7 2.55228 7 2C7 1.44772 7.44772 1 8 1C8.55228 1 9 1.44772 9 2Z" fill="black"/>
<path d="M9 11C9 11.5523 8.55228 12 8 12C7.44772 12 7 11.5523 7 11C7 10.4477 7.44772 10 8 10C8.55228 10 9 10.4477 9 11Z" fill="black"/>
<path d="M9 14C9 14.5523 8.55228 15 8 15C7.44772 15 7 14.5523 7 14C7 13.4477 7.44772 13 8 13C8.55228 13 9 13.4477 9 14Z" fill="black"/>
</svg>
