<svg width="16" height="16" viewBox="0 0 16 16" fill="none" xmlns="http://www.w3.org/2000/svg">
<path d="M9.5 10.5H6.5V8.5C6.5 8.23478 6.60536 7.98043 6.79289 7.79289C6.98043 7.60536 7.23478 7.5 7.5 7.5H8.5V6.5H6.5V5.5H8.5C8.76522 5.5 9.01957 5.60536 9.20711 5.79289C9.39464 5.98043 9.5 6.23478 9.5 6.5V7.5C9.5 7.76522 9.39464 8.01957 9.20711 8.20711C9.01957 8.39464 8.76522 8.5 8.5 8.5H7.5V9.5H9.5V10.5Z" fill="black"/>
<path d="M8 1.5C11.5899 1.5 14.5 4.41015 14.5 8C14.5 11.5899 11.5899 14.5 8 14.5C4.41015 14.5 1.5 11.5899 1.5 8C1.5 4.41015 4.41015 1.5 8 1.5Z" stroke="black"/>
</svg>
