<svg width="16" height="16" viewBox="0 0 16 16" fill="none" xmlns="http://www.w3.org/2000/svg">
<path fill-rule="evenodd" clip-rule="evenodd" d="M4 5V11C4 11.5523 4.44772 12 5 12H10C10.5523 12 11 11.5523 11 11V5C11 4.44772 10.5523 4 10 4H5C4.44772 4 4 4.44772 4 5ZM5 5V11H10V5H9V6H8V5H5Z" fill="black"/>
<path fill-rule="evenodd" clip-rule="evenodd" d="M2 3V13C2 13.5523 2.44772 14 3 14H13C13.5523 14 14 13.5523 14 13V3C14 2.44772 13.5523 2 13 2H3C2.44772 2 2 2.44772 2 3ZM3 3V13L13 13V3L3 3Z" fill="black"/>
</svg>
