<svg width="16" height="16" viewBox="0 0 16 16" fill="none" xmlns="http://www.w3.org/2000/svg">
<path d="M15 11.5V10.5H13.955C13.8801 10.0547 13.7049 9.6323 13.4428 9.26465L14.182 8.525L13.475 7.8181L12.7356 8.55735C12.3679 8.29512 11.9454 8.11992 11.5 8.045V7H10.5V8.045C10.0547 8.1199 9.63223 8.29504 9.26455 8.5572L8.525 7.8181L7.818 8.525L8.55735 9.2645C8.29518 9.63221 8.11999 10.0547 8.045 10.5H7V11.5H8.045C8.11997 11.9453 8.29511 12.3677 8.5572 12.7353L7.818 13.475L8.525 14.1819L9.2644 13.4426C9.63211 13.7049 10.0546 13.8801 10.5 13.955V15H11.5V13.955C11.9453 13.8801 12.3678 13.705 12.7354 13.4428L13.475 14.1819L14.182 13.475L13.4426 12.7355C13.7049 12.3678 13.8801 11.9453 13.955 11.5H15ZM11 13C10.6044 13 10.2178 12.8827 9.88886 12.6629C9.55996 12.4432 9.30362 12.1308 9.15224 11.7654C9.00087 11.3999 8.96126 10.9978 9.03843 10.6098C9.1156 10.2219 9.30608 9.86549 9.58579 9.58579C9.86549 9.30608 10.2219 9.1156 10.6098 9.03843C10.9978 8.96126 11.3999 9.00087 11.7654 9.15224C12.1308 9.30362 12.4432 9.55996 12.6629 9.88886C12.8827 10.2178 13 10.6044 13 11C12.9994 11.5303 12.7885 12.0386 12.4136 12.4136C12.0386 12.7885 11.5303 12.9994 11 13Z" fill="black"/>
<path d="M2 2H14V6H13V3H3V13H4.29289L5.29289 12H6V13H5.70711L4.70711 14H2V2Z" fill="black"/>
<path d="M12 6V4H4V10C4 10.5523 4.44772 11 5 11H6V10H5V5H7V6H9V5H11V6H12Z" fill="black"/>
</svg>
