<svg width="16" height="16" viewBox="0 0 16 16" fill="none" xmlns="http://www.w3.org/2000/svg">
<path d="M12.5 5.5L11.795 6.205L13.085 7.5H8.5V2.915L9.795 4.205L10.5 3.5L8 1L5.5 3.5L6.205 4.205L7.5 2.915V7.5H2.915L4.205 6.205L3.5 5.5L1 8L3.5 10.5L4.205 9.795L2.915 8.5H7.5V13.085L6.205 11.795L5.5 12.5L8 15L10.5 12.5L9.795 11.795L8.5 13.085V8.5H13.085L11.795 9.795L12.5 10.5L15 8L12.5 5.5Z" fill="black"/>
<path d="M8 7.5C7.90054 7.5 7.80416 7.52964 7.72266 7.58398L7.64648 7.64648C7.55272 7.74023 7.5 7.86738 7.5 8V9H8.5V8C8.5 7.90054 8.47037 7.80418 8.41602 7.72266L8.35352 7.64648C8.25983 7.55277 8.13262 7.5 8 7.5ZM11.5 13.501C11.4994 13.8983 11.3416 14.2796 11.0605 14.5605C10.7796 14.8416 10.3984 14.9994 10.001 15H5.99902C5.60164 14.9994 5.22043 14.8416 4.93945 14.5605C4.65841 14.2796 4.50056 13.8983 4.5 13.501V10.499L4.50781 10.3516C4.54218 10.0084 4.69342 9.68546 4.93945 9.43945C5.09892 9.27999 5.2914 9.16187 5.5 9.08789V8C5.5 7.337 5.76352 6.70127 6.23242 6.23242C6.70124 5.7636 7.33692 5.5 8 5.5C8.66308 5.5 9.29876 5.7636 9.76758 6.23242C10.2365 6.70127 10.5 7.337 10.5 8V9.08789C10.7086 9.16187 10.9011 9.27999 11.0605 9.43945C11.3416 9.72045 11.4994 10.1017 11.5 10.499V13.501Z" fill="black" stroke="white"/>
</svg>
