<svg width="16" height="16" viewBox="0 0 16 16" fill="none" xmlns="http://www.w3.org/2000/svg">
<path fill-rule="evenodd" clip-rule="evenodd" d="M14.0282 8C14.0282 11.3137 11.3419 14 8.0282 14C4.71449 14 2.0282 11.3137 2.0282 8C2.0282 4.68629 4.71449 2 8.0282 2C11.3419 2 14.0282 4.68629 14.0282 8ZM2.0282 11.6076C3.2531 13.6404 5.48187 15 8.0282 15C11.8942 15 15.0282 11.866 15.0282 8C15.0282 4.13401 11.8942 1 8.0282 1C4.1622 1 1.0282 4.13401 1.0282 8V15H2.0282V11.6076Z" fill="black"/>
<path d="M8.5 9.5V5.5H7.5V6H6.5V7H7.5V9.5H6.5V10.5H9.5V9.5H8.5Z" fill="black"/>
</svg>
