<svg width="16" height="16" viewBox="0 0 16 16" fill="none" xmlns="http://www.w3.org/2000/svg">
<path fill-rule="evenodd" clip-rule="evenodd" d="M10 5H6V9H10V5ZM6 4C5.44772 4 5 4.44772 5 5V9C5 9.55228 5.44772 10 6 10H10C10.5523 10 11 9.55228 11 9V5C11 4.44772 10.5523 4 10 4H6Z" fill="black"/>
<path fill-rule="evenodd" clip-rule="evenodd" d="M5.41421 2C5.28161 2 5.15443 2.05268 5.06066 2.14645L4.14645 3.06066C4.05268 3.15443 4 3.28161 4 3.41421V12.5858C4 12.7184 4.05268 12.8456 4.14645 12.9393L5.06066 13.8536C5.15443 13.9473 5.28161 14 5.41421 14H10.5858C10.7184 14 10.8456 13.9473 10.9393 13.8536L11.8536 12.9393C11.9473 12.8456 12 12.7184 12 12.5858V3.41421C12 3.28161 11.9473 3.15443 11.8536 3.06066L10.9393 2.14645C10.8456 2.05268 10.7184 2 10.5858 2H5.41421ZM4.35355 1.43934C4.63486 1.15804 5.01639 1 5.41421 1H10.5858C10.9836 1 11.3651 1.15804 11.6464 1.43934L12.5607 2.35355C12.842 2.63486 13 3.01639 13 3.41421V12.5858C13 12.9836 12.842 13.3651 12.5607 13.6464L11.6464 14.5607C11.3651 14.842 10.9836 15 10.5858 15H5.41421C5.01639 15 4.63486 14.842 4.35355 14.5607L3.43934 13.6464C3.15804 13.3651 3 12.9836 3 12.5858V3.41421C3 3.01639 3.15804 2.63486 3.43934 2.35355L4.35355 1.43934Z" fill="black"/>
<path d="M7 5H9V6H7V5Z" fill="black"/>
</svg>
