<svg width="16" height="16" viewBox="0 0 16 16" fill="none" xmlns="http://www.w3.org/2000/svg">
<path fill-rule="evenodd" clip-rule="evenodd" d="M8 1C8.27614 1 8.5 1.22386 8.5 1.5V7.71281L14.2519 11.0681C14.4905 11.2073 14.571 11.5134 14.4319 11.7519C14.2927 11.9905 13.9866 12.071 13.7481 11.9319L8 8.57885L2.25193 11.9319C2.01341 12.071 1.70725 11.9905 1.56811 11.7519C1.42897 11.5134 1.50954 11.2073 1.74806 11.0681L7.5 7.71281V1.5C7.5 1.22386 7.72386 1 8 1Z" fill="#A9A9A9"/>
<path fill-rule="evenodd" clip-rule="evenodd" d="M8.25195 0.568119L14.252 4.06812C14.3274 4.11215 14.3901 4.1752 14.4336 4.25099C14.4771 4.32677 14.5 4.41263 14.5 4.50002V11.5C14.5 11.5874 14.4771 11.6733 14.4336 11.7491C14.3901 11.8248 14.3274 11.8879 14.252 11.9319L8.25195 15.4319C8.17548 15.4765 8.08853 15.5 8 15.5C7.91147 15.5 7.82452 15.4765 7.74805 15.4319L1.74805 11.9319C1.67257 11.8879 1.60994 11.8248 1.56642 11.7491C1.5229 11.6733 1.5 11.5874 1.5 11.5V4.50002C1.5 4.41263 1.5229 4.32677 1.56642 4.25099C1.60994 4.1752 1.67257 4.11215 1.74805 4.06812L7.74805 0.568119C7.82452 0.523507 7.91147 0.5 8 0.5C8.08853 0.5 8.17548 0.523507 8.25195 0.568119ZM13.0078 4.50002L8 1.57887L2.9922 4.50002L8 7.42117L13.0078 4.50002ZM7.5 8.28712L2.5 5.37062V11.2129L7.5 14.1294V8.28712Z" fill="black"/>
</svg>
