<svg width="16" height="16" viewBox="0 0 16 16" fill="none" xmlns="http://www.w3.org/2000/svg">
<path fill-rule="evenodd" clip-rule="evenodd" d="M10.2361 7C10.461 6.7485 10.6422 6.46053 10.7716 6.14805C10.9224 5.78407 11 5.39397 11 5C11 4.60603 10.9224 4.21593 10.7716 3.85195C10.6209 3.48797 10.3999 3.15726 10.1213 2.87868C9.84274 2.6001 9.51203 2.37913 9.14805 2.22836C9.09915 2.20811 9.04979 2.18917 9 2.17157C8.67919 2.05815 8.34104 2 8 2V3V5.35425V6C7.76611 6 7.54159 6.04015 7.33297 6.11393C7.26673 6.032 7.1961 5.95346 7.12132 5.87868C7.08191 5.83927 7.04145 5.801 7 5.76393C6.7485 5.53898 6.46053 5.3578 6.14805 5.22836C5.78407 5.0776 5.39397 5 5 5C4.60604 5 4.21593 5.0776 3.85195 5.22836C3.48797 5.37913 3.15726 5.6001 2.87868 5.87868C2.6001 6.15726 2.37913 6.48797 2.22836 6.85195C2.20811 6.90085 2.18917 6.95021 2.17157 7C2.05815 7.32081 2 7.65896 2 8H3H5.35425H6C6 8.23389 6.04015 8.45841 6.11393 8.66703C6.032 8.73327 5.95346 8.8039 5.87868 8.87868C5.83927 8.91809 5.801 8.95855 5.76393 9C5.53898 9.2515 5.35779 9.53947 5.22836 9.85195C5.0776 10.2159 5 10.606 5 11C5 11.394 5.0776 11.7841 5.22836 12.1481C5.37913 12.512 5.6001 12.8427 5.87868 13.1213C6.15726 13.3999 6.48797 13.6209 6.85195 13.7716C6.90085 13.7919 6.95021 13.8108 7 13.8284C7.32081 13.9419 7.65896 14 8 14V13V10.6458V10C8.23389 10 8.45841 9.95985 8.66703 9.88607C8.73327 9.968 8.8039 10.0465 8.87868 10.1213C8.91809 10.1607 8.95855 10.199 9 10.2361C9.2515 10.461 9.53947 10.6422 9.85195 10.7716C10.2159 10.9224 10.606 11 11 11C11.394 11 11.7841 10.9224 12.1481 10.7716C12.512 10.6209 12.8427 10.3999 13.1213 10.1213C13.3999 9.84274 13.6209 9.51203 13.7716 9.14805C13.7919 9.09915 13.8108 9.04979 13.8284 9C13.9419 8.67919 14 8.34104 14 8H13H10.6458H10C10 7.76611 9.95985 7.54159 9.88607 7.33297C9.968 7.26673 10.0465 7.1961 10.1213 7.12132C10.1607 7.08191 10.199 7.04145 10.2361 7ZM9.73244 9C9.66567 9.11542 9.5877 9.22355 9.50002 9.32289C9.52761 9.35418 9.55621 9.38464 9.58579 9.41421C9.7715 9.59993 9.99198 9.74725 10.2346 9.84776C10.4773 9.94827 10.7374 10 11 10C11.2626 10 11.5227 9.94827 11.7654 9.84776C12.008 9.74725 12.2285 9.59993 12.4142 9.41421C12.5381 9.29036 12.6448 9.15104 12.7321 9H9.73244ZM7 9.73244C6.88458 9.66567 6.77645 9.5877 6.67711 9.50002C6.64582 9.52761 6.61536 9.55621 6.58579 9.58579C6.40007 9.7715 6.25275 9.99198 6.15224 10.2346C6.05173 10.4773 6 10.7374 6 11C6 11.2626 6.05173 11.5227 6.15224 11.7654C6.25275 12.008 6.40007 12.2285 6.58579 12.4142C6.70964 12.5381 6.84896 12.6448 7 12.7321V9.73244ZM6.26756 7H3.26795C3.35515 6.84896 3.46193 6.70964 3.58579 6.58579C3.7715 6.40007 3.99198 6.25275 4.23463 6.15224C4.47729 6.05173 4.73736 6 5 6C5.26264 6 5.52272 6.05173 5.76537 6.15224C6.00802 6.25275 6.2285 6.40007 6.41422 6.58579C6.44379 6.61536 6.47239 6.64582 6.49999 6.67711C6.4123 6.77645 6.33433 6.88458 6.26756 7ZM9 6.26756C9.11542 6.33433 9.22355 6.4123 9.32289 6.49998C9.35418 6.47239 9.38464 6.44379 9.41421 6.41421C9.59993 6.2285 9.74725 6.00802 9.84776 5.76537C9.94827 5.52272 10 5.26264 10 5C10 4.73736 9.94827 4.47728 9.84776 4.23463C9.74725 3.99198 9.59993 3.7715 9.41421 3.58579C9.29036 3.46193 9.15104 3.35515 9 3.26795V6.26756ZM9 8C9 8.55228 8.55228 9 8 9C7.44772 9 7 8.55228 7 8C7 7.44772 7.44772 7 8 7C8.55228 7 9 7.44772 9 8Z" fill="black"/>
</svg>
