<svg width="16" height="16" viewBox="0 0 16 16" fill="none" xmlns="http://www.w3.org/2000/svg">
<path fill-rule="evenodd" clip-rule="evenodd" d="M7.3182 5.68166C7.49393 5.8574 7.49393 6.14232 7.3182 6.31806L3.3182 10.3181C3.14246 10.4938 2.85754 10.4938 2.6818 10.3181C2.50606 10.1423 2.50606 9.8574 2.6818 9.68166L6.6818 5.68166C6.85754 5.50593 7.14246 5.50593 7.3182 5.68166Z" fill="black"/>
<path fill-rule="evenodd" clip-rule="evenodd" d="M12.0682 3.9316C12.2439 4.10734 12.2439 4.39226 12.0682 4.568L4.8182 11.818C4.64246 11.9937 4.35754 11.9937 4.1818 11.818C4.00606 11.6423 4.00606 11.3573 4.1818 11.1816L11.4318 3.9316C11.6075 3.75586 11.8925 3.75586 12.0682 3.9316Z" fill="black"/>
<path fill-rule="evenodd" clip-rule="evenodd" d="M13.3182 5.68166C13.4939 5.8574 13.4939 6.14232 13.3182 6.31806L9.8182 9.81806C9.64246 9.99379 9.35754 9.99379 9.1818 9.81806C9.00606 9.64232 9.00606 9.3574 9.1818 9.18166L12.6818 5.68166C12.8575 5.50593 13.1425 5.50593 13.3182 5.68166Z" fill="black"/>
<path fill-rule="evenodd" clip-rule="evenodd" d="M9.94031 1.55968C10.5302 2.14964 10.5302 3.10614 9.94025 3.69608L6.74392 6.89225C6.56818 7.06798 6.28326 7.06798 6.10753 6.89223C5.93179 6.71649 5.9318 6.43157 6.10754 6.25584L9.30387 3.05967C9.54236 2.8212 9.54237 2.43454 9.3039 2.19606C9.06542 1.95757 8.67876 1.95756 8.44028 2.19604L4.81827 5.818C4.64253 5.99374 4.35761 5.99374 4.18187 5.818C4.00614 5.64226 4.00614 5.35734 4.18188 5.1816L7.80389 1.55964C8.39385 0.969689 9.35036 0.969704 9.94031 1.55968Z" fill="black"/>
<path fill-rule="evenodd" clip-rule="evenodd" d="M13.6482 9.8517C14.2382 10.4417 14.2382 11.3982 13.6482 11.9881L12.8181 12.8182C12.6424 12.9939 12.3575 12.9939 12.1818 12.8182C12.006 12.6425 12.006 12.3575 12.1818 12.1818L13.0118 11.3517C13.2503 11.1133 13.2503 10.7266 13.0118 10.4881C12.7733 10.2496 12.3867 10.2496 12.1482 10.4881L11.9501 10.6861C11.7744 10.8618 11.4895 10.8618 11.3138 10.686C11.138 10.5103 11.138 10.2254 11.3138 10.0496L11.5118 9.85163C12.1018 9.26173 13.0583 9.26176 13.6482 9.8517Z" fill="black"/>
<path fill-rule="evenodd" clip-rule="evenodd" d="M2.43186 12.0682C1.84188 11.4782 1.84189 10.5216 2.43189 9.93167L3.68179 8.68184C3.85753 8.5061 4.14246 8.50611 4.31819 8.68185C4.49392 8.85759 4.49391 9.14252 4.31817 9.31825L3.06827 10.5681C2.82976 10.8066 2.82975 11.1933 3.06826 11.4318C3.30676 11.6703 3.69345 11.6703 3.93195 11.4318L5.18192 10.1818C5.35765 10.006 5.64257 10.006 5.81831 10.1818C5.99405 10.3575 5.99405 10.6424 5.81832 10.8182L4.56835 12.0682C3.97838 12.6581 3.02184 12.6582 2.43186 12.0682Z" fill="black"/>
<path fill-rule="evenodd" clip-rule="evenodd" d="M2.1818 6.31826C1.59183 5.72829 1.59183 4.77176 2.1818 4.18179L3.18194 3.18164C3.35768 3.00591 3.6426 3.00591 3.81834 3.18164C3.99407 3.35738 3.99407 3.6423 3.81834 3.81804L2.81819 4.81818C2.57969 5.05668 2.57969 5.44336 2.81819 5.68186C3.0567 5.92037 3.4434 5.92036 3.68189 5.68184L4.18188 5.1816C4.35761 5.00586 4.64256 5.00602 4.8183 5.18174C4.99405 5.35747 4.994 5.64226 4.81827 5.818L4.31832 6.3182C3.72836 6.90822 2.77179 6.90825 2.1818 6.31826Z" fill="black"/>
<path fill-rule="evenodd" clip-rule="evenodd" d="M13.5682 3.93175C14.1581 4.52171 14.1581 5.47821 13.5681 6.06815L12.3182 7.31804C12.1424 7.49377 11.8575 7.49377 11.6818 7.31803C11.506 7.14229 11.506 6.85736 11.6818 6.68163L12.9318 5.43173C13.1702 5.19326 13.1702 4.80661 12.9318 4.56813C12.6933 4.32964 12.3067 4.32951 12.0682 4.568L10.8182 5.81815C10.6424 5.99389 10.3575 5.99389 10.1818 5.81816C10.006 5.64243 10.006 5.3575 10.1818 5.18177L11.4318 3.9316C12.0218 3.34162 12.9782 3.34177 13.5682 3.93175Z" fill="black"/>
<path fill-rule="evenodd" clip-rule="evenodd" d="M9.68662 9.94964L6.69318 12.9432C6.45471 13.1817 6.45471 13.5684 6.69319 13.8068C6.93167 14.0453 7.31834 14.0453 7.55682 13.8068L11.406 9.95765C11.5817 9.78191 11.8666 9.78191 12.0423 9.95765C12.2181 10.1334 12.2181 10.4183 12.0424 10.594L8.19322 14.4432C7.60326 15.0332 6.64675 15.0332 6.05679 14.4432C5.46685 13.8533 5.46684 12.8968 6.05677 12.3068L9.05021 9.31326C9.22594 9.13752 9.51086 9.13751 9.6866 9.31324C9.86234 9.48897 9.86235 9.7739 9.68662 9.94964Z" fill="black"/>
</svg>
