<svg width="16" height="16" viewBox="0 0 16 16" fill="none" xmlns="http://www.w3.org/2000/svg">
<g clip-path="url(#clip0_2372_4047)">
<path d="M13.2323 8.43968L14.2929 9.50034L15 8.79324L13.9394 7.73258L13.2323 8.43968Z" fill="black"/>
<path d="M16.0001 5H14.5001V6H16.0001V5Z" fill="black"/>
<path d="M14.2929 1.50031L13.2322 2.56097L13.9394 3.26808L15 2.20742L14.2929 1.50031Z" fill="black"/>
<path d="M11.0001 0H10.0001V1.5H11.0001V0Z" fill="black"/>
<path d="M6 2.20744L7.06066 3.2681L7.76777 2.56099L6.70711 1.50033L6 2.20744Z" fill="black"/>
<path d="M12 5.5C12 6.32843 11.3284 7 10.5 7C10.3701 7 10.2441 6.9835 10.124 6.95248L11 7.5V7.94999C12.1411 7.71836 13 6.70948 13 5.5C13 4.11929 11.8807 3 10.5 3C9.11929 3 8 4.11929 8 5.5C8 5.54258 8.00106 5.58492 8.00317 5.62698L9.36013 6.47508C9.13561 6.21287 9 5.87227 9 5.5C9 4.67157 9.67157 4 10.5 4C11.3284 4 12 4.67157 12 5.5Z" fill="black"/>
<path fill-rule="evenodd" clip-rule="evenodd" d="M6.47028 4.576C6.64142 4.47467 6.85858 4.47467 7.02972 4.576L11.2519 7.076C11.4063 7.16737 11.5 7.32761 11.5 7.5V12.5C11.5 12.6724 11.4063 12.8326 11.2519 12.924L7.02972 15.424C6.85858 15.5253 6.64142 15.5253 6.47028 15.424L2.24806 12.924C2.09374 12.8326 2 12.6724 2 12.5V7.5C2 7.32761 2.09374 7.16737 2.24806 7.076L6.47028 4.576ZM3.05556 8.40212L6.22222 10.2771V14.0979L3.05556 12.2229V8.40212ZM7.27778 14.0979L10.4444 12.2229V8.40212L7.27778 10.2771V14.0979ZM6.75 9.41038L9.97641 7.5L6.75 5.58962L3.52359 7.5L6.75 9.41038Z" fill="black"/>
</g>
<defs>
<clipPath id="clip0_2372_4047">
<rect width="16" height="16" fill="white"/>
</clipPath>
</defs>
</svg>
