<svg width="16" height="16" viewBox="0 0 16 16" fill="none" xmlns="http://www.w3.org/2000/svg">
<path fill-rule="evenodd" clip-rule="evenodd" d="M3 6V10C3 10.5523 3.44772 11 4 11H12C12.5523 11 13 10.5523 13 10V6C13 5.44772 12.5523 5 12 5H4C3.44772 5 3 5.44772 3 6ZM4 6V10H12V6H10V7H9V6H4Z" fill="black"/>
<path fill-rule="evenodd" clip-rule="evenodd" d="M1 4V12C1 12.5523 1.44772 13 2 13H14C14.5523 13 15 12.5523 15 12V4C15 3.44772 14.5523 3 14 3H2C1.44772 3 1 3.44772 1 4ZM2 4L2 12H14L14 4H2Z" fill="black"/>
</svg>
