<svg width="16" height="16" viewBox="0 0 16 16" fill="none" xmlns="http://www.w3.org/2000/svg">
<path d="M8.50001 1.5C8.50001 1.22386 8.27615 1 8.00001 1C7.8133 1 7.65049 1.10233 7.56462 1.25397L2.00001 4.5V10.9211L1.74807 11.0681C1.50954 11.2073 1.42898 11.5134 1.56812 11.7519C1.70726 11.9905 2.01341 12.071 2.25194 11.9319L8.00001 8.57885L13.7481 11.9319C13.9866 12.071 14.2928 11.9905 14.4319 11.7519C14.571 11.5134 14.4905 11.2073 14.2519 11.0681L8.50001 7.71281V1.5Z" fill="#A9A9A9"/>
<path d="M14.252 4.06812L8.25195 0.568119C8.17548 0.523507 8.08853 0.5 8 0.5C7.91147 0.5 7.82452 0.523507 7.74805 0.568119L1.74805 4.06812C1.67257 4.11215 1.60994 4.1752 1.56642 4.25099C1.5229 4.32677 1.5 4.41263 1.5 4.50002V11.5C1.5 11.5874 1.5229 11.6733 1.56642 11.7491C1.60994 11.8248 1.67257 11.8879 1.74805 11.9319L7.74805 15.4319C7.82452 15.4765 7.91147 15.5 8 15.5C8.08853 15.5 8.17548 15.4765 8.25195 15.4319L14.252 11.9319C14.3274 11.8879 14.3901 11.8248 14.4336 11.7491C14.4771 11.6733 14.5 11.5874 14.5 11.5V4.50002C14.5 4.41263 14.4771 4.32677 14.4336 4.25099C14.3901 4.1752 14.3274 4.11215 14.252 4.06812ZM8 1.57887L13.0078 4.50002L8 7.42117L2.9922 4.50002L8 1.57887ZM2.5 5.37062L7.5 8.28712V14.1294L2.5 11.2129V5.37062ZM8.5 14.1294V8.28712L13.5 5.37062V11.2129L8.5 14.1294Z" fill="black"/>
</svg>
