<svg width="16" height="16" viewBox="0 0 16 16" fill="none" xmlns="http://www.w3.org/2000/svg">
<path d="M1 8.00016C1 4.82914 3.10851 2.15059 6 1.29004V2.34157C3.66961 3.16525 2 5.38772 2 8.00016C2 8.51311 2.06437 9.01102 2.18547 9.48627L1.38275 10.289C1.13472 9.57178 1 8.8017 1 8.00016Z" fill="black"/>
<path d="M8 14.0002C6.68212 14.0002 5.46347 13.5753 4.47358 12.855L3.75897 13.5696C4.93584 14.4672 6.40568 15.0002 8 15.0002C9.59433 15.0002 11.0642 14.4672 12.241 13.5696L11.5264 12.855C10.5365 13.5753 9.31788 14.0002 8 14.0002Z" fill="black"/>
<path d="M13.8145 9.48626L14.6173 10.289C14.8653 9.57178 15 8.8017 15 8.00016C15 4.82914 12.8915 2.15059 10 1.29004V2.34157C12.3304 3.16524 14 5.38772 14 8.00016C14 8.51311 13.9356 9.01102 13.8145 9.48626Z" fill="black"/>
</svg>
