<svg width="16" height="16" viewBox="0 0 16 16" fill="none" xmlns="http://www.w3.org/2000/svg">
<path d="M12.5 10C11.9758 10.0015 11.4644 9.83777 11.0386 9.53201C10.6128 9.22625 10.2942 8.79405 10.1281 8.29684C9.962 7.79964 9.95684 7.26272 10.1134 6.76242C10.2699 6.26211 10.5802 5.82388 11 5.51V2.5C11 2.10218 11.1581 1.72064 11.4394 1.43934C11.7207 1.15804 12.1022 1 12.5 1C12.8978 1 13.2794 1.15804 13.5607 1.43934C13.842 1.72064 14 2.10218 14 2.5V5.51C14.4199 5.82388 14.7301 6.26211 14.8867 6.76242C15.0432 7.26272 15.038 7.79964 14.8719 8.29684C14.7058 8.79405 14.3872 9.22625 13.9614 9.53201C13.5356 9.83777 13.0242 10.0015 12.5 10ZM12.5 2C12.3675 2.00015 12.2404 2.05287 12.1466 2.14661C12.0529 2.24034 12.0002 2.36744 12 2.5V6.065L11.7515 6.20965C11.5233 6.33912 11.3336 6.52674 11.2016 6.75341C11.0696 6.98008 11 7.23769 11 7.5C11 7.89783 11.1581 8.27936 11.4394 8.56066C11.7207 8.84197 12.1022 9 12.5 9C12.8978 9 13.2794 8.84197 13.5607 8.56066C13.842 8.27936 14 7.89783 14 7.5C14 7.23766 13.9305 6.98001 13.7985 6.7533C13.6665 6.52659 13.4767 6.33893 13.2486 6.20945L13 6.065V2.5C12.9999 2.36744 12.9471 2.24034 12.8534 2.14661C12.7597 2.05287 12.6326 2.00015 12.5 2Z" fill="black"/>
<path fill-rule="evenodd" clip-rule="evenodd" d="M6.74096 3.06189C6.59092 2.97937 6.40908 2.97937 6.25904 3.06189L1.25904 5.81189C1.09927 5.89977 1 6.06765 1 6.25V11.75C1 11.9323 1.09927 12.1002 1.25904 12.1881L6.25904 14.9381C6.40908 15.0206 6.59092 15.0206 6.74096 14.9381L11.741 12.1881C11.9007 12.1002 12 11.9323 12 11.75V11H11V11.4544L7 13.6544V9.29564L9 8.19564V7.05436L6.5 8.42936L2.53752 6.25L6.5 4.07064L9 5.44564V4.30436L6.74096 3.06189ZM6 9.29564L2 7.09564V11.4544L6 13.6544V9.29564Z" fill="black"/>
</svg>
