<svg width="16" height="16" viewBox="0 0 16 16" fill="none" xmlns="http://www.w3.org/2000/svg">
<g clip-path="url(#clip0_2372_4032)">
<path d="M6 4V7.5H4V4H3V12.0312H4V8.5H6V12.0312H7V4H6Z" fill="black"/>
<path d="M12.0156 11.9997H9.01562V10.9997H12.0156V8.4997H10.0156C9.75041 8.4997 9.49605 8.39434 9.30852 8.20681C9.12098 8.01927 9.01562 7.76492 9.01562 7.4997V4.9997C9.01562 4.73448 9.12098 4.48013 9.30852 4.29259C9.49605 4.10506 9.75041 3.9997 10.0156 3.9997H13.0156V4.9997H10.0156V7.4997H12.0156C12.2808 7.4997 12.5352 7.60506 12.7227 7.79259C12.9103 7.98013 13.0156 8.23448 13.0156 8.4997V10.9997C13.0156 11.2649 12.9103 11.5193 12.7227 11.7068C12.5352 11.8943 12.2808 11.9997 12.0156 11.9997Z" fill="black"/>
<path fill-rule="evenodd" clip-rule="evenodd" d="M15 1H1V15H15V1ZM1 0C0.447715 0 0 0.447715 0 1V15C0 15.5523 0.447715 16 1 16H15C15.5523 16 16 15.5523 16 15V1C16 0.447715 15.5523 0 15 0H1Z" fill="black"/>
</g>
<defs>
<clipPath id="clip0_2372_4032">
<rect width="16" height="16" fill="white"/>
</clipPath>
</defs>
</svg>
