<svg width="16" height="16" viewBox="0 0 16 16" fill="none" xmlns="http://www.w3.org/2000/svg">
<path fill-rule="evenodd" clip-rule="evenodd" d="M8.42857 1L11.1286 3.025L10.5286 3.825L8.92857 2.625V5.125H7.92857V2.625L6.32857 3.825L5.72857 3.025L8.42857 1ZM5.10851 6.42732C5.21534 6.24037 5.41415 6.125 5.62946 6.125H11.2277C11.443 6.125 11.6418 6.24037 11.7486 6.42732L12.7772 8.22732C13.0058 8.62731 12.7169 9.125 12.2563 9.125H4.60089C4.14019 9.125 3.85137 8.62731 4.07994 8.22732L5.10851 6.42732ZM5.86159 7.125L5.29016 8.125H11.567L10.9956 7.125H5.86159ZM4.94818 8.72346C4.94812 8.72357 4.94825 8.72334 4.94818 8.72346V8.72346ZM8.92857 10.125V12.625L10.5286 11.425L11.1286 12.225L8.42857 14.25L5.72857 12.225L6.32857 11.425L7.92857 12.625V10.125H8.92857Z" fill="black"/>
</svg>
