<svg width="16" height="16" viewBox="0 0 16 16" fill="none" xmlns="http://www.w3.org/2000/svg">
<mask id="path-1-inside-1_2351_4962" fill="white">
<path d="M14 6.99978H13V10.5856L10.5858 12.9998H3V5.41399L5.41421 2.99978L9 2.99978V1.99978H5.41421C5.149 1.99978 4.89464 2.10513 4.70711 2.29267L2.29289 4.70688C2.10536 4.89442 2 5.14877 2 5.41399V12.9998C2 13.5521 2.44772 13.9998 3 13.9998H10.5858C10.851 13.9998 11.1054 13.8944 11.2929 13.7069L13.7071 11.2927C13.8946 11.1051 14 10.8508 14 10.5856V6.99978Z"/>
<path d="M6 7.99977C6 6.89528 6.89543 5.99977 8 5.99977H10V4.99978H8C6.34315 4.99978 5 6.34255 5 7.99977C5 9.657 6.34315 10.9998 8 10.9998H10V9.99977H8C6.89543 9.99977 6 9.10427 6 7.99977Z"/>
<path d="M15.0107 1.1211L10.7681 1.12109V2.12094H13.3038L10.7681 4.65725L11.4752 5.36436L14.0109 2.82805V5.36374L15.0107 5.36373L15.0107 1.1211Z"/>
</mask>
<path d="M14 6.99978H13V10.5856L10.5858 12.9998H3V5.41399L5.41421 2.99978L9 2.99978V1.99978H5.41421C5.149 1.99978 4.89464 2.10513 4.70711 2.29267L2.29289 4.70688C2.10536 4.89442 2 5.14877 2 5.41399V12.9998C2 13.5521 2.44772 13.9998 3 13.9998H10.5858C10.851 13.9998 11.1054 13.8944 11.2929 13.7069L13.7071 11.2927C13.8946 11.1051 14 10.8508 14 10.5856V6.99978Z" fill="black"/>
<path d="M6 7.99977C6 6.89528 6.89543 5.99977 8 5.99977H10V4.99978H8C6.34315 4.99978 5 6.34255 5 7.99977C5 9.657 6.34315 10.9998 8 10.9998H10V9.99977H8C6.89543 9.99977 6 9.10427 6 7.99977Z" fill="black"/>
<path d="M15.0107 1.1211L10.7681 1.12109V2.12094H13.3038L10.7681 4.65725L11.4752 5.36436L14.0109 2.82805V5.36374L15.0107 5.36373L15.0107 1.1211Z" fill="black"/>
<path d="M13 6.99978V5.99978H12V6.99978H13ZM14 6.99978H15V5.99978H14V6.99978ZM13 10.5856L13.7071 11.2927L14 10.9998V10.5856H13ZM10.5858 12.9998V13.9998H11L11.2929 13.7069L10.5858 12.9998ZM3 12.9998H2V13.9998H3V12.9998ZM3 5.41399L2.29289 4.70688L2 4.99977V5.41399H3ZM5.41421 2.99978V1.99978H5L4.70711 2.29267L5.41421 2.99978ZM9 2.99978V3.99978H10V2.99978H9ZM9 1.99978H10V0.999775H9V1.99978ZM4.70711 2.29267L5.41421 2.99978L5.41421 2.99977L4.70711 2.29267ZM2.29289 4.70688L1.58579 3.99977L1.58579 3.99978L2.29289 4.70688ZM10 5.99977V6.99977H11V5.99977H10ZM10 4.99978H11V3.99978H10V4.99978ZM10 10.9998V11.9998H11V10.9998H10ZM10 9.99977H11V8.99977H10V9.99977ZM15.0107 1.1211L16.0107 1.12109V0.121096L15.0107 0.121095V1.1211ZM10.7681 1.12109V0.121094L9.76808 0.121093V1.12109H10.7681ZM10.7681 2.12094H9.76808V3.12094H10.7681V2.12094ZM13.3038 2.12094L14.011 2.82796L15.7176 1.12094H13.3038V2.12094ZM10.7681 4.65725L10.0609 3.95023L9.35395 4.65734L10.061 5.36436L10.7681 4.65725ZM11.4752 5.36436L10.7681 6.07147L11.4753 6.77866L12.1824 6.07138L11.4752 5.36436ZM14.0109 2.82805H15.0109V0.413416L13.3037 2.12103L14.0109 2.82805ZM14.0109 5.36374H13.0109V6.36374L14.0109 6.36374L14.0109 5.36374ZM15.0107 5.36373L15.0107 6.36373L16.0107 6.36373V5.36373L15.0107 5.36373ZM13 6.99978V7.99978H14V6.99978V5.99978H13V6.99978ZM13 6.99978H12V10.5856H13H14V6.99978H13ZM13 10.5856L12.2929 9.87846L9.87868 12.2927L10.5858 12.9998L11.2929 13.7069L13.7071 11.2927L13 10.5856ZM10.5858 12.9998V11.9998H3V12.9998V13.9998H10.5858V12.9998ZM3 12.9998H4V5.41399H3H2V12.9998H3ZM3 5.41399L3.70711 6.1211L6.12132 3.70688L5.41421 2.99978L4.70711 2.29267L2.29289 4.70688L3 5.41399ZM5.41421 2.99978V3.99978L9 3.99978V2.99978V1.99978L5.41421 1.99978V2.99978ZM9 1.99978H8V2.99978H9H10V1.99978H9ZM5.41421 1.99978V2.99978H9V1.99978V0.999775H5.41421V1.99978ZM4.70711 2.29267L5.41421 2.99977L5.41421 2.99978V1.99978V0.999775C4.88378 0.999775 4.37507 1.21049 4 1.58556L4.70711 2.29267ZM2.29289 4.70688L3 5.41399L5.41421 2.99978L4.70711 2.29267L4 1.58556L1.58579 3.99977L2.29289 4.70688ZM2 5.41399H3L3 5.41399L2.29289 4.70688L1.58579 3.99978C1.21071 4.37485 1 4.88356 1 5.41399H2ZM2 12.9998H3V5.41399H2H1V12.9998H2ZM3 13.9998V12.9998H2H1C1 14.1043 1.89543 14.9998 3 14.9998V13.9998ZM10.5858 13.9998V12.9998H3V13.9998V14.9998H10.5858V13.9998ZM11.2929 13.7069L10.5858 12.9998V13.9998V14.9998C11.1162 14.9998 11.6249 14.7891 12 14.414L11.2929 13.7069ZM13.7071 11.2927L13 10.5856L10.5858 12.9998L11.2929 13.7069L12 14.414L14.4142 11.9998L13.7071 11.2927ZM14 10.5856H13L13.7071 11.2927L14.4142 11.9998C14.7893 11.6247 15 11.116 15 10.5856H14ZM14 6.99978H13V10.5856H14H15V6.99978H14ZM8 5.99977V4.99977C6.34312 4.99977 5 6.34302 5 7.99977H6H7C7 7.44754 7.44774 6.99977 8 6.99977V5.99977ZM10 5.99977V4.99977H8V5.99977V6.99977H10V5.99977ZM10 4.99978H9V5.99977H10H11V4.99978H10ZM8 4.99978V5.99977H10V4.99978V3.99978H8V4.99978ZM5 7.99977H6C6 6.89491 6.89535 5.99977 8 5.99977V4.99978V3.99978C5.79094 3.99978 4 5.79018 4 7.99977H5ZM8 10.9998V9.99977C6.89535 9.99977 6 9.10464 6 7.99977H5H4C4 10.2094 5.79094 11.9998 8 11.9998V10.9998ZM10 10.9998V9.99977H8V10.9998V11.9998H10V10.9998ZM10 9.99977H9V10.9998H10H11V9.99977H10ZM8 9.99977V10.9998H10V9.99977V8.99977H8V9.99977ZM6 7.99977H5C5 9.65653 6.34312 10.9998 8 10.9998V9.99977V8.99977C7.44774 8.99977 7 8.55201 7 7.99977H6ZM15.0107 1.1211V0.121095L10.7681 0.121094V1.12109V2.12109L15.0107 2.1211V1.1211ZM10.7681 1.12109H9.76808V2.12094H10.7681H11.7681V1.12109H10.7681ZM10.7681 2.12094V3.12094H13.3038V2.12094V1.12094H10.7681V2.12094ZM13.3038 2.12094L12.5966 1.41392L10.0609 3.95023L10.7681 4.65725L11.4753 5.36427L14.011 2.82796L13.3038 2.12094ZM10.7681 4.65725L10.061 5.36436L10.7681 6.07147L11.4752 5.36436L12.1823 4.65725L11.4752 3.95015L10.7681 4.65725ZM11.4752 5.36436L12.1824 6.07138L14.7181 3.53507L14.0109 2.82805L13.3037 2.12103L10.768 4.65734L11.4752 5.36436ZM14.0109 2.82805H13.0109V5.36374H14.0109H15.0109V2.82805H14.0109ZM14.0109 5.36374L14.0109 6.36374L15.0107 6.36373L15.0107 5.36373L15.0107 4.36373L14.0109 4.36374L14.0109 5.36374ZM15.0107 5.36373L16.0107 5.36373L16.0107 1.12109L15.0107 1.1211L14.0107 1.1211L14.0107 5.36373L15.0107 5.36373Z" fill="black" mask="url(#path-1-inside-1_2351_4962)"/>
</svg>
