<svg width="16" height="16" viewBox="0 0 16 16" fill="none" xmlns="http://www.w3.org/2000/svg">
<path d="M13 1C13.5523 1 14 1.44772 14 2V5C14 5.55228 13.5523 6 13 6H12V7.29004L8.5 9.28906V9.5C8.5 10.3284 7.82843 11 7 11H3.5C3.22386 11 3 11.2239 3 11.5C3 11.7761 3.22386 12 3.5 12H12.5C13.3284 12 14 12.6716 14 13.5C14 14.3284 13.3284 15 12.5 15H2V14H12.5C12.7761 14 13 13.7761 13 13.5C13 13.2239 12.7761 13 12.5 13H3.5C2.67157 13 2 12.3284 2 11.5C2 10.6716 2.67157 10 3.5 10H7C7.27614 10 7.5 9.77614 7.5 9.5V9.30859L3.5 7.30859V6H3C2.44772 6 2 5.55228 2 5V2C2 1.44772 2.44772 1 3 1H13ZM4.5 6.69141L7.98438 8.43359L11 6.70996V6H4.5V6.69141ZM3 5H13V2H3V5Z" fill="black"/>
</svg>
