<svg width="16" height="16" viewBox="0 0 16 16" fill="none" xmlns="http://www.w3.org/2000/svg">
<path fill-rule="evenodd" clip-rule="evenodd" d="M6.93929 1.3534C7.52507 0.767616 8.47482 0.767615 9.06061 1.3534L12.6464 4.93917C13.2322 5.52495 13.2322 6.4747 12.6464 7.06049L9.06061 10.6462C8.47482 11.232 7.52507 11.232 6.93929 10.6462L3.35352 7.06049C2.76774 6.4747 2.76774 5.52495 3.35352 4.93917L6.93929 1.3534ZM8.3535 2.06051C8.15824 1.86525 7.84166 1.86525 7.64639 2.06051L4.06063 5.64627C3.86537 5.84153 3.86537 6.15812 4.06063 6.35338L7.64639 9.93914C7.84166 10.1344 8.15824 10.1344 8.3535 9.93914L11.9393 6.35338C12.1345 6.15812 12.1345 5.84153 11.9393 5.64627L8.3535 2.06051Z" fill="black"/>
<path d="M3.00001 8.00082V13.9998H4.00001V9.00082L3.00001 8.00082Z" fill="black"/>
<path d="M6.00001 11.0008V13.9998H7.00001V11.9326C6.88092 11.8582 6.76833 11.7691 6.66478 11.6656L6.00001 11.0008Z" fill="black"/>
<path d="M9.00001 11.9326V13.9998H10V11.0008L9.33524 11.6656C9.23169 11.7691 9.1191 11.8582 9.00001 11.9326Z" fill="black"/>
<path d="M11 10.6667L11.6667 10L15 13.3333L14.3333 13.9999L11 10.6667Z" fill="black"/>
<path d="M14.3333 10.0001L15 10.6667L11.6667 14L11 13.3333L14.3333 10.0001Z" fill="black"/>
</svg>
